<svg width="595" height="421" viewBox="0 0 595 421" fill="none" xmlns="http://www.w3.org/2000/svg">
<rect width="595" height="421" fill="white"/>
<path d="M20 0H575V397C575 399.209 573.209 401 571 401H24C21.7909 401 20 399.209 20 397V0Z" fill="#EEEEEE"/>
<path d="M20 0H575V397C575 399.209 573.209 401 571 401H24C21.7909 401 20 399.209 20 397V0Z" fill="#EEEEEE"/>
<path d="M149.144 208.98C149.144 213.64 151.784 216.2 157.944 216.2C163.524 216.2 166.324 214.06 166.684 210H163.024C162.684 212.28 160.924 213.18 157.944 213.18C154.304 213.18 152.744 211.86 152.744 208.98C152.744 206.12 154.284 204.82 157.944 204.82C160.944 204.82 162.684 205.7 163.024 207.96H166.684C166.324 203.92 163.524 201.8 157.944 201.8C151.784 201.8 149.144 204.34 149.144 208.98ZM180.969 216H184.949L177.709 202H172.849L165.629 216H169.589L171.089 213.02H179.469L180.969 216ZM172.429 210.34L175.289 204.66L178.129 210.34H172.429ZM196.809 202H185.809V216H189.409V212.26H196.809C199.989 212.26 202.169 210.26 202.169 207.14C202.169 204.02 199.989 202 196.809 202ZM195.809 209.24H189.409V205.02H195.809C196.889 205.02 198.569 205.02 198.569 207.14C198.569 209.24 196.889 209.24 195.809 209.24ZM215.539 216H219.519L212.279 202H207.419L200.199 216H204.159L205.659 213.02H214.039L215.539 216ZM206.999 210.34L209.859 204.66L212.699 210.34H206.999ZM240.344 202H230.184V216H240.344C243.964 216 247.144 213.76 247.144 209C247.144 204.24 243.964 202 240.344 202ZM238.984 212.98H233.784V205.02H238.984C241.704 205.02 243.544 205.6 243.544 209C243.544 212.4 241.704 212.98 238.984 212.98ZM257.046 216.2C263.186 216.2 265.846 213.62 265.846 208.98C265.846 204.36 263.186 201.8 257.046 201.8C250.886 201.8 248.246 204.34 248.246 208.98C248.246 213.64 250.886 216.2 257.046 216.2ZM257.046 213.18C253.306 213.18 251.846 211.86 251.846 208.98C251.846 206.12 253.286 204.82 257.046 204.82C260.806 204.82 262.246 206.14 262.246 208.98C262.246 211.84 260.786 213.18 257.046 213.18ZM286.672 202H276.512V216H286.672C290.292 216 293.472 213.76 293.472 209C293.472 204.24 290.292 202 286.672 202ZM285.312 212.98H280.112V205.02H285.312C288.032 205.02 289.872 205.6 289.872 209C289.872 212.4 288.032 212.98 285.312 212.98ZM303.374 216.2C309.514 216.2 312.174 213.62 312.174 208.98C312.174 204.36 309.514 201.8 303.374 201.8C297.214 201.8 294.574 204.34 294.574 208.98C294.574 213.64 297.214 216.2 303.374 216.2ZM303.374 213.18C299.634 213.18 298.174 211.86 298.174 208.98C298.174 206.12 299.614 204.82 303.374 204.82C307.134 204.82 308.574 206.14 308.574 208.98C308.574 211.84 307.114 213.18 303.374 213.18ZM313.285 208.98C313.285 213.64 315.925 216.2 322.085 216.2C327.665 216.2 330.465 214.06 330.825 210H327.165C326.825 212.28 325.065 213.18 322.085 213.18C318.445 213.18 316.885 211.86 316.885 208.98C316.885 206.12 318.425 204.82 322.085 204.82C325.085 204.82 326.825 205.7 327.165 207.96H330.825C330.465 203.92 327.665 201.8 322.085 201.8C315.925 201.8 313.285 204.34 313.285 208.98ZM349.835 208.98V202H346.235V208.98C346.235 210.92 345.695 213.18 341.035 213.18C336.375 213.18 335.835 210.94 335.835 208.98V202H332.235V208.98C332.235 213.86 334.875 216.2 341.035 216.2C347.175 216.2 349.835 213.84 349.835 208.98ZM372.777 202H367.917L362.057 211.88L356.197 202H351.337V216H354.937V206.4L360.757 216H363.357L369.177 206.4V216H372.777V202ZM389.183 204.86V202H374.383V216H389.183V213.14H377.983V210.3H389.183V207.7H377.983V204.86H389.183ZM404.937 202V212.52L395.377 202H390.497V216H394.097V205.5L403.637 216H408.537V202H404.937ZM426.93 202H409.73V205.02H416.53V216H420.13V205.02H426.93V202ZM436.05 216.2C442.19 216.2 444.85 213.62 444.85 208.98C444.85 204.36 442.19 201.8 436.05 201.8C429.89 201.8 427.25 204.34 427.25 208.98C427.25 213.64 429.89 216.2 436.05 216.2ZM436.05 213.18C432.31 213.18 430.85 211.86 430.85 208.98C430.85 206.12 432.29 204.82 436.05 204.82C439.81 204.82 441.25 206.14 441.25 208.98C441.25 211.84 439.79 213.18 436.05 213.18Z" fill="black"/>
</svg>
