<svg width="595" height="421" viewBox="0 0 595 421" fill="none" xmlns="http://www.w3.org/2000/svg">
<rect width="595" height="421" transform="translate(595 421) rotate(-180)" fill="white"/>
<path d="M575 421L20 421L20 30C20 24.4772 24.4772 20 30 20L565 20.0001C570.523 20.0001 575 24.4772 575 30.0001L575 421Z" fill="#3CA6C7" fill-opacity="0.5"/>
<path d="M197.204 194H175.204V222H182.404V214.52H197.204C203.564 214.52 207.924 210.52 207.924 204.28C207.924 198.04 203.564 194 197.204 194ZM195.204 208.48H182.404V200.04H195.204C197.364 200.04 200.724 200.04 200.724 204.28C200.724 208.48 197.364 208.48 195.204 208.48ZM231.064 182.8L215.504 186V190.72L231.064 187.52V182.8ZM234.664 222H242.624L228.144 194H218.424L203.984 222H211.904L214.904 216.04H231.664L234.664 222ZM217.584 210.68L223.304 199.32L228.984 210.68H217.584ZM258.062 211.68H268.502C268.342 213.8 265.542 216.84 258.582 216.84C249.262 216.84 247.942 211.56 247.942 208.16C247.942 204.8 249.222 199.64 258.582 199.64C266.182 199.64 268.102 202.8 268.502 204.92H275.822C275.382 197.96 269.782 193.6 258.582 193.6C247.062 193.6 240.742 198.72 240.742 208C240.742 217.28 247.062 222.4 257.382 222.4C263.342 222.4 267.542 220.48 270.182 217.6L270.502 222H275.822V207H258.062V211.68ZM285.842 194H278.642V222H285.842V194ZM317.913 194V215.04L298.793 194H289.033V222H296.233V201L315.313 222H325.113V194H317.913ZM357.516 222H365.476L350.996 194H341.276L326.836 222H334.756L337.756 216.04H354.516L357.516 222ZM340.436 210.68L346.156 199.32L351.836 210.68H340.436ZM405.326 203.12C400.046 203.12 396.326 204.48 394.166 206.16C394.886 200.48 398.006 199.32 403.686 199.32C408.886 199.32 412.966 200.24 416.926 201V195.28C413.526 194.56 408.886 193.6 401.926 193.6C393.686 193.6 386.806 197.08 386.806 208.68C386.806 217.72 391.606 222.4 403.606 222.4C413.486 222.4 418.806 219.12 418.806 212.6C418.806 205.84 413.486 203.12 405.326 203.12ZM402.806 216.68C396.446 216.68 394.006 214.92 394.006 212C394.006 209.04 396.646 207.36 402.806 207.36C409.646 207.36 411.606 209.08 411.606 212C411.606 214.92 409.606 216.68 402.806 216.68Z" fill="black"/>
</svg>
