<svg width="595" height="421" viewBox="0 0 595 421" fill="none" xmlns="http://www.w3.org/2000/svg">
<rect width="595" height="421" transform="translate(595 421) rotate(-180)" fill="white"/>
<path d="M575 421L20 421L20 30C20 24.4772 24.4772 20 30 20L565 20.0001C570.523 20.0001 575 24.4772 575 30.0001L575 421Z" fill="#3CA6C7" fill-opacity="0.5"/>
<path d="M182.908 194H160.908V222H168.108V214.52H182.908C189.268 214.52 193.628 210.52 193.628 204.28C193.628 198.04 189.268 194 182.908 194ZM180.908 208.48H168.108V200.04H180.908C183.068 200.04 186.428 200.04 186.428 204.28C186.428 208.48 183.068 208.48 180.908 208.48ZM216.767 182.8L201.207 186V190.72L216.767 187.52V182.8ZM220.367 222H228.327L213.847 194H204.127L189.687 222H197.607L200.607 216.04H217.367L220.367 222ZM203.287 210.68L209.007 199.32L214.687 210.68H203.287ZM243.765 211.68H254.205C254.045 213.8 251.245 216.84 244.285 216.84C234.965 216.84 233.645 211.56 233.645 208.16C233.645 204.8 234.925 199.64 244.285 199.64C251.885 199.64 253.805 202.8 254.205 204.92H261.525C261.085 197.96 255.485 193.6 244.285 193.6C232.765 193.6 226.445 198.72 226.445 208C226.445 217.28 232.765 222.4 243.085 222.4C249.045 222.4 253.245 220.48 255.885 217.6L256.205 222H261.525V207H243.765V211.68ZM271.545 194H264.345V222H271.545V194ZM303.616 194V215.04L284.496 194H274.736V222H281.936V201L301.016 222H310.816V194H303.616ZM343.219 222H351.179L336.699 194H326.979L312.539 222H320.459L323.459 216.04H340.219L343.219 222ZM326.139 210.68L331.859 199.32L337.539 210.68H326.139ZM389.309 215.96V194H382.109C382.109 199.36 376.629 199.36 372.509 199.36V205.44C375.429 205.44 379.149 205.44 382.189 202.76L382.149 215.96H372.509V222H398.909V215.96H389.309ZM433.077 211.36H427.477V194H420.277L400.517 211.36V217.44H420.277V222H427.477V217.44H433.077V211.36ZM408.277 211.36L420.277 201.2V211.36H408.277Z" fill="black"/>
</svg>
