<svg width="595" height="421" viewBox="0 0 595 421" fill="none" xmlns="http://www.w3.org/2000/svg">
<rect width="595" height="421" transform="translate(595 421) rotate(-180)" fill="white"/>
<path d="M575 421L20 421L20 30C20 24.4772 24.4772 20 30 20L565 20.0001C570.523 20.0001 575 24.4772 575 30.0001L575 421Z" fill="#3CA6C7" fill-opacity="0.5"/>
<path d="M183.005 194H161.005V222H168.205V214.52H183.005C189.365 214.52 193.725 210.52 193.725 204.28C193.725 198.04 189.365 194 183.005 194ZM181.005 208.48H168.205V200.04H181.005C183.165 200.04 186.525 200.04 186.525 204.28C186.525 208.48 183.165 208.48 181.005 208.48ZM216.865 182.8L201.305 186V190.72L216.865 187.52V182.8ZM220.465 222H228.425L213.945 194H204.225L189.785 222H197.705L200.705 216.04H217.465L220.465 222ZM203.385 210.68L209.105 199.32L214.785 210.68H203.385ZM243.863 211.68H254.303C254.143 213.8 251.343 216.84 244.383 216.84C235.063 216.84 233.743 211.56 233.743 208.16C233.743 204.8 235.023 199.64 244.383 199.64C251.983 199.64 253.903 202.8 254.303 204.92H261.623C261.183 197.96 255.583 193.6 244.383 193.6C232.863 193.6 226.543 198.72 226.543 208C226.543 217.28 232.863 222.4 243.183 222.4C249.143 222.4 253.343 220.48 255.983 217.6L256.303 222H261.623V207H243.863V211.68ZM271.643 194H264.443V222H271.643V194ZM303.713 194V215.04L284.593 194H274.833V222H282.033V201L301.113 222H310.913V194H303.713ZM343.316 222H351.276L336.796 194H327.076L312.636 222H320.556L323.556 216.04H340.316L343.316 222ZM326.236 210.68L331.956 199.32L337.636 210.68H326.236ZM389.407 215.96V194H382.207C382.207 199.36 376.727 199.36 372.607 199.36V205.44C375.527 205.44 379.247 205.44 382.287 202.76L382.247 215.96H372.607V222H399.007V215.96H389.407ZM433.381 202.4C433.381 195.44 427.741 193.6 418.101 193.6C408.821 193.6 402.261 195.68 402.261 205H409.461C409.461 200.56 412.301 199.64 418.501 199.64C424.701 199.64 426.181 200.64 426.181 202.96C426.181 209.32 401.621 206.72 401.621 218.36V222H432.981V215.96H411.701C413.461 210.4 433.381 213.24 433.381 202.4Z" fill="black"/>
</svg>
