<svg width="595" height="421" viewBox="0 0 595 421" fill="none" xmlns="http://www.w3.org/2000/svg">
<rect width="595" height="421" transform="translate(595 421) rotate(-180)" fill="white"/>
<path d="M575 421L20 421L20 30C20 24.4772 24.4772 20 30 20L565 20.0001C570.523 20.0001 575 24.4772 575 30.0001L575 421Z" fill="#3CA6C7" fill-opacity="0.5"/>
<path d="M183.279 194H161.279V222H168.479V214.52H183.279C189.639 214.52 193.999 210.52 193.999 204.28C193.999 198.04 189.639 194 183.279 194ZM181.279 208.48H168.479V200.04H181.279C183.439 200.04 186.799 200.04 186.799 204.28C186.799 208.48 183.439 208.48 181.279 208.48ZM217.138 182.8L201.578 186V190.72L217.138 187.52V182.8ZM220.738 222H228.698L214.218 194H204.498L190.058 222H197.978L200.978 216.04H217.738L220.738 222ZM203.658 210.68L209.378 199.32L215.058 210.68H203.658ZM244.136 211.68H254.576C254.416 213.8 251.616 216.84 244.656 216.84C235.336 216.84 234.016 211.56 234.016 208.16C234.016 204.8 235.296 199.64 244.656 199.64C252.256 199.64 254.176 202.8 254.576 204.92H261.896C261.456 197.96 255.856 193.6 244.656 193.6C233.136 193.6 226.816 198.72 226.816 208C226.816 217.28 233.136 222.4 243.456 222.4C249.416 222.4 253.616 220.48 256.256 217.6L256.576 222H261.896V207H244.136V211.68ZM271.916 194H264.716V222H271.916V194ZM303.987 194V215.04L284.867 194H275.107V222H282.307V201L301.387 222H311.187V194H303.987ZM343.59 222H351.55L337.07 194H327.35L312.91 222H320.83L323.83 216.04H340.59L343.59 222ZM326.51 210.68L332.23 199.32L337.91 210.68H326.51ZM389.68 215.96V194H382.48C382.48 199.36 377 199.36 372.88 199.36V205.44C375.8 205.44 379.52 205.44 382.56 202.76L382.52 215.96H372.88V222H399.28V215.96H389.68ZM416.732 222.4C427.812 222.4 433.132 217.24 433.132 207.96C433.132 198.72 427.812 193.6 416.732 193.6C405.612 193.6 400.332 198.68 400.332 207.96C400.332 217.28 405.612 222.4 416.732 222.4ZM416.732 216.36C410.412 216.36 407.532 213.24 407.532 207.96C407.532 202.72 410.412 199.64 416.732 199.64C423.052 199.64 425.932 202.76 425.932 207.96C425.932 213.2 423.052 216.36 416.732 216.36Z" fill="black"/>
</svg>
