<svg width="595" height="421" viewBox="0 0 595 421" fill="none" xmlns="http://www.w3.org/2000/svg">
<g clip-path="url(#clip0)">
<rect width="595" height="421" transform="translate(595 421) rotate(-180)" fill="white"/>
<path d="M575 421L20 421L20 24C20 21.7908 21.7909 20 24 20L571 20C573.209 20 575 21.7909 575 24L575 421Z" fill="#EEEEEE"/>
<path d="M240.139 190H229.139V204H232.739V200.26H240.139C243.319 200.26 245.499 198.26 245.499 195.14C245.499 192.02 243.319 190 240.139 190ZM239.139 197.24H232.739V193.02H239.139C240.219 193.02 241.899 193.02 241.899 195.14C241.899 197.24 240.219 197.24 239.139 197.24ZM257.069 184.4L249.289 186V188.36L257.069 186.76V184.4ZM258.869 204H262.849L255.609 190H250.749L243.529 204H247.489L248.989 201.02H257.369L258.869 204ZM250.329 198.34L253.189 192.66L256.029 198.34H250.329ZM270.568 198.84H275.788C275.708 199.9 274.308 201.42 270.828 201.42C266.168 201.42 265.508 198.78 265.508 197.08C265.508 195.4 266.148 192.82 270.828 192.82C274.628 192.82 275.588 194.4 275.788 195.46H279.448C279.228 191.98 276.428 189.8 270.828 189.8C265.068 189.8 261.908 192.36 261.908 197C261.908 201.64 265.068 204.2 270.228 204.2C273.208 204.2 275.308 203.24 276.628 201.8L276.788 204H279.448V196.5H270.568V198.84ZM284.458 190H280.858V204H284.458V190ZM300.493 190V200.52L290.933 190H286.053V204H289.653V193.5L299.193 204H304.093V190H300.493ZM320.295 204H324.275L317.035 190H312.175L304.955 204H308.915L310.415 201.02H318.795L320.295 204ZM311.755 198.34L314.615 192.66L317.455 198.34H311.755ZM343.34 200.98V190H339.74C339.74 192.68 337 192.68 334.94 192.68V195.72C336.4 195.72 338.26 195.72 339.78 194.38L339.76 200.98H334.94V204H348.14V200.98H343.34ZM356.866 204.2C362.406 204.2 365.066 201.62 365.066 196.98C365.066 192.36 362.406 189.8 356.866 189.8C351.306 189.8 348.666 192.34 348.666 196.98C348.666 201.64 351.306 204.2 356.866 204.2ZM356.866 201.18C353.706 201.18 352.266 199.62 352.266 196.98C352.266 194.36 353.706 192.82 356.866 192.82C360.026 192.82 361.466 194.38 361.466 196.98C361.466 199.6 360.026 201.18 356.866 201.18Z" fill="#333333"/>
<line y1="420" x2="595" y2="420" stroke="#CCCCCC" stroke-width="2" stroke-dasharray="4 2"/>
</g>
<defs>
<clipPath id="clip0">
<rect width="595" height="421" fill="white" transform="translate(595 421) rotate(-180)"/>
</clipPath>
</defs>
</svg>
