<svg width="595" height="421" viewBox="0 0 595 421" fill="none" xmlns="http://www.w3.org/2000/svg">
<rect width="595" height="421" fill="white"/>
<path d="M20 0L575 0V397C575 399.209 573.209 401 571 401L24 401C21.7909 401 20 399.209 20 397L20 0Z" fill="#EEEEEE"/>
<path d="M242.096 191H231.096V205H234.696V201.26H242.096C245.276 201.26 247.456 199.26 247.456 196.14C247.456 193.02 245.276 191 242.096 191ZM241.096 198.24H234.696V194.02H241.096C242.176 194.02 243.856 194.02 243.856 196.14C243.856 198.24 242.176 198.24 241.096 198.24ZM259.026 185.4L251.246 187V189.36L259.026 187.76V185.4ZM260.826 205H264.806L257.566 191H252.706L245.486 205H249.446L250.946 202.02H259.326L260.826 205ZM252.286 199.34L255.146 193.66L257.986 199.34H252.286ZM272.525 199.84H277.745C277.665 200.9 276.265 202.42 272.785 202.42C268.125 202.42 267.465 199.78 267.465 198.08C267.465 196.4 268.105 193.82 272.785 193.82C276.585 193.82 277.545 195.4 277.745 196.46H281.405C281.185 192.98 278.385 190.8 272.785 190.8C267.025 190.8 263.865 193.36 263.865 198C263.865 202.64 267.025 205.2 272.185 205.2C275.165 205.2 277.265 204.24 278.585 202.8L278.745 205H281.405V197.5H272.525V199.84ZM286.415 191H282.815V205H286.415V191ZM302.45 191V201.52L292.89 191H288.01V205H291.61V194.5L301.15 205H306.05V191H302.45ZM322.252 205H326.232L318.992 191H314.132L306.912 205H310.872L312.372 202.02H320.752L322.252 205ZM313.712 199.34L316.572 193.66L319.412 199.34H313.712ZM345.297 201.98V191H341.697C341.697 193.68 338.957 193.68 336.897 193.68V196.72C338.357 196.72 340.217 196.72 341.737 195.38L341.717 201.98H336.897V205H350.097V201.98H345.297ZM360.102 201.98V191H356.502C356.502 193.68 353.762 193.68 351.702 193.68V196.72C353.162 196.72 355.022 196.72 356.542 195.38L356.522 201.98H351.702V205H364.902V201.98H360.102Z" fill="#333333"/>
</svg>
