<svg width="595" height="421" viewBox="0 0 595 421" fill="none" xmlns="http://www.w3.org/2000/svg">
<rect width="595" height="421" transform="translate(595 421) rotate(-180)" fill="white"/>
<path d="M575 421L20 421L20 30C20 24.4772 24.4772 20 30 20L565 20.0001C570.523 20.0001 575 24.4772 575 30.0001L575 421Z" fill="#3CA6C7" fill-opacity="0.5"/>
<path d="M196.911 194H174.911V222H182.111V214.52H196.911C203.271 214.52 207.631 210.52 207.631 204.28C207.631 198.04 203.271 194 196.911 194ZM194.911 208.48H182.111V200.04H194.911C197.071 200.04 200.431 200.04 200.431 204.28C200.431 208.48 197.071 208.48 194.911 208.48ZM230.771 182.8L215.211 186V190.72L230.771 187.52V182.8ZM234.371 222H242.331L227.851 194H218.131L203.691 222H211.611L214.611 216.04H231.371L234.371 222ZM217.291 210.68L223.011 199.32L228.691 210.68H217.291ZM257.769 211.68H268.209C268.049 213.8 265.249 216.84 258.289 216.84C248.969 216.84 247.649 211.56 247.649 208.16C247.649 204.8 248.929 199.64 258.289 199.64C265.889 199.64 267.809 202.8 268.209 204.92H275.529C275.089 197.96 269.489 193.6 258.289 193.6C246.769 193.6 240.449 198.72 240.449 208C240.449 217.28 246.769 222.4 257.089 222.4C263.049 222.4 267.249 220.48 269.889 217.6L270.209 222H275.529V207H257.769V211.68ZM285.549 194H278.349V222H285.549V194ZM317.62 194V215.04L298.5 194H288.74V222H295.94V201L315.02 222H324.82V194H317.62ZM357.223 222H365.183L350.703 194H340.983L326.543 222H334.463L337.463 216.04H354.223L357.223 222ZM340.143 210.68L345.863 199.32L351.543 210.68H340.143ZM419.073 211.36H413.473V194H406.273L386.513 211.36V217.44H406.273V222H413.473V217.44H419.073V211.36ZM394.273 211.36L406.273 201.2V211.36H394.273Z" fill="black"/>
</svg>
