<svg width="595" height="421" viewBox="0 0 595 421" fill="none" xmlns="http://www.w3.org/2000/svg">
<rect width="595" height="421" fill="white"/>
<path d="M20 -3.05176e-05L575 -3.05176e-05V397C575 399.209 573.209 401 571 401L24 401C21.7909 401 20 399.209 20 397L20 -3.05176e-05Z" fill="#EEEEEE"/>
<path d="M241.335 191H230.335V205H233.935V201.26H241.335C244.515 201.26 246.695 199.26 246.695 196.14C246.695 193.02 244.515 191 241.335 191ZM240.335 198.24H233.935V194.02H240.335C241.415 194.02 243.095 194.02 243.095 196.14C243.095 198.24 241.415 198.24 240.335 198.24ZM258.264 185.4L250.484 187V189.36L258.264 187.76V185.4ZM260.064 205H264.044L256.804 191H251.944L244.724 205H248.684L250.184 202.02H258.564L260.064 205ZM251.524 199.34L254.384 193.66L257.224 199.34H251.524ZM271.763 199.84H276.983C276.903 200.9 275.503 202.42 272.023 202.42C267.363 202.42 266.703 199.78 266.703 198.08C266.703 196.4 267.343 193.82 272.023 193.82C275.823 193.82 276.783 195.4 276.983 196.46H280.643C280.423 192.98 277.623 190.8 272.023 190.8C266.263 190.8 263.103 193.36 263.103 198C263.103 202.64 266.263 205.2 271.423 205.2C274.403 205.2 276.503 204.24 277.823 202.8L277.983 205H280.643V197.5H271.763V199.84ZM285.653 191H282.053V205H285.653V191ZM301.689 191V201.52L292.129 191H287.249V205H290.849V194.5L300.389 205H305.289V191H301.689ZM321.49 205H325.47L318.23 191H313.37L306.15 205H310.11L311.61 202.02H319.99L321.49 205ZM312.95 199.34L315.81 193.66L318.65 199.34H312.95ZM344.535 201.98V191H340.935C340.935 193.68 338.195 193.68 336.135 193.68V196.72C337.595 196.72 339.455 196.72 340.975 195.38L340.955 201.98H336.135V205H349.335V201.98H344.535ZM360.098 195.56C357.818 195.56 356.318 195.96 354.258 196.84L355.158 193.86H364.858V191H352.478L350.678 198.28L353.638 198.86C356.038 197.9 357.418 197.62 358.798 197.62C361.538 197.62 362.258 198.54 362.258 199.86C362.258 201.28 361.298 202.18 358.318 202.18C355.238 202.18 353.578 201.72 353.578 200.14H349.978C349.978 204.28 353.578 205.2 358.218 205.2C362.898 205.2 365.858 203.74 365.858 200.26C365.858 197.26 363.718 195.56 360.098 195.56Z" fill="black"/>
</svg>
