<svg width="595" height="421" viewBox="0 0 595 421" fill="none" xmlns="http://www.w3.org/2000/svg">
<rect width="595" height="421" fill="white"/>
<path d="M20 0L575 0V397C575 399.209 573.209 401 571 401L24 401C21.7909 401 20 399.209 20 397L20 0Z" fill="#EEEEEE"/>
<path d="M249.128 191H238.128V205H241.728V201.26H249.128C252.308 201.26 254.488 199.26 254.488 196.14C254.488 193.02 252.308 191 249.128 191ZM248.128 198.24H241.728V194.02H248.128C249.208 194.02 250.888 194.02 250.888 196.14C250.888 198.24 249.208 198.24 248.128 198.24ZM266.057 185.4L258.277 187V189.36L266.057 187.76V185.4ZM267.857 205H271.837L264.597 191H259.737L252.517 205H256.477L257.977 202.02H266.357L267.857 205ZM259.317 199.34L262.177 193.66L265.017 199.34H259.317ZM279.556 199.84H284.776C284.696 200.9 283.296 202.42 279.816 202.42C275.156 202.42 274.496 199.78 274.496 198.08C274.496 196.4 275.136 193.82 279.816 193.82C283.616 193.82 284.576 195.4 284.776 196.46H288.436C288.216 192.98 285.416 190.8 279.816 190.8C274.056 190.8 270.896 193.36 270.896 198C270.896 202.64 274.056 205.2 279.216 205.2C282.196 205.2 284.296 204.24 285.616 202.8L285.776 205H288.436V197.5H279.556V199.84ZM293.446 191H289.846V205H293.446V191ZM309.482 191V201.52L299.922 191H295.042V205H298.642V194.5L308.182 205H313.082V191H309.482ZM329.283 205H333.263L326.023 191H321.163L313.943 205H317.903L319.403 202.02H327.783L329.283 205ZM320.743 199.34L323.603 193.66L326.443 199.34H320.743ZM343.468 191V194.02H353.348C348.248 196.82 346.548 201.4 346.548 205H350.148C350.148 201.4 352.628 196.82 358.328 194.02V191H343.468Z" fill="#333333"/>
</svg>
