<svg width="595" height="421" viewBox="0 0 595 421" fill="none" xmlns="http://www.w3.org/2000/svg">
<rect width="595" height="421" fill="white"/>
<path d="M20 0H575V397C575 399.209 573.209 401 571 401H24C21.7909 401 20 399.209 20 397V0Z" fill="#EEEEEE"/>
<path d="M20 0H575V397C575 399.209 573.209 401 571 401H24C21.7909 401 20 399.209 20 397V0Z" fill="#EEEEEE"/>
<path d="M437.38 354.49V349H435.58V356H442.78V354.49H437.38ZM447.439 356.1C450.509 356.1 451.839 354.81 451.839 352.49C451.839 350.18 450.509 348.9 447.439 348.9C444.359 348.9 443.039 350.17 443.039 352.49C443.039 354.82 444.359 356.1 447.439 356.1ZM447.439 354.59C445.569 354.59 444.839 353.93 444.839 352.49C444.839 351.06 445.559 350.41 447.439 350.41C449.319 350.41 450.039 351.07 450.039 352.49C450.039 353.92 449.309 354.59 447.439 354.59ZM460.674 351.57C460.674 350.01 459.584 349 457.994 349H452.494V356H454.294V354.13H457.194L458.324 356H460.444L459.154 353.92C460.094 353.55 460.674 352.71 460.674 351.57ZM454.294 350.51H457.494C458.034 350.51 458.874 350.51 458.874 351.57C458.874 352.62 458.034 352.62 457.494 352.62H454.294V350.51ZM468.664 350.43V349H461.264V356H468.664V354.57H463.064V353.15H468.664V351.85H463.064V350.43H468.664ZM480.041 349H477.611L474.681 353.94L471.751 349H469.321V356H471.121V351.2L474.031 356H475.331L478.241 351.2V356H480.041V349ZM487.273 349H485.473V356H487.273V349ZM493.571 349H488.071V356H489.871V354.13H493.571C495.161 354.13 496.251 353.13 496.251 351.57C496.251 350.01 495.161 349 493.571 349ZM493.071 352.62H489.871V350.51H493.071C493.611 350.51 494.451 350.51 494.451 351.57C494.451 352.62 493.611 352.62 493.071 352.62ZM496.613 353.59C496.613 355.61 498.323 356.1 501.193 356.1C503.783 356.1 505.553 355.72 505.553 353.85C505.553 352.08 503.843 351.93 501.083 351.78C499.043 351.66 498.623 351.56 498.623 351.02C498.623 350.5 499.043 350.33 500.813 350.33C502.683 350.33 503.453 350.52 503.453 351.29H505.253C505.253 349.56 503.653 348.9 501.013 348.9C498.393 348.9 496.823 349.39 496.823 350.93C496.823 352.5 498.033 352.98 501.083 353.12C503.353 353.23 503.753 353.33 503.753 353.91C503.753 354.46 503.183 354.67 501.293 354.67C499.013 354.67 498.413 354.33 498.413 353.59H496.613ZM514.947 352.49V349H513.147V352.49C513.147 353.46 512.877 354.59 510.547 354.59C508.217 354.59 507.947 353.47 507.947 352.49V349H506.147V352.49C506.147 354.93 507.467 356.1 510.547 356.1C513.617 356.1 514.947 354.92 514.947 352.49ZM526.418 349H523.988L521.058 353.94L518.128 349H515.698V356H517.498V351.2L520.408 356H521.708L524.618 351.2V356H526.418V349ZM429.767 361H424.687V368H429.767C431.577 368 433.167 366.88 433.167 364.5C433.167 362.12 431.577 361 429.767 361ZM429.087 366.49H426.487V362.51H429.087C430.447 362.51 431.367 362.8 431.367 364.5C431.367 366.2 430.447 366.49 429.087 366.49ZM438.118 368.1C441.188 368.1 442.518 366.81 442.518 364.49C442.518 362.18 441.188 360.9 438.118 360.9C435.038 360.9 433.718 362.17 433.718 364.49C433.718 366.82 435.038 368.1 438.118 368.1ZM438.118 366.59C436.248 366.59 435.518 365.93 435.518 364.49C435.518 363.06 436.238 362.41 438.118 362.41C439.998 362.41 440.718 363.07 440.718 364.49C440.718 365.92 439.988 366.59 438.118 366.59ZM444.973 366.49V361H443.173V368H450.373V366.49H444.973ZM455.032 368.1C458.102 368.1 459.432 366.81 459.432 364.49C459.432 362.18 458.102 360.9 455.032 360.9C451.952 360.9 450.632 362.17 450.632 364.49C450.632 366.82 451.952 368.1 455.032 368.1ZM455.032 366.59C453.162 366.59 452.432 365.93 452.432 364.49C452.432 363.06 453.152 362.41 455.032 362.41C456.912 362.41 457.632 363.07 457.632 364.49C457.632 365.92 456.902 366.59 455.032 366.59ZM468.267 363.57C468.267 362.01 467.177 361 465.587 361H460.087V368H461.887V366.13H464.787L465.917 368H468.037L466.747 365.92C467.687 365.55 468.267 364.71 468.267 363.57ZM461.887 362.51H465.087C465.627 362.51 466.467 362.51 466.467 363.57C466.467 364.62 465.627 364.62 465.087 364.62H461.887V362.51ZM473.493 365.59C473.493 367.61 475.203 368.1 478.073 368.1C480.663 368.1 482.433 367.72 482.433 365.85C482.433 364.08 480.723 363.93 477.963 363.78C475.923 363.66 475.503 363.56 475.503 363.02C475.503 362.5 475.923 362.33 477.693 362.33C479.563 362.33 480.333 362.52 480.333 363.29H482.133C482.133 361.56 480.533 360.9 477.893 360.9C475.273 360.9 473.703 361.39 473.703 362.93C473.703 364.5 474.913 364.98 477.963 365.12C480.233 365.23 480.633 365.33 480.633 365.91C480.633 366.46 480.063 366.67 478.173 366.67C475.893 366.67 475.293 366.33 475.293 365.59H473.493ZM484.885 361H483.085V368H484.885V361ZM494.076 361H485.476V362.51H488.876V368H490.676V362.51H494.076V361ZM506.974 368H508.964L505.344 361H502.914L499.304 368H501.284L502.034 366.51H506.224L506.974 368ZM502.704 365.17L504.134 362.33L505.554 365.17H502.704ZM520.114 361H517.684L514.754 365.94L511.824 361H509.394V368H511.194V363.2L514.104 368H515.404L518.314 363.2V368H520.114V361ZM528.317 362.43V361H520.917V368H528.317V366.57H522.717V365.15H528.317V363.85H522.717V362.43H528.317ZM537.415 361H528.815V362.51H532.215V368H534.015V362.51H537.415V361Z" fill="#333333"/>
<path d="M479.714 278.627L479.859 278.772V278.481C479.811 278.529 479.762 278.578 479.714 278.627Z" fill="#333333"/>
<path d="M475.879 286.441C477.044 284.645 478.355 282.947 479.762 281.393L478.403 280.034C476.995 281.587 475.685 283.286 474.52 285.082L475.879 286.441Z" fill="#333333"/>
<path d="M478.889 269.355C477.384 270.569 475.928 271.831 474.568 273.19C474.52 273.238 474.471 273.287 474.423 273.336L475.782 274.695C477.093 273.384 478.452 272.171 479.859 271.006V270.326L478.889 269.355Z" fill="#333333"/>
<path d="M465.831 284.985L467.287 286.441C467.967 285.131 468.695 283.869 469.472 282.655L468.064 281.248C467.239 282.51 466.511 283.723 465.831 284.985Z" fill="#333333"/>
<path d="M470.491 281.053C471.705 279.306 473.015 277.656 474.471 276.102L473.112 274.743C471.656 276.296 470.345 277.947 469.132 279.694L470.491 281.053Z" fill="#333333"/>
<path d="M458.696 280.568C457.871 282.073 457.143 283.578 456.463 285.131L457.919 286.587C458.599 284.985 459.327 283.481 460.104 281.976L458.696 280.568Z" fill="#333333"/>
<path d="M461.997 275.229C461.171 276.393 460.395 277.607 459.667 278.869L461.074 280.277C461.802 279.015 462.579 277.801 463.356 276.636L461.997 275.229Z" fill="#333333"/>
<path d="M472.918 263.385C471.413 264.599 470.006 265.909 468.647 267.268C468.598 267.317 468.549 267.365 468.501 267.414L469.86 268.773C471.268 267.365 472.772 266.006 474.326 264.744L472.918 263.385Z" fill="#333333"/>
<path d="M467.19 268.821C465.734 270.375 464.375 272.025 463.113 273.675L464.521 275.083C465.783 273.384 467.142 271.734 468.55 270.18L467.19 268.821Z" fill="#333333"/>
<path d="M478.84 259.162C477.335 260.133 475.879 261.152 474.423 262.22L475.831 263.579C477.141 262.608 478.5 261.637 479.859 260.812V260.181L478.84 259.162Z" fill="#333333"/>
<path d="M462.433 261.055C462.385 261.104 462.336 261.152 462.288 261.201L463.647 262.56C465.055 261.152 466.511 259.793 468.064 258.531L466.705 257.172C465.2 258.385 463.793 259.696 462.433 261.055Z" fill="#333333"/>
<path d="M468.161 255.958L469.52 257.317C470.928 256.201 472.384 255.182 473.84 254.211L472.433 252.803C471.025 253.774 469.569 254.842 468.161 255.958Z" fill="#333333"/>
<path d="M453.259 272.462L454.667 273.87C455.444 272.656 456.22 271.491 457.046 270.326L455.638 268.918C454.861 270.083 454.036 271.297 453.259 272.462Z" fill="#333333"/>
<path d="M453.696 275.569L452.289 274.161C451.415 275.617 450.638 277.073 449.91 278.578L451.366 280.034C452.046 278.529 452.823 277.025 453.696 275.569Z" fill="#333333"/>
<path d="M448.988 280.422C448.26 282.024 447.629 283.626 447.046 285.228L448.551 286.733C449.133 285.082 449.765 283.432 450.444 281.879L448.988 280.422Z" fill="#333333"/>
<path d="M478.791 249.066C477.19 249.891 475.636 250.765 474.132 251.735L475.539 253.143C476.947 252.269 478.403 251.444 479.859 250.716V250.134L478.791 249.066Z" fill="#333333"/>
<path d="M456.851 267.414L458.259 268.821C459.57 267.122 460.929 265.521 462.385 263.967L461.026 262.608C459.521 264.113 458.113 265.715 456.851 267.414Z" fill="#333333"/>
<path d="M441.221 279.403C441.901 277.85 442.581 276.297 443.357 274.792L441.901 273.336C441.124 274.84 440.396 276.394 439.717 277.947L441.221 279.403Z" fill="#333333"/>
<path d="M475.054 242.61C476.559 241.833 478.063 241.056 479.617 240.377L478.16 238.921C476.607 239.6 475.102 240.377 473.598 241.153L475.054 242.61Z" fill="#333333"/>
<path d="M447.871 267.074C448.648 265.909 449.473 264.744 450.347 263.628L448.939 262.22C448.066 263.336 447.24 264.501 446.464 265.666L447.871 267.074Z" fill="#333333"/>
<path d="M446.804 268.724L445.396 267.317C444.522 268.724 443.648 270.132 442.872 271.588L444.328 273.044C445.105 271.54 445.93 270.132 446.804 268.724Z" fill="#333333"/>
<path d="M451.512 262.074C452.823 260.424 454.23 258.822 455.686 257.269L454.327 255.91C452.871 257.463 451.463 259.065 450.153 260.667L451.512 262.074Z" fill="#333333"/>
<path d="M456.997 255.958C458.405 254.551 459.861 253.191 461.366 251.881L460.006 250.522C458.55 251.784 457.143 253.094 455.783 254.453C455.735 254.502 455.686 254.551 455.638 254.599L456.997 255.958Z" fill="#333333"/>
<path d="M438.697 286.344C439.231 284.646 439.814 282.995 440.445 281.345L438.94 279.84C438.309 281.49 437.678 283.141 437.144 284.791L438.697 286.344Z" fill="#333333"/>
<path d="M467.336 244.94L468.744 246.347C470.248 245.376 471.753 244.454 473.306 243.58L471.85 242.124C470.297 242.998 468.792 243.92 467.336 244.94Z" fill="#333333"/>
<path d="M465.734 246.008C464.278 247.027 462.87 248.095 461.511 249.211L462.919 250.619C464.278 249.502 465.734 248.435 467.19 247.415L465.734 246.008Z" fill="#333333"/>
<path d="M431.222 278.869C431.853 277.267 432.484 275.665 433.212 274.064L431.756 272.607C431.416 273.336 431.077 274.112 430.737 274.889C430.397 275.714 430.057 276.539 429.718 277.413L431.222 278.869Z" fill="#333333"/>
<path d="M456.123 243.92C457.482 242.804 458.89 241.687 460.298 240.668L458.89 239.26C457.482 240.328 456.075 241.396 454.716 242.561L456.123 243.92Z" fill="#333333"/>
<path d="M428.844 286.296C429.329 284.451 429.912 282.655 430.494 280.908L428.989 279.403C428.358 281.151 427.776 282.946 427.29 284.742L428.844 286.296Z" fill="#333333"/>
<path d="M434.038 272.268C434.766 270.763 435.542 269.258 436.367 267.802L434.96 266.394C434.135 267.85 433.358 269.355 432.63 270.86L434.038 272.268Z" fill="#333333"/>
<path d="M476.267 229.407C475.102 229.892 473.986 230.426 472.87 230.96L474.326 232.416C476.122 231.591 477.918 230.815 479.811 230.087L478.306 228.582C477.578 228.824 476.898 229.116 476.267 229.407Z" fill="#333333"/>
<path d="M472.481 233.242L471.025 231.785C469.52 232.562 468.064 233.339 466.608 234.164L468.016 235.572C469.472 234.795 470.977 233.97 472.481 233.242Z" fill="#333333"/>
<path d="M466.365 236.639L464.958 235.232C463.453 236.154 461.948 237.125 460.54 238.144L461.948 239.552C463.356 238.484 464.812 237.513 466.365 236.639Z" fill="#333333"/>
<path d="M448.988 250.619L447.58 249.211C446.124 250.764 444.716 252.318 443.406 253.968L444.813 255.376C446.124 253.725 447.532 252.124 448.988 250.619Z" fill="#333333"/>
<path d="M441.076 260.278C441.901 259.113 442.726 257.997 443.6 256.881L442.192 255.473C441.319 256.589 440.493 257.706 439.668 258.871L441.076 260.278Z" fill="#333333"/>
<path d="M454.667 245.134L453.308 243.775C451.852 245.037 450.444 246.347 449.085 247.706C449.036 247.755 448.988 247.803 448.939 247.852L450.298 249.211C451.706 247.803 453.162 246.444 454.667 245.134Z" fill="#333333"/>
<path d="M439.959 261.88L438.552 260.472C437.63 261.832 436.756 263.239 435.931 264.647L437.338 266.055C438.163 264.647 439.037 263.239 439.959 261.88Z" fill="#333333"/>
<path d="M420.155 280.325C420.349 279.646 420.592 278.966 420.835 278.287C421.417 276.539 422.048 274.84 422.728 273.141C422.97 272.51 423.262 271.879 423.504 271.248C424.184 269.695 424.912 268.142 425.64 266.637C425.931 266.055 426.223 265.424 426.562 264.841C427.339 263.385 428.164 261.929 428.989 260.472C429.329 259.89 429.669 259.356 430.009 258.774C430.882 257.366 431.756 256.007 432.727 254.648C433.115 254.114 433.455 253.58 433.843 253.094C434.669 251.929 435.542 250.813 436.416 249.745C436.804 249.26 437.241 248.726 437.63 248.24C438.989 246.639 440.396 245.037 441.853 243.532C442.289 243.095 442.726 242.61 443.163 242.173C444.571 240.765 446.027 239.406 447.532 238.047C448.017 237.61 448.502 237.222 448.988 236.785C450.347 235.62 451.706 234.552 453.114 233.484C453.648 233.096 454.133 232.708 454.667 232.319C456.075 231.3 457.531 230.281 459.036 229.358C459.57 229.019 460.152 228.679 460.686 228.339C462.094 227.465 463.55 226.64 465.006 225.863C465.589 225.524 466.171 225.232 466.754 224.941C468.501 224.067 470.248 223.194 472.044 222.417C472.675 222.126 473.306 221.883 473.937 221.592C475.976 220.767 478.063 219.99 480.199 219.311V218.243C463.987 223.534 449.473 233.144 438.212 246.056C428.019 257.754 420.883 271.734 417.437 286.781H418.408C418.893 284.597 419.476 282.413 420.155 280.325Z" fill="#333333"/>
<path d="M474.714 222.271C476.413 221.592 478.16 220.961 479.908 220.378V227.465L480.248 227.805V219.262C478.112 219.942 476.073 220.718 473.986 221.543L474.714 222.271Z" fill="#333333"/>
<path d="M479.859 247.415L480.199 247.755V240.959L479.859 240.62V247.415Z" fill="#333333"/>
<path d="M479.859 278.481C479.956 278.384 480.102 278.287 480.199 278.141V270.714C480.102 270.811 479.956 270.909 479.859 270.957V278.481Z" fill="#333333"/>
<path d="M479.859 286.781H480.199V281.83L479.859 281.49V286.781Z" fill="#333333"/>
<path d="M479.859 257.463L480.199 257.803V250.522C480.102 250.57 479.956 250.619 479.859 250.667V257.463Z" fill="#333333"/>
<path d="M479.859 267.656L480.199 267.996V260.57C480.102 260.618 479.956 260.715 479.859 260.764V267.656Z" fill="#333333"/>
<path d="M433.358 255.279L432.727 254.648C431.805 256.007 430.882 257.366 430.009 258.725L430.64 259.356C431.513 257.997 432.436 256.638 433.358 255.279Z" fill="#333333"/>
<path d="M434.474 253.677C435.3 252.512 436.173 251.395 437.047 250.328L436.416 249.697C435.542 250.813 434.669 251.929 433.843 253.046L434.474 253.677Z" fill="#333333"/>
<path d="M429.62 261.055L428.989 260.424C428.164 261.831 427.339 263.288 426.562 264.792L427.242 265.472C428.019 263.967 428.795 262.511 429.62 261.055Z" fill="#333333"/>
<path d="M443.794 242.755C445.202 241.348 446.658 239.989 448.163 238.678L447.532 238.047C446.027 239.358 444.571 240.717 443.163 242.173L443.794 242.755Z" fill="#333333"/>
<path d="M442.484 244.114L441.852 243.483C440.396 244.988 438.989 246.59 437.63 248.192L438.261 248.823C439.62 247.221 440.979 245.619 442.484 244.114Z" fill="#333333"/>
<path d="M426.32 267.22L425.64 266.54C424.864 268.045 424.184 269.598 423.504 271.151L424.184 271.831C424.864 270.326 425.592 268.773 426.32 267.22Z" fill="#333333"/>
<path d="M479.859 237.95L480.005 238.096C480.053 238.047 480.151 238.047 480.199 237.998V230.475L479.859 230.135V237.95Z" fill="#333333"/>
<path d="M423.456 273.821L422.728 273.093C422.048 274.792 421.417 276.491 420.835 278.238L421.563 278.966C422.145 277.267 422.776 275.52 423.456 273.821Z" fill="#333333"/>
<path d="M419.378 286.781C419.815 284.84 420.349 282.947 420.932 281.054L420.155 280.325C419.476 282.461 418.893 284.597 418.408 286.781H419.378Z" fill="#333333"/>
<path d="M472.772 223.097L472.093 222.369C470.297 223.145 468.549 223.97 466.802 224.893L467.482 225.572C469.229 224.699 470.976 223.873 472.772 223.097Z" fill="#333333"/>
<path d="M465.686 226.495L465.006 225.815C463.55 226.592 462.094 227.417 460.686 228.29L461.366 228.97C462.773 228.096 464.229 227.271 465.686 226.495Z" fill="#333333"/>
<path d="M459.715 229.989L459.036 229.358C457.531 230.329 456.075 231.3 454.667 232.319L455.298 232.95C456.754 231.931 458.21 230.912 459.715 229.989Z" fill="#333333"/>
<path d="M453.745 234.067L453.114 233.436C451.706 234.504 450.298 235.62 448.988 236.737L449.619 237.368C450.978 236.251 452.337 235.135 453.745 234.067Z" fill="#333333"/>
<path d="M479.859 278.772L480.199 279.112V278.141C480.102 278.238 479.956 278.335 479.859 278.481V278.772Z" fill="#333333"/>
<path d="M479.859 271.054C479.956 270.957 480.102 270.86 480.199 270.812V270.715L479.859 270.375V271.054Z" fill="#333333"/>
<path d="M479.859 260.812C479.956 260.764 480.102 260.667 480.199 260.618V260.521L479.859 260.181V260.812Z" fill="#333333"/>
<path d="M479.859 250.716C479.956 250.667 480.102 250.619 480.199 250.57V250.473L479.859 250.134V250.716Z" fill="#333333"/>
<path d="M480.199 238.29V237.999C480.15 238.047 480.053 238.047 480.005 238.096L480.199 238.29Z" fill="#333333"/>
<path d="M479.859 230.183V230.038C479.811 230.038 479.762 230.086 479.762 230.086L479.859 230.183Z" fill="#333333"/>
<path d="M478.257 228.582C478.791 228.388 479.325 228.145 479.859 227.951V227.465L474.714 222.271C474.083 222.514 473.452 222.805 472.821 223.048L478.257 228.582Z" fill="#333333"/>
<path d="M479.762 230.038C479.811 230.038 479.859 229.989 479.859 229.989V227.951C479.325 228.145 478.791 228.339 478.258 228.582L479.762 230.038Z" fill="#333333"/>
<path d="M479.859 230.184L480.199 230.523V229.892C480.102 229.941 479.956 229.989 479.859 230.038V230.184Z" fill="#333333"/>
<path d="M474.714 222.272L473.986 221.543C473.355 221.786 472.724 222.077 472.093 222.369L472.821 223.097C473.403 222.805 474.034 222.563 474.714 222.272Z" fill="#333333"/>
<path d="M480.199 227.805L479.859 227.465V227.951C480.005 227.902 480.102 227.854 480.199 227.805Z" fill="#333333"/>
<path d="M479.859 229.989C479.956 229.941 480.102 229.892 480.199 229.844V227.805C480.102 227.853 479.956 227.902 479.859 227.951V229.989Z" fill="#333333"/>
<path d="M474.277 232.368C473.646 232.659 473.064 232.95 472.433 233.242L478.112 238.872C478.694 238.63 479.277 238.338 479.859 238.096V237.901L474.277 232.368Z" fill="#333333"/>
<path d="M472.821 230.912L467.482 225.572C466.899 225.864 466.268 226.203 465.686 226.495L471.025 231.834C471.656 231.494 472.239 231.203 472.821 230.912Z" fill="#333333"/>
<path d="M479.617 240.377L479.859 240.62V240.231C479.811 240.28 479.714 240.329 479.617 240.377Z" fill="#333333"/>
<path d="M478.112 238.921L479.568 240.377C479.665 240.328 479.762 240.28 479.811 240.28V238.144C479.277 238.387 478.694 238.629 478.112 238.921Z" fill="#333333"/>
<path d="M474.277 232.368L472.821 230.912C472.19 231.203 471.608 231.494 471.025 231.785L472.481 233.242C473.064 232.95 473.695 232.659 474.277 232.368Z" fill="#333333"/>
<path d="M479.859 240.62L480.199 240.959V240.086C480.102 240.134 479.956 240.183 479.859 240.231V240.62Z" fill="#333333"/>
<path d="M467.482 225.572L466.802 224.893C466.22 225.184 465.637 225.524 465.055 225.815L465.734 226.494C466.317 226.155 466.899 225.863 467.482 225.572Z" fill="#333333"/>
<path d="M480.005 238.096L479.859 237.95V238.144C479.908 238.096 479.956 238.096 480.005 238.096Z" fill="#333333"/>
<path d="M479.859 238.144V240.28C479.956 240.231 480.102 240.183 480.199 240.134V238.29L480.005 238.096C479.956 238.096 479.908 238.096 479.859 238.144Z" fill="#333333"/>
<path d="M464.909 235.183C465.491 234.843 466.025 234.504 466.608 234.164L461.366 228.97C460.783 229.31 460.249 229.65 459.715 229.989L464.909 235.183Z" fill="#333333"/>
<path d="M471.85 242.124C472.433 241.785 473.015 241.493 473.598 241.154L468.064 235.62C467.482 235.96 466.948 236.3 466.365 236.639L471.85 242.124Z" fill="#333333"/>
<path d="M475.054 242.61C474.471 242.901 473.889 243.241 473.306 243.58L478.791 249.065C479.131 248.871 479.52 248.726 479.859 248.531V247.415L475.054 242.61Z" fill="#333333"/>
<path d="M479.859 250.134V248.532C479.519 248.726 479.131 248.872 478.791 249.066L479.859 250.134Z" fill="#333333"/>
<path d="M471.85 242.124L473.306 243.581C473.889 243.241 474.471 242.95 475.054 242.61L473.598 241.154C473.015 241.445 472.433 241.785 471.85 242.124Z" fill="#333333"/>
<path d="M468.064 235.62L466.656 234.212C466.074 234.552 465.54 234.892 464.958 235.232L466.365 236.639C466.899 236.3 467.482 235.96 468.064 235.62Z" fill="#333333"/>
<path d="M461.366 228.97L460.686 228.291C460.152 228.63 459.57 228.97 459.036 229.31L459.715 229.941C460.249 229.65 460.832 229.261 461.366 228.97Z" fill="#333333"/>
<path d="M479.859 247.415V248.532C479.956 248.483 480.102 248.435 480.199 248.386V247.804L479.859 247.415Z" fill="#333333"/>
<path d="M479.859 250.133L480.199 250.473V248.386C480.102 248.435 479.956 248.483 479.859 248.532V250.133Z" fill="#333333"/>
<path d="M475.539 253.143C475.005 253.483 474.423 253.823 473.889 254.211L478.84 259.162C479.18 258.968 479.52 258.725 479.859 258.531V257.512L475.539 253.143Z" fill="#333333"/>
<path d="M468.744 246.347C468.21 246.687 467.676 247.076 467.142 247.464L472.53 252.803C473.064 252.463 473.598 252.075 474.18 251.735L468.744 246.347Z" fill="#333333"/>
<path d="M458.939 239.26C459.472 238.872 459.958 238.484 460.492 238.144L455.298 232.95C454.764 233.339 454.23 233.727 453.745 234.115L458.939 239.26Z" fill="#333333"/>
<path d="M465.734 246.008C466.268 245.619 466.802 245.279 467.336 244.891L461.899 239.503C461.366 239.891 460.832 240.231 460.346 240.62L465.734 246.008Z" fill="#333333"/>
<path d="M478.84 259.162L479.859 260.181V258.531C479.52 258.725 479.18 258.919 478.84 259.162Z" fill="#333333"/>
<path d="M473.889 254.211C474.423 253.871 475.005 253.483 475.539 253.143L474.132 251.735C473.598 252.075 473.015 252.415 472.481 252.803L473.889 254.211Z" fill="#333333"/>
<path d="M465.734 246.008L467.142 247.415C467.676 247.027 468.21 246.687 468.744 246.299L467.336 244.891C466.753 245.279 466.22 245.668 465.734 246.008Z" fill="#333333"/>
<path d="M461.899 239.503L460.492 238.096C459.958 238.484 459.424 238.824 458.939 239.212L460.346 240.62C460.832 240.231 461.366 239.892 461.899 239.503Z" fill="#333333"/>
<path d="M479.859 258.531C479.956 258.482 480.102 258.385 480.199 258.337V257.803L479.859 257.463V258.531Z" fill="#333333"/>
<path d="M455.298 232.95L454.667 232.319C454.133 232.708 453.648 233.096 453.114 233.484L453.745 234.115C454.279 233.678 454.813 233.339 455.298 232.95Z" fill="#333333"/>
<path d="M479.859 260.181L480.199 260.521V258.337C480.102 258.385 479.956 258.482 479.859 258.531V260.181Z" fill="#333333"/>
<path d="M475.83 263.579C475.297 263.967 474.811 264.356 474.326 264.744L478.889 269.307C479.228 269.064 479.568 268.773 479.859 268.53V267.559L475.83 263.579Z" fill="#333333"/>
<path d="M469.569 257.317C469.083 257.706 468.549 258.094 468.064 258.531L472.918 263.385C473.403 262.997 473.937 262.56 474.423 262.171L469.569 257.317Z" fill="#333333"/>
<path d="M462.87 250.619C462.385 251.007 461.899 251.444 461.414 251.832L466.705 257.123C467.19 256.735 467.676 256.298 468.21 255.91L462.87 250.619Z" fill="#333333"/>
<path d="M453.308 243.775C453.793 243.338 454.279 242.95 454.764 242.513L449.619 237.367C449.133 237.756 448.648 238.193 448.163 238.629L453.308 243.775Z" fill="#333333"/>
<path d="M460.006 250.473C460.492 250.036 460.977 249.648 461.463 249.26L456.123 243.92C455.638 244.309 455.152 244.746 454.667 245.182L460.006 250.473Z" fill="#333333"/>
<path d="M478.889 269.355L479.859 270.326V268.579C479.568 268.821 479.228 269.064 478.889 269.355Z" fill="#333333"/>
<path d="M472.918 263.385L474.277 264.744C474.763 264.356 475.297 263.967 475.782 263.579L474.374 262.171C473.937 262.608 473.452 262.997 472.918 263.385Z" fill="#333333"/>
<path d="M468.064 258.531C468.549 258.143 469.035 257.706 469.569 257.317L468.21 255.958C467.724 256.347 467.19 256.783 466.705 257.172L468.064 258.531Z" fill="#333333"/>
<path d="M461.414 251.881C461.899 251.444 462.385 251.056 462.87 250.667L461.463 249.26C460.977 249.648 460.492 250.085 460.006 250.473L461.414 251.881Z" fill="#333333"/>
<path d="M456.123 243.92L454.716 242.561C454.23 242.95 453.745 243.386 453.259 243.823L454.619 245.182C455.152 244.746 455.638 244.309 456.123 243.92Z" fill="#333333"/>
<path d="M449.619 237.367L448.988 236.736C448.502 237.173 448.017 237.562 447.532 237.998L448.163 238.629C448.648 238.193 449.133 237.804 449.619 237.367Z" fill="#333333"/>
<path d="M479.859 268.579C479.956 268.482 480.102 268.433 480.199 268.336V267.948L479.859 267.608V268.579Z" fill="#333333"/>
<path d="M479.859 270.326L480.199 270.666V268.336C480.102 268.433 479.956 268.482 479.859 268.579V270.326Z" fill="#333333"/>
<path d="M454.279 255.91C454.716 255.473 455.152 254.987 455.589 254.551L450.25 249.211C449.813 249.648 449.376 250.133 448.939 250.57L454.279 255.91Z" fill="#333333"/>
<path d="M474.471 276.102L478.403 280.034C478.84 279.549 479.277 279.112 479.714 278.627L475.782 274.695C475.345 275.132 474.908 275.617 474.471 276.102Z" fill="#333333"/>
<path d="M447.58 249.211C448.017 248.774 448.454 248.289 448.891 247.852L443.794 242.755C443.357 243.192 442.92 243.678 442.435 244.114L447.58 249.211Z" fill="#333333"/>
<path d="M469.86 268.773C469.423 269.21 468.986 269.695 468.549 270.132L473.112 274.695C473.549 274.209 473.986 273.773 474.423 273.336L469.86 268.773Z" fill="#333333"/>
<path d="M456.997 255.958C456.56 256.395 456.123 256.881 455.686 257.317L460.977 262.608C461.414 262.123 461.851 261.686 462.288 261.249L456.997 255.958Z" fill="#333333"/>
<path d="M463.647 262.56C463.21 262.997 462.773 263.482 462.336 263.919L467.19 268.773C467.627 268.288 468.064 267.851 468.501 267.414L463.647 262.56Z" fill="#333333"/>
<path d="M479.859 281.49V281.248C479.811 281.296 479.811 281.345 479.762 281.345L479.859 281.49Z" fill="#333333"/>
<path d="M478.403 280.034L479.762 281.393C479.811 281.345 479.811 281.296 479.859 281.296V278.821L479.714 278.675C479.277 279.112 478.84 279.549 478.403 280.034Z" fill="#333333"/>
<path d="M473.112 274.695L474.471 276.054C474.908 275.569 475.345 275.132 475.782 274.695L474.423 273.336C473.986 273.773 473.549 274.258 473.112 274.695Z" fill="#333333"/>
<path d="M468.549 270.18C468.986 269.695 469.423 269.258 469.86 268.821L468.501 267.462C468.064 267.899 467.627 268.384 467.19 268.821L468.549 270.18Z" fill="#333333"/>
<path d="M460.977 262.56L462.336 263.919C462.773 263.434 463.21 262.997 463.647 262.56L462.288 261.201C461.851 261.638 461.366 262.123 460.977 262.56Z" fill="#333333"/>
<path d="M455.686 257.317C456.123 256.832 456.56 256.395 456.997 255.958L455.638 254.599C455.201 255.036 454.764 255.521 454.327 255.958L455.686 257.317Z" fill="#333333"/>
<path d="M448.988 250.619C449.425 250.182 449.862 249.697 450.298 249.26L448.939 247.901C448.502 248.337 448.066 248.823 447.629 249.26L448.988 250.619Z" fill="#333333"/>
<path d="M479.859 281.49L480.199 281.83V280.908C480.102 281.005 479.956 281.151 479.859 281.248V281.49Z" fill="#333333"/>
<path d="M443.794 242.755L443.163 242.124C442.726 242.561 442.289 243.047 441.852 243.483L442.483 244.114C442.92 243.629 443.357 243.192 443.794 242.755Z" fill="#333333"/>
<path d="M479.859 281.248C479.956 281.15 480.102 281.005 480.199 280.908V279.112L479.859 278.772V281.248Z" fill="#333333"/>
<path d="M463.404 276.636L468.016 281.248C468.355 280.714 468.744 280.18 469.083 279.646L464.472 275.034C464.132 275.568 463.744 276.102 463.404 276.636Z" fill="#333333"/>
<path d="M473.452 286.733C473.792 286.15 474.132 285.616 474.471 285.082L470.443 281.053C470.054 281.587 469.714 282.121 469.375 282.655L473.452 286.733Z" fill="#333333"/>
<path d="M442.192 255.473C442.581 254.987 442.969 254.453 443.406 253.968L438.26 248.823C437.872 249.308 437.435 249.794 437.047 250.327L442.192 255.473Z" fill="#333333"/>
<path d="M458.21 268.773C457.822 269.307 457.434 269.792 457.045 270.326L461.948 275.229C462.336 274.695 462.676 274.161 463.064 273.675L458.21 268.773Z" fill="#333333"/>
<path d="M448.939 262.22C449.328 261.734 449.716 261.201 450.104 260.715L444.765 255.376C444.377 255.861 443.94 256.395 443.551 256.88L448.939 262.22Z" fill="#333333"/>
<path d="M476.219 286.781L475.879 286.441C475.83 286.538 475.733 286.636 475.685 286.781H476.219Z" fill="#333333"/>
<path d="M455.686 268.967C456.075 268.433 456.463 267.948 456.851 267.414L451.512 262.074C451.124 262.56 450.735 263.094 450.347 263.579L455.686 268.967Z" fill="#333333"/>
<path d="M474.52 285.082C474.18 285.616 473.792 286.199 473.501 286.733L473.549 286.781H475.733C475.782 286.684 475.879 286.587 475.928 286.441L474.52 285.082Z" fill="#333333"/>
<path d="M469.083 279.646C468.695 280.18 468.355 280.714 468.016 281.248L469.423 282.655C469.763 282.121 470.151 281.587 470.491 281.053L469.083 279.646Z" fill="#333333"/>
<path d="M463.404 276.636C463.793 276.102 464.132 275.569 464.521 275.035L463.113 273.627C462.725 274.161 462.336 274.646 461.997 275.18L463.404 276.636Z" fill="#333333"/>
<path d="M455.686 268.967L457.094 270.375C457.482 269.841 457.871 269.355 458.259 268.821L456.851 267.414C456.463 267.899 456.075 268.433 455.686 268.967Z" fill="#333333"/>
<path d="M450.347 263.627C450.735 263.094 451.124 262.608 451.512 262.123L450.153 260.715C449.764 261.2 449.376 261.734 448.988 262.22L450.347 263.627Z" fill="#333333"/>
<path d="M444.765 255.376L443.357 253.968C442.969 254.454 442.532 254.939 442.144 255.473L443.551 256.881C443.988 256.347 444.377 255.861 444.765 255.376Z" fill="#333333"/>
<path d="M438.261 248.823L437.63 248.192C437.241 248.677 436.804 249.163 436.416 249.697L437.047 250.328C437.435 249.794 437.824 249.308 438.261 248.823Z" fill="#333333"/>
<path d="M431.756 272.656C432.047 272.025 432.339 271.443 432.63 270.812L427.242 265.472C426.951 266.055 426.611 266.686 426.32 267.268L431.756 272.656Z" fill="#333333"/>
<path d="M438.94 279.84C439.183 279.209 439.474 278.578 439.717 277.947L434.038 272.268C433.746 272.899 433.455 273.481 433.164 274.112L438.94 279.84Z" fill="#333333"/>
<path d="M447.046 285.228L441.221 279.403C440.93 280.034 440.688 280.665 440.445 281.345L445.881 286.781H446.512C446.658 286.247 446.852 285.713 447.046 285.228Z" fill="#333333"/>
<path d="M447.871 288.771C447.871 288.723 447.871 288.674 447.92 288.674H447.774L447.871 288.771Z" fill="#333333"/>
<path d="M447.046 285.228C446.852 285.713 446.706 286.247 446.512 286.781H448.551L447.046 285.228Z" fill="#333333"/>
<path d="M440.445 281.345C440.688 280.714 440.93 280.083 441.222 279.403L439.717 277.898C439.426 278.529 439.183 279.16 438.94 279.791L440.445 281.345Z" fill="#333333"/>
<path d="M433.212 274.112C433.504 273.481 433.795 272.899 434.086 272.268L432.63 270.812C432.339 271.443 432.047 272.025 431.756 272.656L433.212 274.112Z" fill="#333333"/>
<path d="M426.32 267.22C426.611 266.637 426.902 266.006 427.242 265.424L426.562 264.744C426.271 265.327 425.931 265.909 425.64 266.54L426.32 267.22Z" fill="#333333"/>
<path d="M436.416 286.781H436.562C436.756 286.15 436.95 285.471 437.144 284.84L431.222 278.918C430.98 279.597 430.737 280.228 430.494 280.908L436.416 286.781Z" fill="#333333"/>
<path d="M428.989 279.355C429.232 278.675 429.475 278.044 429.717 277.364L424.232 271.879C423.941 272.51 423.699 273.141 423.456 273.772L428.989 279.355Z" fill="#333333"/>
<path d="M438.6 286.781H439.134L438.746 286.393C438.649 286.49 438.6 286.636 438.6 286.781Z" fill="#333333"/>
<path d="M437.144 284.791C436.95 285.422 436.756 286.102 436.562 286.733H438.6C438.649 286.587 438.697 286.441 438.697 286.344L437.144 284.791Z" fill="#333333"/>
<path d="M430.494 280.859C430.737 280.18 430.98 279.549 431.222 278.869L429.717 277.365C429.475 277.996 429.232 278.675 428.989 279.355L430.494 280.859Z" fill="#333333"/>
<path d="M424.232 271.879L423.553 271.2C423.262 271.831 423.019 272.462 422.776 273.093L423.504 273.821C423.699 273.141 423.941 272.51 424.232 271.879Z" fill="#333333"/>
<path d="M426.611 286.781H426.708C426.902 286.102 427.048 285.422 427.242 284.743L421.563 279.015C421.32 279.694 421.126 280.374 420.932 281.054L426.611 286.781Z" fill="#333333"/>
<path d="M428.844 286.296C428.795 286.441 428.747 286.635 428.698 286.781H429.281L428.844 286.296Z" fill="#333333"/>
<path d="M428.844 286.296L427.29 284.742C427.096 285.422 426.902 286.102 426.757 286.781H428.747C428.747 286.587 428.795 286.441 428.844 286.296Z" fill="#333333"/>
<path d="M420.883 281.053C421.077 280.374 421.32 279.694 421.514 279.015L420.786 278.287C420.543 278.966 420.349 279.646 420.107 280.325L420.883 281.053Z" fill="#333333"/>
<path d="M441.901 273.336C442.192 272.753 442.532 272.171 442.823 271.588L437.338 266.055C436.999 266.637 436.659 267.22 436.367 267.754L441.901 273.336Z" fill="#333333"/>
<path d="M456.463 285.179L451.318 280.034C451.027 280.665 450.735 281.248 450.493 281.879L455.347 286.781H455.783C456.026 286.247 456.22 285.713 456.463 285.179Z" fill="#333333"/>
<path d="M434.911 266.346C435.251 265.763 435.542 265.181 435.882 264.647L430.64 259.405C430.3 259.987 429.96 260.521 429.62 261.103L434.911 266.346Z" fill="#333333"/>
<path d="M457.919 286.781H458.065L457.968 286.684C457.919 286.684 457.919 286.733 457.919 286.781Z" fill="#333333"/>
<path d="M448.988 280.423C449.279 279.791 449.57 279.209 449.862 278.578L444.279 273.044C443.94 273.627 443.648 274.209 443.357 274.84L448.988 280.423Z" fill="#333333"/>
<path d="M456.463 285.179C456.22 285.713 456.026 286.247 455.784 286.781H457.871C457.871 286.733 457.919 286.684 457.919 286.684L456.463 285.179Z" fill="#333333"/>
<path d="M449.862 278.578C449.57 279.16 449.279 279.791 448.988 280.422L450.444 281.879C450.735 281.248 450.978 280.617 451.269 280.034L449.862 278.578Z" fill="#333333"/>
<path d="M444.279 272.996L442.823 271.54C442.483 272.122 442.192 272.705 441.901 273.287L443.357 274.743C443.697 274.209 443.988 273.578 444.279 272.996Z" fill="#333333"/>
<path d="M437.338 266.055L435.931 264.647C435.591 265.229 435.251 265.763 434.96 266.346L436.367 267.754C436.659 267.22 436.998 266.637 437.338 266.055Z" fill="#333333"/>
<path d="M430.64 259.405L430.009 258.774C429.669 259.308 429.329 259.89 428.989 260.473L429.62 261.104C429.96 260.521 430.3 259.939 430.64 259.405Z" fill="#333333"/>
<path d="M461.074 280.277C460.735 280.859 460.443 281.442 460.104 282.024L464.86 286.733H464.909C465.2 286.15 465.491 285.568 465.783 284.985L461.074 280.277Z" fill="#333333"/>
<path d="M452.24 274.161C452.58 273.578 452.92 273.044 453.259 272.462L447.871 267.074C447.532 267.608 447.143 268.142 446.804 268.724L452.24 274.161Z" fill="#333333"/>
<path d="M467.093 286.781H467.579L467.239 286.441C467.19 286.538 467.142 286.636 467.093 286.781Z" fill="#333333"/>
<path d="M454.667 273.87C454.327 274.404 453.987 274.986 453.648 275.569L458.647 280.568C458.987 279.986 459.278 279.403 459.618 278.821L454.667 273.87Z" fill="#333333"/>
<path d="M445.396 267.317C445.736 266.783 446.124 266.249 446.464 265.666L441.076 260.278C440.688 260.812 440.348 261.346 439.959 261.88L445.396 267.317Z" fill="#333333"/>
<path d="M438.552 260.472C438.892 259.938 439.28 259.404 439.668 258.871L434.474 253.677C434.086 254.211 433.746 254.745 433.358 255.279L438.552 260.472Z" fill="#333333"/>
<path d="M465.831 284.985C465.54 285.568 465.249 286.15 464.958 286.733H467.142C467.19 286.635 467.239 286.538 467.287 286.393L465.831 284.985Z" fill="#333333"/>
<path d="M459.667 278.869C459.327 279.452 458.987 280.034 458.696 280.617L460.152 282.073C460.443 281.49 460.783 280.908 461.123 280.325L459.667 278.869Z" fill="#333333"/>
<path d="M453.259 272.462C452.92 272.996 452.58 273.578 452.24 274.161L453.648 275.568C453.987 274.986 454.327 274.452 454.667 273.87L453.259 272.462Z" fill="#333333"/>
<path d="M446.804 268.724C447.143 268.19 447.483 267.608 447.871 267.074L446.464 265.666C446.075 266.2 445.736 266.734 445.396 267.317L446.804 268.724Z" fill="#333333"/>
<path d="M439.959 261.88C440.299 261.346 440.688 260.812 441.076 260.278L439.668 258.871C439.28 259.405 438.94 259.938 438.552 260.472L439.959 261.88Z" fill="#333333"/>
<path d="M434.474 253.677L433.843 253.046C433.455 253.58 433.067 254.114 432.727 254.599L433.358 255.23C433.698 254.745 434.086 254.211 434.474 253.677Z" fill="#333333"/>
<path d="M487.674 285.325C486.461 283.432 485.102 281.685 483.597 280.034L482.238 281.393C483.742 283.044 485.102 284.84 486.315 286.733L487.674 285.325Z" fill="#333333"/>
<path d="M482.141 278.481V278.772L482.286 278.627C482.238 278.578 482.189 278.529 482.141 278.481Z" fill="#333333"/>
<path d="M493.062 279.937C491.8 278.141 490.392 276.394 488.888 274.743L487.529 276.102C489.033 277.753 490.441 279.5 491.703 281.345L493.062 279.937Z" fill="#333333"/>
<path d="M486.218 274.695L487.577 273.336C487.529 273.287 487.48 273.238 487.432 273.19C486.072 271.831 484.616 270.52 483.111 269.355L482.141 270.326V271.006C483.548 272.171 484.907 273.384 486.218 274.695Z" fill="#333333"/>
<path d="M494.761 286.441L496.217 284.985C495.586 283.82 494.907 282.655 494.179 281.539L492.771 282.946C493.45 284.063 494.13 285.228 494.761 286.441Z" fill="#333333"/>
<path d="M502.333 278.869C501.654 277.753 500.926 276.636 500.198 275.52L498.79 276.928C499.518 278.044 500.246 279.161 500.877 280.325L502.333 278.869Z" fill="#333333"/>
<path d="M503.304 280.568L501.848 282.024C502.625 283.529 503.353 285.082 504.032 286.636L505.488 285.179C504.857 283.626 504.129 282.073 503.304 280.568Z" fill="#333333"/>
<path d="M492.14 268.773L493.499 267.414C493.451 267.365 493.402 267.317 493.353 267.268C491.994 265.909 490.538 264.599 489.082 263.385L487.723 264.744C489.228 266.055 490.732 267.365 492.14 268.773Z" fill="#333333"/>
<path d="M486.17 263.579L487.577 262.22C486.17 261.152 484.665 260.084 483.16 259.162L482.141 260.181V260.812C483.5 261.686 484.859 262.608 486.17 263.579Z" fill="#333333"/>
<path d="M497.673 275.326L499.081 273.918C497.771 272.122 496.363 270.423 494.81 268.773L493.451 270.132C494.955 271.782 496.363 273.53 497.673 275.326Z" fill="#333333"/>
<path d="M486.461 253.143L487.868 251.735C486.364 250.765 484.762 249.891 483.209 249.066L482.141 250.134V250.716C483.597 251.444 485.053 252.269 486.461 253.143Z" fill="#333333"/>
<path d="M492.431 257.317L493.79 255.958C492.383 254.842 490.975 253.774 489.47 252.803L488.063 254.211C489.567 255.182 491.024 256.201 492.431 257.317Z" fill="#333333"/>
<path d="M513.012 280.422L511.556 281.879C512.235 283.48 512.915 285.082 513.449 286.733L514.954 285.228C514.371 283.577 513.74 281.976 513.012 280.422Z" fill="#333333"/>
<path d="M503.984 269.064L505.391 267.657C504.032 265.909 502.625 264.21 501.071 262.56L499.712 263.919C501.168 265.569 502.625 267.268 503.984 269.064Z" fill="#333333"/>
<path d="M508.741 272.462C508.061 271.345 507.284 270.278 506.508 269.21L505.1 270.617C505.877 271.685 506.605 272.802 507.284 273.918L508.741 272.462Z" fill="#333333"/>
<path d="M512.138 278.578C511.41 277.073 510.585 275.617 509.76 274.161L508.352 275.569C509.177 277.025 510.003 278.481 510.731 280.034L512.138 278.578Z" fill="#333333"/>
<path d="M498.353 262.56L499.712 261.201C499.664 261.152 499.615 261.104 499.567 261.055C498.207 259.696 496.751 258.385 495.295 257.123L493.936 258.482C495.441 259.793 496.945 261.152 498.353 262.56Z" fill="#333333"/>
<path d="M515.196 268.724C516.07 270.132 516.944 271.54 517.72 272.996L519.177 271.54C518.4 270.083 517.526 268.676 516.653 267.268L515.196 268.724Z" fill="#333333"/>
<path d="M511.847 263.87C512.624 264.938 513.4 266.006 514.128 267.074L515.536 265.666C514.808 264.598 514.031 263.531 513.255 262.463L511.847 263.87Z" fill="#333333"/>
<path d="M506.314 257.317C507.818 258.919 509.275 260.618 510.682 262.365L512.09 260.958C510.731 259.21 509.275 257.56 507.721 255.91L506.314 257.317Z" fill="#333333"/>
<path d="M521.555 281.345C522.186 282.995 522.769 284.646 523.303 286.344L524.856 284.791C524.322 283.092 523.739 281.442 523.06 279.84L521.555 281.345Z" fill="#333333"/>
<path d="M520.779 279.403L522.283 277.898C521.604 276.345 520.876 274.792 520.099 273.287L518.643 274.743C519.371 276.297 520.099 277.85 520.779 279.403Z" fill="#333333"/>
<path d="M483.84 238.921L482.383 240.377C483.937 241.056 485.441 241.785 486.946 242.61L488.402 241.153C486.898 240.328 485.393 239.6 483.84 238.921Z" fill="#333333"/>
<path d="M493.256 246.347L494.664 244.94C493.208 243.969 491.655 242.998 490.15 242.124L488.694 243.58C490.247 244.406 491.8 245.376 493.256 246.347Z" fill="#333333"/>
<path d="M500.586 251.881C502.091 253.191 503.547 254.551 504.954 255.958L506.314 254.599C506.265 254.551 506.217 254.502 506.168 254.453C504.809 253.094 503.401 251.784 501.945 250.522L500.586 251.881Z" fill="#333333"/>
<path d="M500.537 249.26C499.178 248.143 497.722 247.075 496.314 246.056L494.907 247.464C496.363 248.483 497.771 249.551 499.178 250.667L500.537 249.26Z" fill="#333333"/>
<path d="M493.936 235.62L495.344 234.212C493.887 233.387 492.431 232.562 490.926 231.834L489.47 233.29C491.023 233.97 492.48 234.795 493.936 235.62Z" fill="#333333"/>
<path d="M482.238 230.038C484.082 230.766 485.927 231.543 487.723 232.368L489.179 230.912C488.063 230.378 486.946 229.844 485.781 229.358C485.102 229.067 484.422 228.776 483.742 228.533L482.238 230.038Z" fill="#333333"/>
<path d="M511.702 249.211L513.061 247.852C513.012 247.803 512.964 247.755 512.915 247.706C511.556 246.347 510.148 245.037 508.692 243.775L507.333 245.134C508.838 246.444 510.294 247.803 511.702 249.211Z" fill="#333333"/>
<path d="M513.012 250.619C514.517 252.221 516.022 253.871 517.381 255.618L518.788 254.211C517.381 252.512 515.924 250.813 514.371 249.211L513.012 250.619Z" fill="#333333"/>
<path d="M528.788 274.112C529.516 275.665 530.147 277.267 530.778 278.918L532.282 277.413C531.943 276.588 531.603 275.763 531.263 274.889C530.923 274.112 530.584 273.384 530.244 272.607L528.788 274.112Z" fill="#333333"/>
<path d="M522.041 261.88C522.963 263.239 523.837 264.647 524.662 266.055L526.069 264.647C525.244 263.239 524.37 261.832 523.448 260.472L522.041 261.88Z" fill="#333333"/>
<path d="M505.877 243.92L507.236 242.561C505.877 241.445 504.469 240.328 503.061 239.26L501.654 240.668C503.11 241.687 504.518 242.755 505.877 243.92Z" fill="#333333"/>
<path d="M520.924 260.278L522.332 258.871C521.555 257.803 520.779 256.735 520.002 255.716L518.594 257.123C519.419 258.143 520.196 259.21 520.924 260.278Z" fill="#333333"/>
<path d="M527.962 272.268L529.419 270.811C528.691 269.307 527.914 267.802 527.089 266.346L525.681 267.753C526.458 269.258 527.234 270.714 527.962 272.268Z" fill="#333333"/>
<path d="M500.1 239.503L501.508 238.096C500.052 237.076 498.596 236.105 497.091 235.183L495.683 236.591C497.188 237.513 498.644 238.484 500.1 239.503Z" fill="#333333"/>
<path d="M531.506 280.859C532.137 282.655 532.671 284.451 533.156 286.247L534.71 284.694C534.176 282.898 533.642 281.102 533.011 279.355L531.506 280.859Z" fill="#333333"/>
<path d="M481.801 227.805L482.141 227.465V220.378C483.888 220.961 485.636 221.592 487.334 222.32L488.063 221.592C486.024 220.767 483.937 219.99 481.801 219.311V227.805Z" fill="#333333"/>
<path d="M540.437 279.015L541.165 278.287C540.583 276.539 539.952 274.84 539.272 273.141L538.544 273.869C539.224 275.52 539.855 277.267 540.437 279.015Z" fill="#333333"/>
<path d="M531.36 259.405L531.991 258.774C531.118 257.366 530.244 256.007 529.273 254.648L528.642 255.279C529.564 256.638 530.486 257.997 531.36 259.405Z" fill="#333333"/>
<path d="M494.518 225.572L495.198 224.893C493.451 224.019 491.703 223.145 489.907 222.369L489.179 223.097C491.024 223.873 492.771 224.699 494.518 225.572Z" fill="#333333"/>
<path d="M506.653 232.95L507.284 232.319C505.877 231.3 504.421 230.281 502.916 229.358L502.236 229.989C503.79 230.912 505.246 231.931 506.653 232.95Z" fill="#333333"/>
<path d="M541.068 281.054C541.651 282.947 542.136 284.84 542.622 286.781H543.592C543.107 284.597 542.476 282.461 541.845 280.325L541.068 281.054Z" fill="#333333"/>
<path d="M500.634 228.97L501.314 228.29C499.906 227.417 498.45 226.592 496.994 225.815L496.314 226.495C497.771 227.271 499.227 228.096 500.634 228.97Z" fill="#333333"/>
<path d="M518.206 242.755L518.837 242.124C517.429 240.717 515.973 239.358 514.468 237.999L513.837 238.63C515.342 239.94 516.798 241.348 518.206 242.755Z" fill="#333333"/>
<path d="M482.141 247.415V240.62L481.801 240.959V247.755L482.141 247.415Z" fill="#333333"/>
<path d="M523.934 249.065L524.565 248.434C523.157 246.736 521.652 245.085 520.148 243.483L519.516 244.114C521.07 245.716 522.526 247.367 523.934 249.065Z" fill="#333333"/>
<path d="M482.141 237.95V230.184L481.801 230.523V237.999C481.849 238.047 481.947 238.047 481.995 238.096L482.141 237.95Z" fill="#333333"/>
<path d="M534.758 265.424L535.438 264.744C534.661 263.288 533.836 261.832 533.011 260.375L532.38 261.007C533.205 262.511 533.981 263.967 534.758 265.424Z" fill="#333333"/>
<path d="M535.68 267.22C536.408 268.724 537.136 270.278 537.816 271.879L538.496 271.2C537.816 269.647 537.088 268.093 536.36 266.589L535.68 267.22Z" fill="#333333"/>
<path d="M527.526 253.677L528.157 253.046C527.38 251.978 526.603 250.959 525.778 249.939L525.147 250.57C525.972 251.59 526.749 252.609 527.526 253.677Z" fill="#333333"/>
<path d="M488.014 221.543C488.645 221.786 489.276 222.077 489.907 222.369C491.703 223.145 493.451 223.97 495.198 224.893C495.78 225.184 496.363 225.524 496.945 225.815C498.402 226.592 499.858 227.417 501.265 228.29C501.799 228.63 502.382 228.97 502.916 229.31C504.421 230.281 505.877 231.251 507.284 232.271C507.818 232.659 508.304 233.047 508.838 233.436C510.245 234.504 511.653 235.62 512.964 236.736C513.449 237.173 513.934 237.562 514.42 237.998C515.925 239.309 517.381 240.668 518.788 242.124C519.225 242.561 519.662 243.047 520.099 243.483C521.652 245.085 523.108 246.736 524.516 248.435C524.904 248.92 525.341 249.405 525.73 249.939C526.555 250.959 527.331 251.978 528.108 253.046C528.496 253.58 528.885 254.114 529.224 254.599C530.147 255.958 531.069 257.317 531.943 258.725C532.283 259.259 532.622 259.841 532.962 260.424C533.787 261.832 534.612 263.288 535.389 264.793C535.68 265.375 536.02 265.957 536.311 266.589C537.088 268.093 537.768 269.647 538.447 271.2C538.738 271.831 538.981 272.462 539.224 273.093C539.903 274.792 540.534 276.491 541.117 278.238C541.359 278.918 541.554 279.597 541.796 280.277C542.476 282.413 543.058 284.548 543.544 286.733H544.515C541.117 271.734 533.981 257.803 523.788 246.056C512.527 233.144 498.013 223.534 481.801 218.243V219.262C483.888 219.942 485.975 220.718 488.014 221.543Z" fill="#333333"/>
<path d="M482.141 281.49L481.801 281.83V286.781H482.141V281.49Z" fill="#333333"/>
<path d="M512.381 237.368L513.012 236.737C511.653 235.572 510.294 234.504 508.886 233.436L508.255 234.067C509.663 235.135 511.022 236.251 512.381 237.368Z" fill="#333333"/>
<path d="M482.141 271.054C482.044 270.957 481.898 270.86 481.801 270.812V278.19C481.898 278.287 482.044 278.384 482.141 278.529V271.054Z" fill="#333333"/>
<path d="M482.141 250.716C482.044 250.667 481.898 250.619 481.801 250.57V257.851L482.141 257.512V250.716Z" fill="#333333"/>
<path d="M482.141 260.812C482.044 260.764 481.898 260.667 481.801 260.618V267.996L482.141 267.656V260.812Z" fill="#333333"/>
<path d="M480.199 218.243V219.262C480.393 219.213 480.636 219.116 480.83 219.068V227.611V228.436V229.65V231.106V237.707V238.872V239.843V241.59V248.046V248.386V250.231V251.104V257.997V258.482V260.23V261.152V267.899V268.627V270.326V271.345V277.656V279.84V280.325V282.51V286.83H481.17V282.51V280.325V279.84V277.656V271.345V270.326V268.627V267.899V261.152V260.23V258.434V257.948V251.104V250.231V248.386V248.046V241.59V239.843V238.872V237.707V231.106V229.65V228.436V227.611V219.068C481.364 219.116 481.607 219.213 481.801 219.262V218.243C481.704 218.194 481.558 218.146 481.461 218.146L480.976 218L480.539 218.146C480.442 218.194 480.296 218.243 480.199 218.243Z" fill="#333333"/>
<path d="M480.199 250.522V257.803L480.539 258.143C480.636 258.094 480.733 258.045 480.83 257.948V251.104L480.248 250.522C480.248 250.522 480.248 250.522 480.199 250.522Z" fill="#333333"/>
<path d="M481.801 230.475L481.17 231.106V237.707C481.364 237.804 481.607 237.853 481.801 237.95V230.475Z" fill="#333333"/>
<path d="M480.199 237.999C480.393 237.901 480.636 237.804 480.83 237.756V231.106L480.199 230.475V237.999Z" fill="#333333"/>
<path d="M480.199 270.763V278.19C480.393 277.995 480.636 277.801 480.83 277.607V271.297L480.248 270.714C480.248 270.714 480.248 270.763 480.199 270.763Z" fill="#333333"/>
<path d="M480.199 260.57V267.948L480.393 268.142C480.539 268.045 480.684 267.948 480.782 267.851V261.152L480.199 260.57C480.248 260.57 480.248 260.57 480.199 260.57Z" fill="#333333"/>
<path d="M481.801 257.803V250.522C481.801 250.522 481.752 250.522 481.752 250.473L481.17 251.056V257.949C481.267 257.997 481.364 258.046 481.461 258.143L481.801 257.803Z" fill="#333333"/>
<path d="M480.199 247.755L480.587 248.143C480.684 248.095 480.733 248.095 480.83 248.046V241.59L480.199 240.959V247.755Z" fill="#333333"/>
<path d="M480.199 286.781H480.83V282.461L480.199 281.83V286.781Z" fill="#333333"/>
<path d="M481.801 270.763L481.752 270.714L481.17 271.297V277.607C481.364 277.801 481.607 277.995 481.801 278.19V270.763Z" fill="#333333"/>
<path d="M480.199 227.805C480.442 227.757 480.636 227.659 480.83 227.611V219.068C480.636 219.116 480.393 219.213 480.199 219.262V227.805Z" fill="#333333"/>
<path d="M481.801 267.948V260.57C481.801 260.57 481.752 260.57 481.752 260.521L481.17 261.103V267.851C481.316 267.948 481.461 268.045 481.558 268.142L481.801 267.948Z" fill="#333333"/>
<path d="M481.801 247.755V240.959L481.17 241.59V248.046C481.267 248.095 481.316 248.095 481.413 248.143L481.801 247.755Z" fill="#333333"/>
<path d="M481.801 281.83L481.17 282.461V286.781H481.801V281.83Z" fill="#333333"/>
<path d="M481.801 227.805V219.262C481.607 219.213 481.364 219.116 481.17 219.068V227.611C481.364 227.659 481.558 227.757 481.801 227.805Z" fill="#333333"/>
<path d="M480.199 279.112L480.83 279.743V277.559C480.636 277.753 480.393 277.947 480.199 278.141V279.112Z" fill="#333333"/>
<path d="M480.83 268.579V267.851C480.684 267.948 480.539 268.045 480.442 268.142L480.83 268.579Z" fill="#333333"/>
<path d="M480.248 270.715L480.199 270.666V270.763C480.248 270.763 480.248 270.715 480.248 270.715Z" fill="#333333"/>
<path d="M480.83 258.434V257.948C480.733 257.997 480.636 258.046 480.539 258.143L480.83 258.434Z" fill="#333333"/>
<path d="M480.248 260.57L480.199 260.521V260.618C480.248 260.57 480.248 260.57 480.248 260.57Z" fill="#333333"/>
<path d="M480.83 248.386V248.046C480.733 248.095 480.684 248.095 480.587 248.143L480.83 248.386Z" fill="#333333"/>
<path d="M480.248 250.522L480.199 250.473V250.522C480.248 250.522 480.248 250.522 480.248 250.522Z" fill="#333333"/>
<path d="M480.199 238.29L480.83 238.921V237.756C480.636 237.853 480.393 237.901 480.199 237.999V238.29Z" fill="#333333"/>
<path d="M480.83 228.436V227.611C480.636 227.659 480.442 227.756 480.248 227.805L480.83 228.436Z" fill="#333333"/>
<path d="M480.199 230.475L480.83 231.106V229.65C480.636 229.747 480.393 229.795 480.199 229.892V230.475Z" fill="#333333"/>
<path d="M480.199 227.805V229.844C480.393 229.747 480.636 229.698 480.83 229.601V228.387L480.199 227.805Z" fill="#333333"/>
<path d="M480.199 240.959L480.83 241.59V239.843C480.636 239.94 480.393 240.037 480.199 240.134V240.959Z" fill="#333333"/>
<path d="M480.199 240.134C480.393 240.037 480.636 239.94 480.83 239.843V238.872L480.199 238.241V240.134Z" fill="#333333"/>
<path d="M480.83 251.104V250.23C480.636 250.328 480.442 250.425 480.248 250.522L480.83 251.104Z" fill="#333333"/>
<path d="M480.636 248.192L480.248 247.803V248.386C480.345 248.289 480.49 248.24 480.636 248.192Z" fill="#333333"/>
<path d="M480.199 248.386V250.473L480.248 250.522C480.442 250.425 480.636 250.328 480.83 250.231V248.386L480.587 248.143C480.49 248.24 480.345 248.289 480.199 248.386Z" fill="#333333"/>
<path d="M480.539 258.143L480.199 257.803V258.337C480.296 258.24 480.442 258.191 480.539 258.143Z" fill="#333333"/>
<path d="M480.83 261.152V260.23C480.636 260.327 480.442 260.472 480.248 260.57L480.83 261.152Z" fill="#333333"/>
<path d="M480.199 258.337V260.521L480.248 260.57C480.442 260.472 480.636 260.327 480.83 260.23V258.434L480.539 258.143C480.442 258.191 480.296 258.24 480.199 258.337Z" fill="#333333"/>
<path d="M480.442 268.19L480.248 267.996V268.384C480.296 268.287 480.345 268.239 480.442 268.19Z" fill="#333333"/>
<path d="M480.83 271.297V270.278C480.636 270.423 480.442 270.569 480.248 270.714L480.83 271.297Z" fill="#333333"/>
<path d="M480.199 268.336V270.666L480.248 270.715C480.442 270.569 480.636 270.423 480.83 270.278V268.579L480.442 268.19C480.345 268.239 480.296 268.288 480.199 268.336Z" fill="#333333"/>
<path d="M480.199 281.83L480.83 282.461V280.277C480.636 280.471 480.393 280.714 480.199 280.908V281.83Z" fill="#333333"/>
<path d="M480.199 280.908C480.393 280.665 480.587 280.471 480.83 280.277V279.791L480.199 279.16V280.908Z" fill="#333333"/>
<path d="M482.141 278.481C482.044 278.384 481.898 278.287 481.801 278.141V279.112L482.141 278.772V278.481Z" fill="#333333"/>
<path d="M481.801 278.19C481.607 277.995 481.364 277.801 481.17 277.607V279.791L481.801 279.16V278.19Z" fill="#333333"/>
<path d="M482.141 270.326L481.801 270.666V270.763C481.898 270.86 482.044 270.957 482.141 271.006V270.326Z" fill="#333333"/>
<path d="M481.17 267.899V268.627L481.558 268.239C481.461 268.093 481.316 267.996 481.17 267.899Z" fill="#333333"/>
<path d="M481.752 270.715L481.801 270.763V270.666L481.752 270.715Z" fill="#333333"/>
<path d="M482.141 260.181L481.801 260.521V260.618C481.898 260.667 482.044 260.764 482.141 260.812V260.181Z" fill="#333333"/>
<path d="M481.17 257.948V258.434L481.461 258.143C481.364 258.094 481.267 257.997 481.17 257.948Z" fill="#333333"/>
<path d="M481.752 260.57C481.752 260.57 481.801 260.57 481.801 260.618V260.521L481.752 260.57Z" fill="#333333"/>
<path d="M482.141 250.134L481.801 250.473V250.522C481.898 250.57 482.044 250.619 482.141 250.667V250.134Z" fill="#333333"/>
<path d="M481.17 248.046V248.386L481.413 248.143C481.316 248.143 481.218 248.095 481.17 248.046Z" fill="#333333"/>
<path d="M481.752 250.522C481.752 250.522 481.801 250.522 481.801 250.57V250.473L481.752 250.522Z" fill="#333333"/>
<path d="M481.801 237.999V238.29L481.995 238.096C481.898 238.047 481.849 237.999 481.801 237.999Z" fill="#333333"/>
<path d="M481.801 237.999C481.607 237.901 481.364 237.804 481.17 237.756V238.921L481.801 238.29V237.999Z" fill="#333333"/>
<path d="M481.17 227.611V228.436L481.752 227.854C481.558 227.756 481.364 227.659 481.17 227.611Z" fill="#333333"/>
<path d="M482.141 229.99V230.135L482.238 230.038C482.189 230.038 482.141 230.038 482.141 229.99Z" fill="#333333"/>
<path d="M483.743 228.582L489.228 223.097C488.597 222.805 487.965 222.563 487.334 222.32L482.141 227.514V227.999C482.675 228.145 483.209 228.339 483.743 228.582Z" fill="#333333"/>
<path d="M483.743 228.582C483.209 228.388 482.675 228.145 482.141 227.951V229.989C482.189 229.989 482.238 230.038 482.238 230.038L483.743 228.582Z" fill="#333333"/>
<path d="M489.228 223.097L489.956 222.369C489.325 222.077 488.694 221.835 488.063 221.543L487.334 222.272C487.917 222.563 488.597 222.805 489.228 223.097Z" fill="#333333"/>
<path d="M482.141 229.989C482.044 229.941 481.898 229.892 481.801 229.844V230.475L482.141 230.135V229.989Z" fill="#333333"/>
<path d="M482.141 227.465L481.801 227.805V227.854C481.898 227.902 482.044 227.951 482.141 227.999V227.465Z" fill="#333333"/>
<path d="M481.801 229.892C481.607 229.795 481.364 229.747 481.17 229.65V231.106L481.801 230.475V229.892Z" fill="#333333"/>
<path d="M482.141 227.951C482.044 227.902 481.898 227.853 481.801 227.805V229.844C481.898 229.892 482.044 229.941 482.141 229.989V227.951Z" fill="#333333"/>
<path d="M481.801 227.805C481.801 227.805 481.752 227.805 481.801 227.805L481.17 228.387V229.649C481.364 229.747 481.607 229.795 481.801 229.892V227.805Z" fill="#333333"/>
<path d="M482.383 240.377C482.286 240.328 482.189 240.28 482.141 240.28V240.668L482.383 240.377Z" fill="#333333"/>
<path d="M483.84 238.921L489.519 233.29C488.936 232.999 488.305 232.707 487.674 232.416L482.092 237.998V238.193C482.723 238.387 483.306 238.629 483.84 238.921Z" fill="#333333"/>
<path d="M489.13 230.912C489.761 231.203 490.344 231.494 490.926 231.785L496.266 226.446C495.683 226.155 495.101 225.815 494.47 225.524L489.13 230.912Z" fill="#333333"/>
<path d="M482.383 240.377L483.84 238.921C483.257 238.678 482.675 238.387 482.092 238.144V240.28C482.189 240.28 482.286 240.328 482.383 240.377Z" fill="#333333"/>
<path d="M489.519 233.242L490.975 231.785C490.392 231.494 489.761 231.203 489.179 230.912L487.723 232.368C488.305 232.659 488.936 232.95 489.519 233.242Z" fill="#333333"/>
<path d="M496.266 226.494L496.945 225.815C496.363 225.475 495.78 225.184 495.198 224.893L494.518 225.572C495.101 225.863 495.683 226.155 496.266 226.494Z" fill="#333333"/>
<path d="M481.995 238.096C482.044 238.096 482.092 238.144 482.141 238.144V237.95L481.995 238.096Z" fill="#333333"/>
<path d="M482.141 240.28C482.044 240.231 481.898 240.183 481.801 240.134V241.008L482.141 240.668V240.28Z" fill="#333333"/>
<path d="M481.801 240.134C481.607 240.037 481.364 239.94 481.17 239.843V241.59L481.801 240.959V240.134Z" fill="#333333"/>
<path d="M482.141 238.144C482.092 238.144 482.044 238.096 481.995 238.096L481.801 238.29V240.134C481.898 240.183 482.044 240.231 482.141 240.28V238.144Z" fill="#333333"/>
<path d="M481.801 238.29L481.17 238.921V239.892C481.364 239.989 481.607 240.086 481.801 240.183V238.29Z" fill="#333333"/>
<path d="M488.402 241.154C488.985 241.445 489.567 241.785 490.15 242.124L495.635 236.639C495.052 236.3 494.518 235.96 493.936 235.62L488.402 241.154Z" fill="#333333"/>
<path d="M488.694 243.532C488.111 243.192 487.529 242.901 486.946 242.561L482.092 247.415V248.532C482.432 248.726 482.82 248.871 483.16 249.066L488.694 243.532Z" fill="#333333"/>
<path d="M495.392 234.212C495.975 234.552 496.509 234.892 497.091 235.232L502.333 229.989C501.799 229.65 501.217 229.31 500.683 228.97L495.392 234.212Z" fill="#333333"/>
<path d="M483.209 249.066C482.869 248.872 482.48 248.726 482.141 248.532V250.134L483.209 249.066Z" fill="#333333"/>
<path d="M488.402 241.154L486.946 242.61C487.529 242.901 488.111 243.241 488.694 243.581L490.15 242.124C489.567 241.785 488.985 241.445 488.402 241.154Z" fill="#333333"/>
<path d="M495.635 236.639L497.042 235.232C496.46 234.892 495.926 234.552 495.344 234.212L493.936 235.62C494.518 235.96 495.101 236.3 495.635 236.639Z" fill="#333333"/>
<path d="M502.285 229.989L502.964 229.358C502.43 229.019 501.848 228.679 501.314 228.339L500.634 229.019C501.168 229.261 501.751 229.65 502.285 229.989Z" fill="#333333"/>
<path d="M482.141 247.415L481.801 247.755V248.338C481.898 248.386 482.044 248.435 482.141 248.483V247.415Z" fill="#333333"/>
<path d="M481.364 248.192C481.51 248.24 481.655 248.337 481.752 248.386V247.803L481.364 248.192Z" fill="#333333"/>
<path d="M481.17 250.23V251.104L481.752 250.522C481.558 250.425 481.364 250.328 481.17 250.23Z" fill="#333333"/>
<path d="M482.141 248.532C482.044 248.483 481.898 248.435 481.801 248.386V250.473L482.141 250.133V248.532Z" fill="#333333"/>
<path d="M481.801 250.473V248.386C481.655 248.338 481.51 248.24 481.413 248.192L481.17 248.435V250.279C481.364 250.376 481.558 250.473 481.752 250.57L481.801 250.473Z" fill="#333333"/>
<path d="M494.664 244.94C495.198 245.279 495.732 245.668 496.266 246.056L501.654 240.668C501.12 240.28 500.586 239.892 500.1 239.552L494.664 244.94Z" fill="#333333"/>
<path d="M483.16 259.162L488.111 254.211C487.577 253.871 486.995 253.483 486.461 253.143L482.141 257.463V258.482C482.48 258.725 482.82 258.919 483.16 259.162Z" fill="#333333"/>
<path d="M494.858 247.415C494.324 247.027 493.79 246.687 493.256 246.299L487.868 251.735C488.402 252.075 488.985 252.415 489.519 252.803L494.858 247.415Z" fill="#333333"/>
<path d="M501.508 238.096C502.042 238.484 502.576 238.824 503.061 239.212L508.255 234.067C507.721 233.678 507.236 233.29 506.702 232.902L501.508 238.096Z" fill="#333333"/>
<path d="M483.16 259.162C482.82 258.968 482.48 258.725 482.141 258.531V260.181L483.16 259.162Z" fill="#333333"/>
<path d="M487.868 251.735L486.461 253.143C486.995 253.483 487.577 253.823 488.111 254.211L489.519 252.803C488.985 252.415 488.402 252.075 487.868 251.735Z" fill="#333333"/>
<path d="M496.266 246.008C495.732 245.619 495.198 245.279 494.664 244.891L493.256 246.299C493.79 246.639 494.324 247.027 494.858 247.415L496.266 246.008Z" fill="#333333"/>
<path d="M501.654 240.62L503.061 239.212C502.527 238.824 502.042 238.435 501.508 238.096L500.1 239.503C500.634 239.892 501.168 240.231 501.654 240.62Z" fill="#333333"/>
<path d="M508.255 234.067L508.886 233.436C508.352 233.047 507.867 232.659 507.333 232.271L506.702 232.902C507.187 233.339 507.721 233.678 508.255 234.067Z" fill="#333333"/>
<path d="M482.141 257.463L481.801 257.803V258.337C481.898 258.385 482.044 258.482 482.141 258.531V257.463Z" fill="#333333"/>
<path d="M481.17 260.23V261.152L481.752 260.57C481.558 260.424 481.364 260.327 481.17 260.23Z" fill="#333333"/>
<path d="M481.461 258.143C481.558 258.191 481.655 258.288 481.801 258.337V257.803L481.461 258.143Z" fill="#333333"/>
<path d="M482.141 258.531C482.044 258.482 481.898 258.385 481.801 258.337V260.521L482.141 260.181V258.531Z" fill="#333333"/>
<path d="M481.801 260.521V258.337C481.704 258.288 481.607 258.191 481.461 258.143L481.17 258.434V260.23C481.364 260.327 481.558 260.472 481.752 260.57L481.801 260.521Z" fill="#333333"/>
<path d="M489.033 263.385L493.887 258.531C493.402 258.143 492.917 257.706 492.383 257.317L487.48 262.22C488.063 262.608 488.548 262.997 489.033 263.385Z" fill="#333333"/>
<path d="M500.537 249.26C501.023 249.648 501.508 250.085 501.994 250.473L507.333 245.134C506.848 244.697 506.362 244.309 505.877 243.872L500.537 249.26Z" fill="#333333"/>
<path d="M500.586 251.881C500.1 251.444 499.615 251.056 499.13 250.667L493.839 255.958C494.324 256.347 494.858 256.784 495.344 257.172L500.586 251.881Z" fill="#333333"/>
<path d="M507.236 242.513C507.721 242.901 508.207 243.338 508.692 243.775L513.837 238.629C513.352 238.193 512.866 237.804 512.381 237.367L507.236 242.513Z" fill="#333333"/>
<path d="M483.111 269.355L487.674 264.793C487.189 264.404 486.655 264.016 486.17 263.628L482.141 267.657V268.627C482.432 268.821 482.772 269.064 483.111 269.355Z" fill="#333333"/>
<path d="M483.111 269.355C482.772 269.113 482.432 268.821 482.141 268.579V270.326L483.111 269.355Z" fill="#333333"/>
<path d="M489.033 263.385C488.548 262.997 488.014 262.56 487.529 262.171L486.121 263.579C486.655 263.967 487.14 264.356 487.626 264.744L489.033 263.385Z" fill="#333333"/>
<path d="M493.839 255.958L492.48 257.317C492.965 257.706 493.499 258.094 493.984 258.531L495.344 257.172C494.81 256.735 494.324 256.347 493.839 255.958Z" fill="#333333"/>
<path d="M499.13 250.619C499.615 251.007 500.1 251.444 500.586 251.832L501.994 250.473C501.508 250.036 501.023 249.648 500.537 249.26L499.13 250.619Z" fill="#333333"/>
<path d="M505.877 243.92C506.362 244.309 506.848 244.746 507.333 245.182L508.692 243.823C508.207 243.386 507.721 242.998 507.236 242.561L505.877 243.92Z" fill="#333333"/>
<path d="M513.837 238.629L514.468 237.998C513.983 237.562 513.498 237.173 513.012 236.736L512.381 237.367C512.867 237.804 513.352 238.193 513.837 238.629Z" fill="#333333"/>
<path d="M482.141 267.656L481.801 267.996V268.385C481.898 268.482 482.044 268.53 482.141 268.627V267.656Z" fill="#333333"/>
<path d="M481.17 270.278V271.297L481.752 270.714C481.558 270.569 481.364 270.423 481.17 270.278Z" fill="#333333"/>
<path d="M481.558 268.19C481.607 268.239 481.704 268.288 481.752 268.336V267.948L481.558 268.19Z" fill="#333333"/>
<path d="M482.141 268.579C482.044 268.482 481.898 268.433 481.801 268.336V270.666L482.141 270.326V268.579Z" fill="#333333"/>
<path d="M481.801 270.666V268.336C481.752 268.288 481.655 268.239 481.607 268.19L481.218 268.579V270.278C481.413 270.423 481.607 270.569 481.801 270.715V270.666Z" fill="#333333"/>
<path d="M487.529 276.102C487.092 275.617 486.655 275.18 486.218 274.743L482.286 278.675C482.723 279.112 483.16 279.597 483.597 280.083L487.529 276.102Z" fill="#333333"/>
<path d="M482.141 281.248V281.49L482.238 281.393C482.189 281.345 482.141 281.296 482.141 281.248Z" fill="#333333"/>
<path d="M499.664 263.967C499.227 263.482 498.79 263.045 498.353 262.608L493.499 267.462C493.936 267.899 494.373 268.384 494.81 268.821L499.664 263.967Z" fill="#333333"/>
<path d="M506.362 254.551C506.799 254.987 507.236 255.473 507.673 255.91L513.012 250.57C512.575 250.133 512.138 249.648 511.702 249.211L506.362 254.551Z" fill="#333333"/>
<path d="M488.888 274.695L493.45 270.132C493.014 269.647 492.577 269.21 492.14 268.773L487.577 273.336C488.014 273.773 488.451 274.258 488.888 274.695Z" fill="#333333"/>
<path d="M513.061 247.852C513.497 248.289 513.934 248.774 514.371 249.211L519.516 244.066C519.08 243.629 518.643 243.144 518.157 242.707L513.061 247.852Z" fill="#333333"/>
<path d="M501.023 262.56L506.314 257.317C505.877 256.832 505.44 256.395 505.003 255.958L499.712 261.201C500.149 261.637 500.586 262.123 501.023 262.56Z" fill="#333333"/>
<path d="M483.597 280.034C483.16 279.549 482.723 279.112 482.286 278.626L482.141 278.772V281.248C482.189 281.296 482.189 281.345 482.238 281.345L483.597 280.034Z" fill="#333333"/>
<path d="M487.529 276.102L488.888 274.743C488.451 274.258 488.014 273.821 487.577 273.384L486.218 274.743C486.655 275.131 487.092 275.617 487.529 276.102Z" fill="#333333"/>
<path d="M494.81 268.821C494.373 268.336 493.936 267.899 493.499 267.462L492.14 268.821C492.577 269.258 493.014 269.744 493.45 270.18L494.81 268.821Z" fill="#333333"/>
<path d="M499.712 261.201L498.353 262.56C498.79 262.997 499.227 263.482 499.664 263.919L501.023 262.56C500.586 262.123 500.149 261.638 499.712 261.201Z" fill="#333333"/>
<path d="M505.003 255.958C505.44 256.395 505.877 256.881 506.314 257.317L507.673 255.958C507.236 255.473 506.799 255.036 506.362 254.599L505.003 255.958Z" fill="#333333"/>
<path d="M513.012 250.619L514.371 249.26C513.934 248.823 513.498 248.337 513.061 247.901L511.702 249.26C512.138 249.697 512.575 250.133 513.012 250.619Z" fill="#333333"/>
<path d="M482.141 281.248C482.044 281.151 481.898 281.005 481.801 280.908V281.83L482.141 281.49V281.248Z" fill="#333333"/>
<path d="M518.206 242.755C518.643 243.192 519.08 243.678 519.565 244.114L520.196 243.483C519.759 243.047 519.322 242.561 518.885 242.124L518.206 242.755Z" fill="#333333"/>
<path d="M481.801 280.908C481.607 280.665 481.364 280.471 481.17 280.277V282.461L481.801 281.83V280.908Z" fill="#333333"/>
<path d="M482.141 278.772L481.801 279.112V280.908C481.898 281.005 482.044 281.15 482.141 281.248V278.772Z" fill="#333333"/>
<path d="M481.801 279.112L481.17 279.743V280.228C481.364 280.422 481.607 280.665 481.801 280.859V279.112Z" fill="#333333"/>
<path d="M505.1 270.617C504.712 270.083 504.323 269.598 503.935 269.064L499.033 273.967C499.421 274.5 499.809 275.034 500.149 275.568L505.1 270.617Z" fill="#333333"/>
<path d="M492.771 282.947C492.431 282.413 492.091 281.83 491.703 281.296L487.674 285.325C487.965 285.81 488.257 286.247 488.548 286.733H488.936L492.771 282.947Z" fill="#333333"/>
<path d="M512.041 260.958C512.43 261.443 512.818 261.977 513.206 262.463L518.594 257.075C518.206 256.589 517.818 256.055 517.381 255.57L512.041 260.958Z" fill="#333333"/>
<path d="M518.788 254.211C519.177 254.696 519.614 255.23 520.002 255.716L525.147 250.57C524.759 250.085 524.37 249.551 523.934 249.066L518.788 254.211Z" fill="#333333"/>
<path d="M505.343 267.656C505.731 268.19 506.119 268.676 506.508 269.21L511.847 263.87C511.459 263.336 511.07 262.851 510.682 262.365L505.343 267.656Z" fill="#333333"/>
<path d="M498.79 276.928C498.45 276.394 498.062 275.86 497.673 275.326L493.062 279.937C493.451 280.471 493.79 281.005 494.13 281.539L498.79 276.928Z" fill="#333333"/>
<path d="M488.548 286.781C488.257 286.296 487.965 285.81 487.674 285.374L486.315 286.733C486.315 286.733 486.315 286.781 486.364 286.781H488.548Z" fill="#333333"/>
<path d="M494.179 281.539C493.839 281.005 493.451 280.471 493.111 279.937L491.703 281.345C492.091 281.879 492.431 282.413 492.771 282.995L494.179 281.539Z" fill="#333333"/>
<path d="M500.198 275.52C499.809 274.986 499.469 274.452 499.081 273.918L497.673 275.326C498.062 275.86 498.45 276.394 498.79 276.927L500.198 275.52Z" fill="#333333"/>
<path d="M505.343 267.656L503.935 269.064C504.324 269.598 504.712 270.083 505.1 270.617L506.508 269.21C506.119 268.676 505.731 268.19 505.343 267.656Z" fill="#333333"/>
<path d="M510.682 262.365C511.071 262.851 511.459 263.385 511.847 263.87L513.255 262.463C512.866 261.929 512.478 261.443 512.09 260.958L510.682 262.365Z" fill="#333333"/>
<path d="M518.594 257.123L520.002 255.715C519.614 255.23 519.225 254.696 518.788 254.211L517.381 255.618C517.818 256.104 518.206 256.589 518.594 257.123Z" fill="#333333"/>
<path d="M525.147 250.57L525.778 249.939C525.39 249.454 524.953 248.92 524.565 248.435L523.934 249.066C524.37 249.551 524.759 250.085 525.147 250.57Z" fill="#333333"/>
<path d="M529.37 270.812C529.661 271.443 529.953 272.025 530.244 272.656L535.632 267.268C535.341 266.686 535.049 266.055 534.71 265.472L529.37 270.812Z" fill="#333333"/>
<path d="M522.235 277.947C522.526 278.578 522.769 279.209 523.011 279.84L528.739 274.112C528.448 273.481 528.157 272.899 527.865 272.268L522.235 277.947Z" fill="#333333"/>
<path d="M513.4 286.781C513.449 286.732 513.449 286.732 513.4 286.781V286.781Z" fill="#333333"/>
<path d="M521.555 281.345C521.312 280.714 521.07 280.083 520.779 279.403L514.954 285.228C515.148 285.762 515.294 286.247 515.488 286.781H516.119L521.555 281.345Z" fill="#333333"/>
<path d="M514.954 285.228L513.449 286.733H515.488C515.342 286.247 515.148 285.713 514.954 285.228Z" fill="#333333"/>
<path d="M514.08 288.771L514.177 288.674H514.08C514.08 288.723 514.08 288.723 514.08 288.771Z" fill="#333333"/>
<path d="M520.779 279.403C521.07 280.034 521.312 280.665 521.555 281.345L523.06 279.84C522.817 279.209 522.526 278.578 522.283 277.947L520.779 279.403Z" fill="#333333"/>
<path d="M527.962 272.268C528.254 272.899 528.545 273.481 528.836 274.112L530.292 272.656C530.001 272.025 529.71 271.443 529.419 270.812L527.962 272.268Z" fill="#333333"/>
<path d="M535.68 267.22L536.36 266.54C536.069 265.958 535.777 265.327 535.438 264.744L534.758 265.424C535.049 266.055 535.389 266.637 535.68 267.22Z" fill="#333333"/>
<path d="M524.856 284.791C525.05 285.422 525.244 286.102 525.438 286.733H525.584L531.457 280.859C531.215 280.18 530.972 279.549 530.729 278.869L524.856 284.791Z" fill="#333333"/>
<path d="M532.282 277.413C532.525 278.044 532.768 278.724 533.011 279.403L538.593 273.821C538.35 273.19 538.059 272.559 537.816 271.928L532.282 277.413Z" fill="#333333"/>
<path d="M522.914 286.781H523.448C523.4 286.636 523.351 286.49 523.351 286.393L522.914 286.781Z" fill="#333333"/>
<path d="M523.303 286.344C523.351 286.49 523.4 286.636 523.4 286.733H525.438C525.244 286.102 525.05 285.422 524.856 284.791L523.303 286.344Z" fill="#333333"/>
<path d="M530.778 278.869C531.02 279.549 531.263 280.18 531.506 280.859L533.011 279.355C532.768 278.675 532.525 278.044 532.282 277.365L530.778 278.869Z" fill="#333333"/>
<path d="M538.544 273.821L539.272 273.093C539.03 272.462 538.738 271.831 538.496 271.2L537.816 271.879C538.059 272.51 538.301 273.141 538.544 273.821Z" fill="#333333"/>
<path d="M534.709 284.743C534.904 285.422 535.098 286.102 535.243 286.781H535.34L541.068 281.054C540.874 280.374 540.631 279.694 540.437 279.015L534.709 284.743Z" fill="#333333"/>
<path d="M533.302 286.781C533.253 286.635 533.205 286.441 533.156 286.296L532.671 286.781H533.302Z" fill="#333333"/>
<path d="M533.156 286.296C533.205 286.441 533.253 286.635 533.302 286.781H535.292C535.098 286.102 534.952 285.422 534.758 284.742L533.156 286.296Z" fill="#333333"/>
<path d="M541.068 281.053L541.796 280.325C541.602 279.646 541.36 278.966 541.117 278.287L540.389 279.015C540.68 279.694 540.874 280.374 541.068 281.053Z" fill="#333333"/>
<path d="M519.128 271.588C519.468 272.171 519.759 272.753 520.05 273.336L525.632 267.754C525.293 267.171 525.001 266.589 524.662 266.055L519.128 271.588Z" fill="#333333"/>
<path d="M512.138 278.578C512.43 279.16 512.721 279.791 513.012 280.422L518.643 274.792C518.352 274.209 518.012 273.627 517.721 272.996L512.138 278.578Z" fill="#333333"/>
<path d="M526.069 264.647C526.409 265.229 526.749 265.763 527.04 266.346L532.331 261.055C531.991 260.472 531.651 259.938 531.312 259.356L526.069 264.647Z" fill="#333333"/>
<path d="M503.935 286.781H504.081C504.081 286.733 504.032 286.684 504.032 286.684L503.935 286.781Z" fill="#333333"/>
<path d="M511.507 281.879C511.216 281.248 510.973 280.617 510.682 280.034L505.537 285.179C505.78 285.713 505.974 286.247 506.216 286.781H506.653L511.507 281.879Z" fill="#333333"/>
<path d="M505.537 285.179L504.081 286.636C504.081 286.684 504.129 286.733 504.129 286.733H506.217C505.974 286.247 505.78 285.713 505.537 285.179Z" fill="#333333"/>
<path d="M513.012 280.422C512.721 279.791 512.43 279.209 512.138 278.578L510.682 280.034C510.973 280.665 511.265 281.248 511.507 281.879L513.012 280.422Z" fill="#333333"/>
<path d="M518.643 274.792L520.099 273.336C519.808 272.753 519.468 272.171 519.177 271.588L517.72 273.044C518.012 273.578 518.303 274.209 518.643 274.792Z" fill="#333333"/>
<path d="M525.633 267.754L527.04 266.346C526.7 265.763 526.409 265.181 526.069 264.647L524.662 266.055C525.002 266.637 525.341 267.22 525.633 267.754Z" fill="#333333"/>
<path d="M532.331 261.055L532.962 260.424C532.622 259.842 532.283 259.308 531.943 258.725L531.312 259.356C531.7 259.939 532.04 260.521 532.331 261.055Z" fill="#333333"/>
<path d="M502.333 278.869C502.673 279.452 503.013 280.034 503.304 280.616L508.304 275.617C507.964 275.034 507.624 274.5 507.284 273.918L502.333 278.869Z" fill="#333333"/>
<path d="M515.536 265.666C515.925 266.2 516.264 266.734 516.604 267.317L522.041 261.88C521.701 261.346 521.312 260.812 520.924 260.278L515.536 265.666Z" fill="#333333"/>
<path d="M508.741 272.462C509.08 272.996 509.42 273.578 509.76 274.161L515.196 268.724C514.857 268.19 514.517 267.608 514.129 267.074L508.741 272.462Z" fill="#333333"/>
<path d="M494.421 286.781H494.907C494.858 286.684 494.81 286.587 494.761 286.441L494.421 286.781Z" fill="#333333"/>
<path d="M522.332 258.871C522.72 259.404 523.06 259.938 523.448 260.472L528.642 255.279C528.254 254.745 527.914 254.211 527.526 253.677L522.332 258.871Z" fill="#333333"/>
<path d="M501.848 282.024C501.557 281.442 501.217 280.859 500.877 280.277L496.169 284.985C496.46 285.568 496.751 286.15 497.042 286.733H497.091L501.848 282.024Z" fill="#333333"/>
<path d="M494.761 286.441C494.81 286.538 494.858 286.636 494.907 286.781H497.091C496.8 286.199 496.508 285.616 496.217 285.034L494.761 286.441Z" fill="#333333"/>
<path d="M503.304 280.568C502.964 279.986 502.673 279.403 502.333 278.821L500.926 280.228C501.265 280.811 501.557 281.393 501.896 281.976L503.304 280.568Z" fill="#333333"/>
<path d="M508.304 275.568L509.711 274.161C509.372 273.578 509.032 273.044 508.692 272.462L507.284 273.87C507.673 274.452 508.013 274.986 508.304 275.568Z" fill="#333333"/>
<path d="M514.129 267.074C514.468 267.608 514.857 268.142 515.196 268.724L516.604 267.317C516.264 266.783 515.876 266.249 515.536 265.666L514.129 267.074Z" fill="#333333"/>
<path d="M520.924 260.278C521.313 260.812 521.652 261.346 522.041 261.88L523.448 260.472C523.108 259.938 522.72 259.405 522.332 258.871L520.924 260.278Z" fill="#333333"/>
<path d="M527.526 253.677C527.914 254.211 528.254 254.745 528.642 255.279L529.273 254.648C528.885 254.114 528.545 253.58 528.157 253.094L527.526 253.677Z" fill="#333333"/>
<path d="M440.057 287.703L441.027 288.674H445.93C446.027 288.334 446.124 288.043 446.221 287.703H440.057Z" fill="#333333"/>
<path d="M497.528 287.703C497.673 288.043 497.819 288.334 497.965 288.674H502.042L503.013 287.703H497.528Z" fill="#333333"/>
<path d="M436.416 286.781H429.329L430.3 287.752H436.319C436.416 287.461 436.465 287.218 436.562 286.927L436.416 286.781Z" fill="#333333"/>
<path d="M445.881 286.781H439.086L440.056 287.752H446.221C446.27 287.606 446.318 287.412 446.367 287.266L445.881 286.781Z" fill="#333333"/>
<path d="M495.198 288.674H495.78C495.732 288.529 495.635 288.383 495.586 288.286L495.198 288.674Z" fill="#333333"/>
<path d="M504.712 288.674H504.809C504.809 288.626 504.809 288.626 504.76 288.577L504.712 288.674Z" fill="#333333"/>
<path d="M535.389 286.781L535.292 286.878C535.389 287.169 535.438 287.461 535.486 287.752H542.816C542.767 287.412 542.67 287.121 542.622 286.781H535.389Z" fill="#333333"/>
<path d="M535.535 287.703C535.632 288.043 535.68 288.334 535.777 288.674H543.058C543.01 288.334 542.913 288.043 542.864 287.703H535.535Z" fill="#333333"/>
<path d="M523.691 288.674H523.982C523.982 288.626 523.934 288.528 523.934 288.431L523.691 288.674Z" fill="#333333"/>
<path d="M486.218 286.781H482.141V287.703H485.296L486.218 286.781Z" fill="#333333"/>
<path d="M438.018 288.674H438.309L438.066 288.431C438.066 288.528 438.066 288.577 438.018 288.674Z" fill="#333333"/>
<path d="M428.213 288.674H428.504L428.261 288.431C428.261 288.528 428.261 288.577 428.213 288.674Z" fill="#333333"/>
<path d="M430.251 287.703L431.222 288.674H436.028C436.125 288.334 436.173 288.043 436.27 287.703H430.251Z" fill="#333333"/>
<path d="M521.944 287.703H515.779C515.876 288.043 515.973 288.334 516.07 288.674H520.973L521.944 287.703Z" fill="#333333"/>
<path d="M506.556 287.703C506.653 288.043 506.799 288.334 506.896 288.674H511.507L512.478 287.703H506.556Z" fill="#333333"/>
<path d="M497.14 286.781C497.237 287.121 497.382 287.412 497.528 287.752H503.013L503.984 286.781H497.14Z" fill="#333333"/>
<path d="M533.447 288.674H533.739C533.739 288.577 533.69 288.528 533.69 288.431L533.447 288.674Z" fill="#333333"/>
<path d="M525.73 287.703C525.827 288.043 525.875 288.334 525.972 288.674H530.778L531.749 287.703H525.73Z" fill="#333333"/>
<path d="M485.296 287.703H482.141V288.674H484.325L485.296 287.703Z" fill="#333333"/>
<path d="M474.86 288.092C474.763 288.286 474.666 288.48 474.568 288.626H475.442L474.86 288.092Z" fill="#333333"/>
<path d="M478.112 288.674H479.859V287.703H477.141L478.112 288.674Z" fill="#333333"/>
<path d="M472.918 287.703H468.549L469.52 288.674H472.433C472.53 288.334 472.724 288.043 472.918 287.703Z" fill="#333333"/>
<path d="M449.522 287.703L450.493 288.674H455.104C455.201 288.334 455.347 288.043 455.444 287.703H449.522Z" fill="#333333"/>
<path d="M476.219 286.781L477.141 287.703H479.859V286.781H476.219Z" fill="#333333"/>
<path d="M487.043 288.674H487.48C487.432 288.577 487.383 288.48 487.334 288.431L487.043 288.674Z" fill="#333333"/>
<path d="M426.465 287.703C426.514 287.412 426.611 287.121 426.659 286.83L426.562 286.733H419.378C419.281 287.072 419.233 287.364 419.184 287.703H426.465Z" fill="#333333"/>
<path d="M457.143 288.674H457.288L457.191 288.577C457.191 288.626 457.143 288.626 457.143 288.674Z" fill="#333333"/>
<path d="M464.472 287.703H458.987L459.958 288.674H464.084C464.181 288.334 464.327 288.043 464.472 287.703Z" fill="#333333"/>
<path d="M525.584 286.781L525.438 286.927C525.535 287.218 525.584 287.461 525.681 287.752H531.7L532.671 286.781H525.584Z" fill="#333333"/>
<path d="M489.082 287.703C489.276 288.043 489.422 288.334 489.616 288.674H492.528L493.499 287.703H489.082Z" fill="#333333"/>
<path d="M488.936 286.781L488.694 287.024C488.839 287.266 488.985 287.509 489.082 287.752H493.451L494.421 286.781H488.936Z" fill="#333333"/>
<path d="M466.171 288.674H466.753L466.365 288.286C466.317 288.383 466.22 288.529 466.171 288.674Z" fill="#333333"/>
<path d="M516.119 286.781L515.633 287.266C515.682 287.412 515.73 287.606 515.779 287.752H521.944L522.914 286.781H516.119Z" fill="#333333"/>
<path d="M455.347 286.781H448.551L449.522 287.752H455.444C455.541 287.558 455.589 287.315 455.686 287.121L455.347 286.781Z" fill="#333333"/>
<path d="M464.86 286.781H458.065L459.036 287.752H464.521C464.618 287.412 464.763 287.121 464.86 286.781Z" fill="#333333"/>
<path d="M506.653 286.781L506.314 287.121C506.411 287.315 506.459 287.558 506.556 287.752H512.478L513.449 286.781H506.653Z" fill="#333333"/>
<path d="M426.271 288.674C426.368 288.334 426.417 288.043 426.514 287.703H419.136C419.087 288.043 418.99 288.334 418.942 288.674H426.271Z" fill="#333333"/>
<path d="M467.579 286.781L468.549 287.752H472.918C473.112 287.412 473.258 287.121 473.452 286.781H467.579Z" fill="#333333"/>
<path d="M474.471 287.703H472.918C472.724 288.043 472.578 288.334 472.384 288.674H474.568C474.665 288.48 474.763 288.286 474.86 288.14L474.471 287.703Z" fill="#333333"/>
<path d="M473.501 286.781H473.452C473.258 287.121 473.064 287.412 472.918 287.752H474.471L473.501 286.781Z" fill="#333333"/>
<path d="M464.909 286.781C464.763 287.072 464.618 287.363 464.472 287.703H465.831L464.909 286.781Z" fill="#333333"/>
<path d="M465.831 287.703H464.472C464.327 288.043 464.181 288.334 464.035 288.674H466.171C466.22 288.529 466.317 288.383 466.365 288.286L465.831 287.703Z" fill="#333333"/>
<path d="M455.444 287.704H456.317L455.686 287.073C455.589 287.267 455.492 287.509 455.444 287.704Z" fill="#333333"/>
<path d="M456.317 287.703H455.444C455.347 288.043 455.201 288.334 455.104 288.674H457.143C457.143 288.626 457.143 288.626 457.191 288.577L456.317 287.703Z" fill="#333333"/>
<path d="M446.221 287.703C446.124 288.043 446.027 288.334 445.93 288.674H447.823L446.852 287.703H446.221Z" fill="#333333"/>
<path d="M446.221 287.703H446.852L446.367 287.218C446.318 287.412 446.27 287.558 446.221 287.703Z" fill="#333333"/>
<path d="M436.27 287.703H437.338L436.513 286.878C436.465 287.169 436.367 287.412 436.27 287.703Z" fill="#333333"/>
<path d="M437.338 287.703H436.27C436.173 288.043 436.125 288.334 436.028 288.674H438.018C438.018 288.577 438.066 288.529 438.066 288.431L437.338 287.703Z" fill="#333333"/>
<path d="M426.708 286.83C426.611 287.121 426.562 287.412 426.514 287.704H427.582L426.708 286.83Z" fill="#333333"/>
<path d="M427.582 287.703H426.514C426.417 288.043 426.368 288.334 426.271 288.674H428.261C428.261 288.577 428.31 288.529 428.31 288.431L427.582 287.703Z" fill="#333333"/>
<path d="M418.165 287.703C418.213 287.364 418.311 287.072 418.408 286.733H417.437C417.34 287.072 417.291 287.364 417.243 287.703H418.165Z" fill="#333333"/>
<path d="M419.136 287.703C419.184 287.364 419.281 287.072 419.33 286.733H418.359C418.262 287.072 418.213 287.364 418.116 287.703H419.136Z" fill="#333333"/>
<path d="M419.136 287.703H418.165C418.116 288.043 418.019 288.334 417.971 288.674H418.942C419.039 288.334 419.087 288.043 419.136 287.703Z" fill="#333333"/>
<path d="M480.199 287.703H479.859V288.674H480.199V287.703Z" fill="#333333"/>
<path d="M480.199 286.781H479.859V287.752H480.199V286.781Z" fill="#333333"/>
<path d="M417.971 288.674C418.019 288.334 418.116 288.043 418.165 287.703H417.194C417.146 288.043 417.049 288.334 417 288.674H417.971Z" fill="#333333"/>
<path d="M475.102 287.704C475.005 287.849 474.957 287.995 474.86 288.092L475.394 288.626H478.112L477.141 287.655H475.102V287.704Z" fill="#333333"/>
<path d="M475.102 287.703H477.141L476.17 286.733H475.636C475.491 287.072 475.297 287.412 475.102 287.703Z" fill="#333333"/>
<path d="M474.86 288.092C474.957 287.946 475.005 287.8 475.102 287.703H474.471L474.86 288.092Z" fill="#333333"/>
<path d="M473.501 286.781L474.471 287.752H475.102C475.297 287.412 475.491 287.121 475.685 286.781H473.501Z" fill="#333333"/>
<path d="M448.551 286.781C448.454 287.121 448.357 287.412 448.211 287.752H449.522L448.551 286.781Z" fill="#333333"/>
<path d="M446.367 287.218C446.415 287.072 446.464 286.878 446.512 286.733H445.881L446.367 287.218Z" fill="#333333"/>
<path d="M448.211 287.703C448.114 288.043 448.017 288.334 447.92 288.674H450.493L449.522 287.703H448.211Z" fill="#333333"/>
<path d="M446.804 287.703L447.774 288.674H447.92C448.017 288.334 448.114 288.043 448.211 287.703H446.804Z" fill="#333333"/>
<path d="M446.512 286.781C446.464 286.927 446.415 287.121 446.367 287.266L446.852 287.752H448.26C448.357 287.412 448.454 287.121 448.6 286.781H446.512Z" fill="#333333"/>
<path d="M438.6 286.781C438.503 287.121 438.406 287.412 438.309 287.752H440.057L439.086 286.781H438.6Z" fill="#333333"/>
<path d="M436.513 286.878C436.513 286.83 436.513 286.781 436.562 286.733H436.416L436.513 286.878Z" fill="#333333"/>
<path d="M440.056 287.703H438.309C438.26 287.946 438.163 288.189 438.115 288.431L438.358 288.674H441.076L440.056 287.703Z" fill="#333333"/>
<path d="M438.115 288.431C438.163 288.189 438.261 287.946 438.309 287.703H437.387L438.115 288.431Z" fill="#333333"/>
<path d="M436.562 286.781C436.562 286.83 436.562 286.878 436.513 286.927L437.338 287.752H438.261C438.358 287.412 438.455 287.121 438.552 286.781H436.562Z" fill="#333333"/>
<path d="M426.611 286.781L426.708 286.878C426.708 286.83 426.708 286.83 426.708 286.781H426.611Z" fill="#333333"/>
<path d="M428.698 286.781C428.601 287.121 428.553 287.412 428.455 287.752H430.251L429.281 286.781H428.698Z" fill="#333333"/>
<path d="M428.455 287.703C428.407 287.946 428.358 288.189 428.261 288.431L428.504 288.674H431.222L430.251 287.703H428.455Z" fill="#333333"/>
<path d="M428.455 287.703C428.553 287.364 428.601 287.072 428.698 286.733H426.708C426.708 286.781 426.708 286.781 426.708 286.83L427.582 287.703H428.455Z" fill="#333333"/>
<path d="M428.31 288.431C428.358 288.189 428.407 287.946 428.504 287.703H427.63L428.31 288.431Z" fill="#333333"/>
<path d="M457.919 286.781C457.774 287.121 457.677 287.412 457.531 287.752H459.036L458.065 286.781H457.919Z" fill="#333333"/>
<path d="M457.531 287.703C457.434 287.995 457.288 288.286 457.191 288.577L457.288 288.674H460.006L459.036 287.703H457.531Z" fill="#333333"/>
<path d="M455.347 286.781L455.686 287.121C455.735 287.024 455.783 286.927 455.832 286.781H455.347Z" fill="#333333"/>
<path d="M457.191 288.577C457.288 288.286 457.385 287.995 457.531 287.703H456.317L457.191 288.577Z" fill="#333333"/>
<path d="M455.783 286.781C455.735 286.878 455.686 286.975 455.638 287.121L456.269 287.752H457.482C457.628 287.412 457.725 287.121 457.871 286.781H455.783Z" fill="#333333"/>
<path d="M467.093 286.781C466.948 287.121 466.754 287.412 466.608 287.752H468.501L467.53 286.781H467.093Z" fill="#333333"/>
<path d="M466.608 287.704C466.511 287.898 466.414 288.043 466.365 288.238L466.753 288.626H469.472L468.501 287.655H466.608V287.704Z" fill="#333333"/>
<path d="M464.909 286.781L465.783 287.752H466.559C466.705 287.412 466.851 287.121 467.045 286.781H464.909Z" fill="#333333"/>
<path d="M466.365 288.237C466.462 288.043 466.511 287.849 466.608 287.703H465.831L466.365 288.237Z" fill="#333333"/>
<path d="M489.082 287.703H487.965L487.286 288.383C487.334 288.48 487.383 288.577 487.432 288.626H489.616C489.422 288.334 489.276 288.043 489.082 287.703Z" fill="#333333"/>
<path d="M487.965 287.703H489.082C488.936 287.461 488.839 287.218 488.694 286.975L487.965 287.703Z" fill="#333333"/>
<path d="M497.528 287.703H496.169L495.635 288.237C495.683 288.383 495.78 288.529 495.829 288.626H497.965C497.771 288.334 497.673 288.043 497.528 287.703Z" fill="#333333"/>
<path d="M496.169 287.703H497.528C497.382 287.412 497.237 287.072 497.091 286.781L496.169 287.703Z" fill="#333333"/>
<path d="M505.683 287.704H506.556C506.459 287.509 506.411 287.267 506.314 287.073L505.683 287.704Z" fill="#333333"/>
<path d="M505.683 287.703L504.809 288.577C504.809 288.626 504.809 288.626 504.857 288.674H506.896C506.799 288.334 506.653 288.043 506.556 287.703H505.683Z" fill="#333333"/>
<path d="M515.148 287.703H515.779C515.73 287.558 515.682 287.364 515.633 287.218L515.148 287.703Z" fill="#333333"/>
<path d="M515.148 287.703L514.177 288.674H516.07C515.973 288.334 515.876 288.043 515.779 287.703H515.148Z" fill="#333333"/>
<path d="M524.662 287.703H525.73C525.633 287.412 525.584 287.169 525.487 286.878L524.662 287.703Z" fill="#333333"/>
<path d="M524.662 287.703L523.934 288.431C523.934 288.48 523.982 288.577 523.982 288.674H525.972C525.875 288.334 525.827 288.043 525.73 287.703H524.662Z" fill="#333333"/>
<path d="M533.69 288.431C533.69 288.529 533.739 288.577 533.739 288.674H535.729C535.632 288.334 535.583 288.043 535.486 287.703H534.418L533.69 288.431Z" fill="#333333"/>
<path d="M535.535 287.704C535.486 287.412 535.389 287.121 535.341 286.83L534.467 287.704H535.535Z" fill="#333333"/>
<path d="M542.622 286.781C542.719 287.121 542.767 287.412 542.816 287.752H543.786C543.738 287.412 543.641 287.121 543.544 286.781H542.622Z" fill="#333333"/>
<path d="M482.141 286.781H481.801V287.752H482.141V286.781Z" fill="#333333"/>
<path d="M482.141 287.703H481.801V288.674H482.141V287.703Z" fill="#333333"/>
<path d="M542.816 287.703C542.864 288.043 542.961 288.334 543.01 288.674H543.981C543.932 288.334 543.835 288.043 543.786 287.703H542.816Z" fill="#333333"/>
<path d="M543.835 287.703H544.806C544.757 287.364 544.66 287.072 544.612 286.733H543.641C543.689 287.072 543.738 287.412 543.835 287.703Z" fill="#333333"/>
<path d="M543.835 287.703C543.884 288.043 543.981 288.334 544.029 288.674H545C544.951 288.334 544.854 288.043 544.806 287.703H543.835Z" fill="#333333"/>
<path d="M481.17 286.781H480.83V287.752H481.17V286.781Z" fill="#333333"/>
<path d="M481.801 286.781H481.17V287.752H481.801V286.781Z" fill="#333333"/>
<path d="M480.83 286.781H480.199V287.752H480.83V286.781Z" fill="#333333"/>
<path d="M481.801 287.703H481.17V288.674H481.801V287.703Z" fill="#333333"/>
<path d="M481.17 287.703H480.83V288.674H481.17V287.703Z" fill="#333333"/>
<path d="M480.83 287.703H480.199V288.674H480.83V287.703Z" fill="#333333"/>
<path d="M487.286 288.383C487.14 288.14 487.043 287.946 486.898 287.703H485.296L484.325 288.674H487.043L487.286 288.383Z" fill="#333333"/>
<path d="M488.936 286.781H488.548C488.597 286.878 488.645 286.927 488.694 287.024L488.936 286.781Z" fill="#333333"/>
<path d="M486.898 287.703C486.703 287.364 486.509 287.072 486.315 286.733H486.267L485.296 287.703H486.898Z" fill="#333333"/>
<path d="M487.286 288.383L487.965 287.703H486.898C487.043 287.946 487.14 288.189 487.286 288.383Z" fill="#333333"/>
<path d="M488.694 287.024C488.645 286.927 488.596 286.878 488.548 286.781H486.315C486.509 287.072 486.703 287.412 486.898 287.752H487.965L488.694 287.024Z" fill="#333333"/>
<path d="M515.633 287.218L516.119 286.733H515.488C515.536 286.927 515.585 287.072 515.633 287.218Z" fill="#333333"/>
<path d="M513.4 286.781L512.43 287.752H513.74C513.643 287.412 513.546 287.072 513.4 286.781Z" fill="#333333"/>
<path d="M512.478 287.703L511.507 288.674H514.08C513.983 288.334 513.886 288.043 513.789 287.703H512.478Z" fill="#333333"/>
<path d="M515.488 286.781H513.449C513.546 287.121 513.643 287.412 513.789 287.752H515.196L515.682 287.266C515.585 287.072 515.536 286.927 515.488 286.781Z" fill="#333333"/>
<path d="M513.74 287.703C513.837 288.043 513.934 288.334 514.031 288.674H514.177L515.148 287.703H513.74Z" fill="#333333"/>
<path d="M522.914 286.781L521.943 287.752H523.691C523.594 287.412 523.497 287.121 523.4 286.781H522.914Z" fill="#333333"/>
<path d="M523.691 287.703H521.943L520.973 288.674H523.691L523.934 288.431C523.837 288.189 523.788 287.946 523.691 287.703Z" fill="#333333"/>
<path d="M525.584 286.781H525.438C525.438 286.83 525.438 286.878 525.487 286.927L525.584 286.781Z" fill="#333333"/>
<path d="M525.438 286.781H523.4C523.497 287.121 523.594 287.412 523.691 287.752H524.613L525.438 286.927C525.438 286.83 525.438 286.781 525.438 286.781Z" fill="#333333"/>
<path d="M523.885 288.431L524.613 287.703H523.691C523.788 287.946 523.837 288.189 523.885 288.431Z" fill="#333333"/>
<path d="M533.544 287.703H531.749L530.778 288.674H533.496L533.739 288.431C533.642 288.189 533.593 287.946 533.544 287.703Z" fill="#333333"/>
<path d="M535.389 286.781H535.292C535.292 286.83 535.292 286.83 535.292 286.878L535.389 286.781Z" fill="#333333"/>
<path d="M531.749 287.703H533.545C533.447 287.364 533.399 287.072 533.302 286.733H532.719L531.749 287.703Z" fill="#333333"/>
<path d="M534.418 287.703H533.545C533.593 287.946 533.642 288.189 533.739 288.431L534.418 287.703Z" fill="#333333"/>
<path d="M533.545 287.703H534.418L535.292 286.83C535.292 286.781 535.292 286.781 535.292 286.733H533.302C533.35 287.072 533.447 287.412 533.545 287.703Z" fill="#333333"/>
<path d="M506.168 286.781C506.217 286.878 506.265 286.975 506.314 287.121L506.653 286.781H506.168Z" fill="#333333"/>
<path d="M504.469 287.703H502.964L501.994 288.674H504.712L504.809 288.577C504.712 288.286 504.615 287.995 504.469 287.703Z" fill="#333333"/>
<path d="M503.935 286.781L502.964 287.752H504.469C504.323 287.412 504.226 287.121 504.081 286.781H503.935Z" fill="#333333"/>
<path d="M506.168 286.781H504.081C504.226 287.121 504.323 287.412 504.469 287.752H505.683L506.314 287.121C506.265 286.975 506.217 286.878 506.168 286.781Z" fill="#333333"/>
<path d="M504.809 288.577L505.683 287.703H504.469C504.615 287.995 504.712 288.286 504.809 288.577Z" fill="#333333"/>
<path d="M495.392 287.703H493.499L492.528 288.674H495.246L495.635 288.286C495.538 288.092 495.441 287.898 495.392 287.703Z" fill="#333333"/>
<path d="M494.421 286.781L493.451 287.752H495.344C495.198 287.412 495.052 287.121 494.858 286.781H494.421Z" fill="#333333"/>
<path d="M495.635 288.237L496.169 287.703H495.392C495.441 287.898 495.538 288.092 495.635 288.237Z" fill="#333333"/>
<path d="M497.091 286.781L494.907 286.733C495.052 287.072 495.247 287.364 495.392 287.703H496.169L497.091 286.781Z" fill="#333333"/>
<path d="M441.498 303.559C441.498 306.355 443.082 307.891 446.778 307.891C450.126 307.891 451.806 306.607 452.022 304.171H449.826C449.622 305.539 448.566 306.079 446.778 306.079C444.594 306.079 443.658 305.287 443.658 303.559C443.658 301.843 444.582 301.063 446.778 301.063C448.578 301.063 449.622 301.591 449.826 302.947H452.022C451.806 300.523 450.126 299.251 446.778 299.251C443.082 299.251 441.498 300.775 441.498 303.559ZM457.969 307.891C461.653 307.891 463.249 306.343 463.249 303.559C463.249 300.787 461.653 299.251 457.969 299.251C454.273 299.251 452.689 300.775 452.689 303.559C452.689 306.355 454.273 307.891 457.969 307.891ZM457.969 306.079C455.725 306.079 454.849 305.287 454.849 303.559C454.849 301.843 455.713 301.063 457.969 301.063C460.225 301.063 461.089 301.855 461.089 303.559C461.089 305.275 460.213 306.079 457.969 306.079ZM472.7 299.371V305.683L466.964 299.371H464.036V307.771H466.196V301.471L471.92 307.771H474.86V299.371H472.7ZM484.705 301.087V299.371H475.825V307.771H484.705V306.055H477.985V304.351H484.705V302.791H477.985V301.087H484.705ZM485.22 307.771H488.196L491.412 304.891L494.616 307.771H497.604L492.876 303.571L497.604 299.371H494.616L491.412 302.251L488.196 299.371H485.22L489.948 303.571L485.22 307.771ZM502.64 297.331C503.6 297.331 503.924 298.519 505.304 298.519C506.648 298.519 507.188 297.331 507.188 295.999H505.436C505.436 296.683 505.28 297.067 504.764 297.067C503.804 297.067 503.48 295.879 502.112 295.879C500.756 295.879 500.228 297.067 500.228 298.399H501.98C501.98 297.715 502.136 297.331 502.64 297.331ZM507.116 307.771H509.504L505.16 299.371H502.244L497.912 307.771H500.288L501.188 305.983H506.216L507.116 307.771ZM501.992 304.375L503.708 300.967L505.412 304.375H501.992ZM514.219 307.891C517.903 307.891 519.499 306.343 519.499 303.559C519.499 300.787 517.903 299.251 514.219 299.251C510.523 299.251 508.939 300.775 508.939 303.559C508.939 306.355 510.523 307.891 514.219 307.891ZM514.219 306.079C511.975 306.079 511.099 305.287 511.099 303.559C511.099 301.843 511.963 301.063 514.219 301.063C516.475 301.063 517.339 301.855 517.339 303.559C517.339 305.275 516.463 306.079 514.219 306.079Z" fill="#333333"/>
<path d="M434.93 313.771H424.69V316.791H431.33V320.751C431.33 322.691 430.79 324.951 426.53 324.951C422.27 324.951 421.73 322.711 421.73 320.751H418.13C418.13 325.631 420.77 327.971 426.53 327.971C432.27 327.971 434.93 325.611 434.93 320.751V313.771ZM449.773 327.771H453.753L446.513 313.771H441.653L434.433 327.771H438.393L439.893 324.791H448.273L449.773 327.771ZM441.233 322.111L444.093 316.431L446.933 322.111H441.233ZM469.054 313.771V324.291L459.494 313.771H454.614V327.771H458.214V317.271L467.754 327.771H472.654V313.771H469.054ZM489.062 316.631V313.771H474.262V327.771H489.062V324.911H477.862V322.071H489.062V319.471H477.862V316.631H489.062ZM505.516 327.771H509.496L502.256 313.771H497.396L490.176 327.771H494.136L495.636 324.791H504.016L505.516 327.771ZM496.976 322.111L499.836 316.431L502.676 322.111H496.976ZM521.356 313.771H510.356V327.771H513.956V324.031H521.356C524.536 324.031 526.716 322.031 526.716 318.911C526.716 315.791 524.536 313.771 521.356 313.771ZM520.356 321.011H513.956V316.791H520.356C521.436 316.791 523.116 316.791 523.116 318.911C523.116 321.011 521.436 321.011 520.356 321.011ZM538.286 308.171L530.506 309.771V312.131L538.286 310.531V308.171ZM540.086 327.771H544.066L536.826 313.771H531.966L524.746 327.771H528.706L530.206 324.791H538.586L540.086 327.771ZM531.546 322.111L534.406 316.431L537.246 322.111H531.546Z" fill="#333333"/>
<rect x="417" y="337" width="128" height="2" fill="#333333"/>
</svg>
