<svg width="595" height="421" viewBox="0 0 595 421" fill="none" xmlns="http://www.w3.org/2000/svg">
<rect width="595" height="421" fill="white"/>
<path d="M20 -3.05176e-05L575 -3.05176e-05V391C575 396.523 570.523 401 565 401L30 401C24.4771 401 20 396.523 20 391L20 -3.05176e-05Z" fill="#3CA6C7" fill-opacity="0.5"/>
<path d="M184.474 195H162.474V223H169.674V215.52H184.474C190.834 215.52 195.194 211.52 195.194 205.28C195.194 199.04 190.834 195 184.474 195ZM182.474 209.48H169.674V201.04H182.474C184.634 201.04 187.994 201.04 187.994 205.28C187.994 209.48 184.634 209.48 182.474 209.48ZM218.334 183.8L202.774 187V191.72L218.334 188.52V183.8ZM221.934 223H229.894L215.414 195H205.694L191.254 223H199.174L202.174 217.04H218.934L221.934 223ZM204.854 211.68L210.574 200.32L216.254 211.68H204.854ZM245.331 212.68H255.771C255.611 214.8 252.811 217.84 245.851 217.84C236.531 217.84 235.211 212.56 235.211 209.16C235.211 205.8 236.491 200.64 245.851 200.64C253.451 200.64 255.371 203.8 255.771 205.92H263.091C262.651 198.96 257.051 194.6 245.851 194.6C234.331 194.6 228.011 199.72 228.011 209C228.011 218.28 234.331 223.4 244.651 223.4C250.611 223.4 254.811 221.48 257.451 218.6L257.771 223H263.091V208H245.331V212.68ZM273.111 195H265.911V223H273.111V195ZM305.182 195V216.04L286.062 195H276.302V223H283.502V202L302.582 223H312.382V195H305.182ZM344.785 223H352.745L338.265 195H328.545L314.105 223H322.025L325.025 217.04H341.785L344.785 223ZM327.705 211.68L333.425 200.32L339.105 211.68H327.705ZM390.875 216.96V195H383.675C383.675 200.36 378.195 200.36 374.075 200.36V206.44C376.995 206.44 380.715 206.44 383.755 203.76L383.715 216.96H374.075V223H400.475V216.96H390.875ZM429.592 209C432.272 207.72 433.912 205.8 433.912 202.88C433.912 196.68 428.272 194.6 418.432 194.6C408.712 194.6 402.152 196.68 402.152 205.6H409.352C409.352 201.36 411.992 200.64 418.832 200.64C425.032 200.64 426.712 201.36 426.712 203.8C426.712 206.6 424.352 206.84 414.832 206.84V211.16C424.552 211.16 426.712 211.4 426.712 214.2C426.712 216.88 424.552 217.36 418.832 217.36C412.672 217.36 409.352 216.88 409.352 212.4H402.152C402.152 221.32 408.712 223.4 418.432 223.4C428.272 223.4 433.912 221.32 433.912 215.12C433.912 212.2 432.272 210.28 429.592 209Z" fill="black"/>
</svg>
