<svg width="595" height="421" viewBox="0 0 595 421" fill="none" xmlns="http://www.w3.org/2000/svg">
<rect width="595" height="421" fill="white"/>
<path d="M20 0L575 0V397C575 399.209 573.209 401 571 401L24 401C21.7909 401 20 399.209 20 397L20 0Z" fill="#EEEEEE"/>
<path d="M248.298 191H237.298V205H240.898V201.26H248.298C251.478 201.26 253.658 199.26 253.658 196.14C253.658 193.02 251.478 191 248.298 191ZM247.298 198.24H240.898V194.02H247.298C248.378 194.02 250.058 194.02 250.058 196.14C250.058 198.24 248.378 198.24 247.298 198.24ZM265.227 185.4L257.447 187V189.36L265.227 187.76V185.4ZM267.027 205H271.007L263.767 191H258.907L251.687 205H255.647L257.147 202.02H265.527L267.027 205ZM258.487 199.34L261.347 193.66L264.187 199.34H258.487ZM278.726 199.84H283.946C283.866 200.9 282.466 202.42 278.986 202.42C274.326 202.42 273.666 199.78 273.666 198.08C273.666 196.4 274.306 193.82 278.986 193.82C282.786 193.82 283.746 195.4 283.946 196.46H287.606C287.386 192.98 284.586 190.8 278.986 190.8C273.226 190.8 270.066 193.36 270.066 198C270.066 202.64 273.226 205.2 278.386 205.2C281.366 205.2 283.466 204.24 284.786 202.8L284.946 205H287.606V197.5H278.726V199.84ZM292.616 191H289.016V205H292.616V191ZM308.652 191V201.52L299.092 191H294.212V205H297.812V194.5L307.352 205H312.252V191H308.652ZM328.453 205H332.433L325.193 191H320.333L313.113 205H317.073L318.573 202.02H326.953L328.453 205ZM319.913 199.34L322.773 193.66L325.613 199.34H319.913ZM350.498 190.8C345.558 190.8 342.898 192.44 342.898 195.7C342.898 199.08 345.558 200.44 349.638 200.44C352.278 200.44 354.138 199.76 355.218 198.92C354.858 201.76 353.298 202.34 350.458 202.34C347.858 202.34 345.818 201.88 343.838 201.5V204.36C345.538 204.72 347.858 205.2 351.338 205.2C355.458 205.2 358.898 203.46 358.898 197.66C358.898 193.14 356.498 190.8 350.498 190.8ZM350.898 198.32C347.478 198.32 346.498 197.46 346.498 196C346.498 194.54 347.498 193.66 350.898 193.66C354.078 193.66 355.298 194.54 355.298 196C355.298 197.48 353.978 198.32 350.898 198.32Z" fill="#333333"/>
</svg>
