<svg width="595" height="421" viewBox="0 0 595 421" fill="none" xmlns="http://www.w3.org/2000/svg">
<rect width="595" height="421" transform="translate(595 421) rotate(-180)" fill="white"/>
<path d="M575 421L20 421L20 24C20 21.7909 21.7909 20 24 20L571 20.0001C573.209 20.0001 575 21.7909 575 24.0001L575 421Z" fill="#EEEEEE"/>
<path d="M247.102 190H236.102V204H239.702V200.26H247.102C250.282 200.26 252.462 198.26 252.462 195.14C252.462 192.02 250.282 190 247.102 190ZM246.102 197.24H239.702V193.02H246.102C247.182 193.02 248.862 193.02 248.862 195.14C248.862 197.24 247.182 197.24 246.102 197.24ZM264.032 184.4L256.252 186V188.36L264.032 186.76V184.4ZM265.832 204H269.812L262.572 190H257.712L250.492 204H254.452L255.952 201.02H264.332L265.832 204ZM257.292 198.34L260.152 192.66L262.992 198.34H257.292ZM277.531 198.84H282.751C282.671 199.9 281.271 201.42 277.791 201.42C273.131 201.42 272.471 198.78 272.471 197.08C272.471 195.4 273.111 192.82 277.791 192.82C281.591 192.82 282.551 194.4 282.751 195.46H286.411C286.191 191.98 283.391 189.8 277.791 189.8C272.031 189.8 268.871 192.36 268.871 197C268.871 201.64 272.031 204.2 277.191 204.2C280.171 204.2 282.271 203.24 283.591 201.8L283.751 204H286.411V196.5H277.531V198.84ZM291.421 190H287.821V204H291.421V190ZM307.456 190V200.52L297.896 190H293.016V204H296.616V193.5L306.156 204H311.056V190H307.456ZM327.258 204H331.238L323.998 190H319.138L311.918 204H315.878L317.378 201.02H325.758L327.258 204ZM318.718 198.34L321.578 192.66L324.418 198.34H318.718ZM355.183 196.06C356.183 195.46 356.703 194.6 356.703 193.48C356.703 190.96 354.723 189.8 349.903 189.8C345.063 189.8 343.103 190.96 343.103 193.48C343.103 194.6 343.623 195.46 344.623 196.06C342.583 196.78 341.703 198.06 341.703 199.84C341.703 202.66 343.663 204.2 349.903 204.2C356.123 204.2 358.103 202.64 358.103 199.84C358.103 198.06 357.203 196.78 355.183 196.06ZM349.903 192.4C352.663 192.4 353.443 192.78 353.443 193.76C353.443 194.74 352.663 195.12 349.903 195.12C347.123 195.12 346.363 194.74 346.363 193.76C346.363 192.78 347.143 192.4 349.903 192.4ZM349.903 201.42C346.383 201.42 345.303 200.78 345.303 199.42C345.303 198.08 346.363 197.46 349.903 197.46C353.443 197.46 354.503 198.1 354.503 199.42C354.503 200.78 353.423 201.42 349.903 201.42Z" fill="black"/>
<line y1="420.5" x2="595" y2="420.5" stroke="white" stroke-dasharray="4 2"/>
</svg>
