<svg width="595" height="421" viewBox="0 0 595 421" fill="none" xmlns="http://www.w3.org/2000/svg">
<rect width="595" height="421" transform="translate(595 421) rotate(-180)" fill="white"/>
<path d="M575 421L20 421L20 30C20 24.4772 24.4772 20 30 20L565 20.0001C570.523 20.0001 575 24.4772 575 30.0001L575 421Z" fill="#3CA6C7" fill-opacity="0.5"/>
<path d="M197.712 194H175.712V222H182.912V214.52H197.712C204.072 214.52 208.432 210.52 208.432 204.28C208.432 198.04 204.072 194 197.712 194ZM195.712 208.48H182.912V200.04H195.712C197.872 200.04 201.232 200.04 201.232 204.28C201.232 208.48 197.872 208.48 195.712 208.48ZM231.572 182.8L216.012 186V190.72L231.572 187.52V182.8ZM235.172 222H243.132L228.652 194H218.932L204.492 222H212.412L215.412 216.04H232.172L235.172 222ZM218.092 210.68L223.812 199.32L229.492 210.68H218.092ZM258.57 211.68H269.01C268.85 213.8 266.05 216.84 259.09 216.84C249.77 216.84 248.45 211.56 248.45 208.16C248.45 204.8 249.73 199.64 259.09 199.64C266.69 199.64 268.61 202.8 269.01 204.92H276.33C275.89 197.96 270.29 193.6 259.09 193.6C247.57 193.6 241.25 198.72 241.25 208C241.25 217.28 247.57 222.4 257.89 222.4C263.85 222.4 268.05 220.48 270.69 217.6L271.01 222H276.33V207H258.57V211.68ZM286.35 194H279.15V222H286.35V194ZM318.42 194V215.04L299.3 194H289.54V222H296.74V201L315.82 222H325.62V194H318.42ZM358.023 222H365.983L351.503 194H341.783L327.343 222H335.263L338.263 216.04H355.023L358.023 222ZM340.943 210.68L346.663 199.32L352.343 210.68H340.943ZM418.674 202.4C418.674 195.44 413.034 193.6 403.394 193.6C394.114 193.6 387.554 195.68 387.554 205H394.754C394.754 200.56 397.594 199.64 403.794 199.64C409.994 199.64 411.474 200.64 411.474 202.96C411.474 209.32 386.914 206.72 386.914 218.36V222H418.274V215.96H396.994C398.754 210.4 418.674 213.24 418.674 202.4Z" fill="black"/>
</svg>
