<svg width="595" height="421" viewBox="0 0 595 421" fill="none" xmlns="http://www.w3.org/2000/svg">
<rect width="595" height="421" fill="white"/>
<path d="M20 0H575V391C575 396.523 570.523 401 565 401H30C24.4771 401 20 396.523 20 391V0Z" fill="#3CA6C7" fill-opacity="0.5"/>
<path d="M20 0H575V391C575 396.523 570.523 401 565 401H30C24.4771 401 20 396.523 20 391V0Z" fill="url(#paint0_linear)"/>
<path d="M180.293 207.96C180.293 217.28 185.573 222.4 197.893 222.4C209.053 222.4 214.653 218.12 215.373 210H208.053C207.373 214.56 203.853 216.36 197.893 216.36C190.613 216.36 187.493 213.72 187.493 207.96C187.493 202.24 190.573 199.64 197.893 199.64C203.893 199.64 207.373 201.4 208.053 205.92H215.373C214.653 197.84 209.053 193.6 197.893 193.6C185.573 193.6 180.293 198.68 180.293 207.96ZM243.941 222H251.901L237.421 194H227.701L213.261 222H221.181L224.181 216.04H240.941L243.941 222ZM226.861 210.68L232.581 199.32L238.261 210.68H226.861ZM275.622 194H253.622V222H260.822V214.52H275.622C281.982 214.52 286.342 210.52 286.342 204.28C286.342 198.04 281.982 194 275.622 194ZM273.622 208.48H260.822V200.04H273.622C275.782 200.04 279.142 200.04 279.142 204.28C279.142 208.48 275.782 208.48 273.622 208.48ZM313.082 222H321.042L306.562 194H296.842L282.402 222H290.322L293.322 216.04H310.082L313.082 222ZM296.002 210.68L301.722 199.32L307.402 210.68H296.002ZM362.692 194H342.372V222H362.692C369.932 222 376.292 217.52 376.292 208C376.292 198.48 369.932 194 362.692 194ZM359.972 215.96H349.572V200.04H359.972C365.412 200.04 369.092 201.2 369.092 208C369.092 214.8 365.412 215.96 359.972 215.96ZM396.096 222.4C408.376 222.4 413.696 217.24 413.696 207.96C413.696 198.72 408.376 193.6 396.096 193.6C383.776 193.6 378.496 198.68 378.496 207.96C378.496 217.28 383.776 222.4 396.096 222.4ZM396.096 216.36C388.616 216.36 385.696 213.72 385.696 207.96C385.696 202.24 388.576 199.64 396.096 199.64C403.616 199.64 406.496 202.28 406.496 207.96C406.496 213.68 403.576 216.36 396.096 216.36ZM149.177 242H128.857V270H149.177C156.417 270 162.777 265.52 162.777 256C162.777 246.48 156.417 242 149.177 242ZM146.457 263.96H136.057V248.04H146.457C151.897 248.04 155.577 249.2 155.577 256C155.577 262.8 151.897 263.96 146.457 263.96ZM182.58 270.4C194.86 270.4 200.18 265.24 200.18 255.96C200.18 246.72 194.86 241.6 182.58 241.6C170.26 241.6 164.98 246.68 164.98 255.96C164.98 265.28 170.26 270.4 182.58 270.4ZM182.58 264.36C175.1 264.36 172.18 261.72 172.18 255.96C172.18 250.24 175.06 247.64 182.58 247.64C190.1 247.64 192.98 250.28 192.98 255.96C192.98 261.68 190.06 264.36 182.58 264.36ZM202.402 255.96C202.402 265.28 207.682 270.4 220.002 270.4C231.162 270.4 236.762 266.12 237.482 258H230.162C229.482 262.56 225.962 264.36 220.002 264.36C212.722 264.36 209.602 261.72 209.602 255.96C209.602 250.24 212.682 247.64 220.002 247.64C226.002 247.64 229.482 249.4 230.162 253.92H237.482C236.762 245.84 231.162 241.6 220.002 241.6C207.682 241.6 202.402 246.68 202.402 255.96ZM275.502 255.96V242H268.302V255.96C268.302 259.84 267.222 264.36 257.902 264.36C248.582 264.36 247.502 259.88 247.502 255.96V242H240.302V255.96C240.302 265.72 245.582 270.4 257.902 270.4C270.182 270.4 275.502 265.68 275.502 255.96ZM321.385 242H311.665L299.945 261.76L288.225 242H278.505V270H285.705V250.8L297.345 270H302.545L314.185 250.8V270H321.385V242ZM354.199 247.72V242H324.599V270H354.199V264.28H331.799V258.6H354.199V253.4H331.799V247.72H354.199ZM385.705 242V263.04L366.585 242H356.825V270H364.025V249L383.105 270H392.905V242H385.705ZM429.693 242H395.293V248.04H408.893V270H416.093V248.04H429.693V242ZM447.932 270.4C460.212 270.4 465.532 265.24 465.532 255.96C465.532 246.72 460.212 241.6 447.932 241.6C435.612 241.6 430.332 246.68 430.332 255.96C430.332 265.28 435.612 270.4 447.932 270.4ZM447.932 264.36C440.452 264.36 437.532 261.72 437.532 255.96C437.532 250.24 440.412 247.64 447.932 247.64C455.452 247.64 458.332 250.28 458.332 255.96C458.332 261.68 455.412 264.36 447.932 264.36Z" fill="black"/>
<defs>
<linearGradient id="paint0_linear" x1="307.5" y1="-104.5" x2="297" y2="439" gradientUnits="userSpaceOnUse">
<stop stop-color="white"/>
<stop offset="1" stop-color="white" stop-opacity="0"/>
</linearGradient>
</defs>
</svg>
