<svg width="595" height="421" viewBox="0 0 595 421" fill="none" xmlns="http://www.w3.org/2000/svg">
<rect width="595" height="421" fill="white"/>
<path d="M20 -3.05176e-05L575 -3.05176e-05V391C575 396.523 570.523 401 565 401L30 401C24.4771 401 20 396.523 20 391L20 -3.05176e-05Z" fill="#3CA6C7" fill-opacity="0.5"/>
<path d="M184.669 195H162.669V223H169.869V215.52H184.669C191.029 215.52 195.389 211.52 195.389 205.28C195.389 199.04 191.029 195 184.669 195ZM182.669 209.48H169.869V201.04H182.669C184.829 201.04 188.189 201.04 188.189 205.28C188.189 209.48 184.829 209.48 182.669 209.48ZM218.529 183.8L202.969 187V191.72L218.529 188.52V183.8ZM222.129 223H230.089L215.609 195H205.889L191.449 223H199.369L202.369 217.04H219.129L222.129 223ZM205.049 211.68L210.769 200.32L216.449 211.68H205.049ZM245.527 212.68H255.967C255.807 214.8 253.007 217.84 246.047 217.84C236.727 217.84 235.407 212.56 235.407 209.16C235.407 205.8 236.687 200.64 246.047 200.64C253.647 200.64 255.567 203.8 255.967 205.92H263.287C262.847 198.96 257.247 194.6 246.047 194.6C234.527 194.6 228.207 199.72 228.207 209C228.207 218.28 234.527 223.4 244.847 223.4C250.807 223.4 255.007 221.48 257.647 218.6L257.967 223H263.287V208H245.527V212.68ZM273.307 195H266.107V223H273.307V195ZM305.377 195V216.04L286.257 195H276.497V223H283.697V202L302.777 223H312.577V195H305.377ZM344.98 223H352.94L338.46 195H328.74L314.3 223H322.22L325.22 217.04H341.98L344.98 223ZM327.9 211.68L333.62 200.32L339.3 211.68H327.9ZM391.071 216.96V195H383.871C383.871 200.36 378.391 200.36 374.271 200.36V206.44C377.191 206.44 380.911 206.44 383.951 203.76L383.911 216.96H374.271V223H400.671V216.96H391.071ZM422.197 204.12C417.637 204.12 414.637 204.92 410.517 206.68L412.317 200.72H431.717V195H406.957L403.357 209.56L409.277 210.72C414.077 208.8 416.837 208.24 419.597 208.24C425.077 208.24 426.517 210.08 426.517 212.72C426.517 215.56 424.597 217.36 418.637 217.36C412.477 217.36 409.157 216.44 409.157 213.28H401.957C401.957 221.56 409.157 223.4 418.437 223.4C427.797 223.4 433.717 220.48 433.717 213.52C433.717 207.52 429.437 204.12 422.197 204.12Z" fill="black"/>
</svg>
