<svg width="595" height="421" viewBox="0 0 595 421" fill="none" xmlns="http://www.w3.org/2000/svg">
<rect width="595" height="421" transform="translate(595 421) rotate(-180)" fill="white"/>
<path d="M575 421L20 421L20 24C20 21.7909 21.7909 20 24 20L571 20.0001C573.209 20.0001 575 21.7909 575 24.0001L575 421Z" fill="#EEEEEE"/>
<path d="M246.956 190H235.956V204H239.556V200.26H246.956C250.136 200.26 252.316 198.26 252.316 195.14C252.316 192.02 250.136 190 246.956 190ZM245.956 197.24H239.556V193.02H245.956C247.036 193.02 248.716 193.02 248.716 195.14C248.716 197.24 247.036 197.24 245.956 197.24ZM263.886 184.4L256.106 186V188.36L263.886 186.76V184.4ZM265.686 204H269.666L262.426 190H257.566L250.346 204H254.306L255.806 201.02H264.186L265.686 204ZM257.146 198.34L260.006 192.66L262.846 198.34H257.146ZM277.384 198.84H282.604C282.524 199.9 281.124 201.42 277.644 201.42C272.984 201.42 272.324 198.78 272.324 197.08C272.324 195.4 272.964 192.82 277.644 192.82C281.444 192.82 282.404 194.4 282.604 195.46H286.264C286.044 191.98 283.244 189.8 277.644 189.8C271.884 189.8 268.724 192.36 268.724 197C268.724 201.64 271.884 204.2 277.044 204.2C280.024 204.2 282.124 203.24 283.444 201.8L283.604 204H286.264V196.5H277.384V198.84ZM291.274 190H287.674V204H291.274V190ZM307.31 190V200.52L297.75 190H292.87V204H296.47V193.5L306.01 204H310.91V190H307.31ZM327.111 204H331.091L323.851 190H318.991L311.771 204H315.731L317.231 201.02H325.611L327.111 204ZM318.571 198.34L321.431 192.66L324.271 198.34H318.571ZM358.036 198.68H355.236V190H351.636L341.756 198.68V201.72H351.636V204H355.236V201.72H358.036V198.68ZM345.636 198.68L351.636 193.6V198.68H345.636Z" fill="black"/>
<line y1="420.5" x2="595" y2="420.5" stroke="white" stroke-dasharray="4 2"/>
</svg>
