<svg width="595" height="421" viewBox="0 0 595 421" fill="none" xmlns="http://www.w3.org/2000/svg">
<rect width="595" height="421" fill="white"/>
<path d="M20 0L575 0V397C575 399.209 573.209 401 571 401L24 401C21.7909 401 20 399.209 20 397L20 0Z" fill="#EEEEEE"/>
<path d="M248.356 191H237.356V205H240.956V201.26H248.356C251.536 201.26 253.716 199.26 253.716 196.14C253.716 193.02 251.536 191 248.356 191ZM247.356 198.24H240.956V194.02H247.356C248.436 194.02 250.116 194.02 250.116 196.14C250.116 198.24 248.436 198.24 247.356 198.24ZM265.286 185.4L257.506 187V189.36L265.286 187.76V185.4ZM267.086 205H271.066L263.826 191H258.966L251.746 205H255.706L257.206 202.02H265.586L267.086 205ZM258.546 199.34L261.406 193.66L264.246 199.34H258.546ZM278.785 199.84H284.005C283.925 200.9 282.525 202.42 279.045 202.42C274.385 202.42 273.725 199.78 273.725 198.08C273.725 196.4 274.365 193.82 279.045 193.82C282.845 193.82 283.805 195.4 284.005 196.46H287.665C287.445 192.98 284.645 190.8 279.045 190.8C273.285 190.8 270.125 193.36 270.125 198C270.125 202.64 273.285 205.2 278.445 205.2C281.425 205.2 283.525 204.24 284.845 202.8L285.005 205H287.665V197.5H278.785V199.84ZM292.675 191H289.075V205H292.675V191ZM308.71 191V201.52L299.15 191H294.27V205H297.87V194.5L307.41 205H312.31V191H308.71ZM328.512 205H332.492L325.252 191H320.392L313.172 205H317.132L318.632 202.02H327.012L328.512 205ZM319.972 199.34L322.832 193.66L325.672 199.34H319.972ZM353.077 195.56C350.797 195.56 349.297 195.96 347.237 196.84L348.137 193.86H357.837V191H345.457L343.657 198.28L346.617 198.86C349.017 197.9 350.397 197.62 351.777 197.62C354.517 197.62 355.237 198.54 355.237 199.86C355.237 201.28 354.277 202.18 351.297 202.18C348.217 202.18 346.557 201.72 346.557 200.14H342.957C342.957 204.28 346.557 205.2 351.197 205.2C355.877 205.2 358.837 203.74 358.837 200.26C358.837 197.26 356.697 195.56 353.077 195.56Z" fill="#333333"/>
</svg>
