<svg width="595" height="421" viewBox="0 0 595 421" fill="none" xmlns="http://www.w3.org/2000/svg">
<g clip-path="url(#clip0)">
<rect width="595" height="421" transform="translate(595 421) rotate(-180)" fill="white"/>
<path d="M575 421L20 421L20 24C20 21.7908 21.7909 20 24 20L571 20C573.209 20 575 21.7909 575 24L575 421Z" fill="#EEEEEE"/>
<path d="M240.003 190H229.003V204H232.603V200.26H240.003C243.183 200.26 245.363 198.26 245.363 195.14C245.363 192.02 243.183 190 240.003 190ZM239.003 197.24H232.603V193.02H239.003C240.083 193.02 241.763 193.02 241.763 195.14C241.763 197.24 240.083 197.24 239.003 197.24ZM256.932 184.4L249.152 186V188.36L256.932 186.76V184.4ZM258.732 204H262.712L255.472 190H250.612L243.392 204H247.352L248.852 201.02H257.232L258.732 204ZM250.192 198.34L253.052 192.66L255.892 198.34H250.192ZM270.431 198.84H275.651C275.571 199.9 274.171 201.42 270.691 201.42C266.031 201.42 265.371 198.78 265.371 197.08C265.371 195.4 266.011 192.82 270.691 192.82C274.491 192.82 275.451 194.4 275.651 195.46H279.311C279.091 191.98 276.291 189.8 270.691 189.8C264.931 189.8 261.771 192.36 261.771 197C261.771 201.64 264.931 204.2 270.091 204.2C273.071 204.2 275.171 203.24 276.491 201.8L276.651 204H279.311V196.5H270.431V198.84ZM284.321 190H280.721V204H284.321V190ZM300.357 190V200.52L290.797 190H285.917V204H289.517V193.5L299.057 204H303.957V190H300.357ZM320.158 204H324.138L316.898 190H312.038L304.818 204H308.778L310.278 201.02H318.658L320.158 204ZM311.618 198.34L314.478 192.66L317.318 198.34H311.618ZM343.203 200.98V190H339.603C339.603 192.68 336.863 192.68 334.803 192.68V195.72C336.263 195.72 338.123 195.72 339.643 194.38L339.623 200.98H334.803V204H348.003V200.98H343.203ZM365.19 194.2C365.19 190.72 362.37 189.8 357.55 189.8C352.91 189.8 349.63 190.84 349.63 195.5H353.23C353.23 193.28 354.65 192.82 357.75 192.82C360.85 192.82 361.59 193.32 361.59 194.48C361.59 197.66 349.31 196.36 349.31 202.18V204H364.99V200.98H354.35C355.23 198.2 365.19 199.62 365.19 194.2Z" fill="#333333"/>
<line y1="420" x2="595" y2="420" stroke="#CCCCCC" stroke-width="2" stroke-dasharray="4 2"/>
</g>
<defs>
<clipPath id="clip0">
<rect width="595" height="421" fill="white" transform="translate(595 421) rotate(-180)"/>
</clipPath>
</defs>
</svg>
