<svg width="595" height="421" viewBox="0 0 595 421" fill="none" xmlns="http://www.w3.org/2000/svg">
<rect width="595" height="421" fill="white"/>
<path d="M20 -3.05176e-05L575 -3.05176e-05V391C575 396.523 570.523 401 565 401L30 401C24.4771 401 20 396.523 20 391L20 -3.05176e-05Z" fill="#3CA6C7" fill-opacity="0.5"/>
<path d="M198.712 195H176.712V223H183.912V215.52H198.712C205.072 215.52 209.432 211.52 209.432 205.28C209.432 199.04 205.072 195 198.712 195ZM196.712 209.48H183.912V201.04H196.712C198.872 201.04 202.232 201.04 202.232 205.28C202.232 209.48 198.872 209.48 196.712 209.48ZM232.572 183.8L217.012 187V191.72L232.572 188.52V183.8ZM236.172 223H244.132L229.652 195H219.932L205.492 223H213.412L216.412 217.04H233.172L236.172 223ZM219.092 211.68L224.812 200.32L230.492 211.68H219.092ZM259.57 212.68H270.01C269.85 214.8 267.05 217.84 260.09 217.84C250.77 217.84 249.45 212.56 249.45 209.16C249.45 205.8 250.73 200.64 260.09 200.64C267.69 200.64 269.61 203.8 270.01 205.92H277.33C276.89 198.96 271.29 194.6 260.09 194.6C248.57 194.6 242.25 199.72 242.25 209C242.25 218.28 248.57 223.4 258.89 223.4C264.85 223.4 269.05 221.48 271.69 218.6L272.01 223H277.33V208H259.57V212.68ZM287.35 195H280.15V223H287.35V195ZM319.42 195V216.04L300.3 195H290.54V223H297.74V202L316.82 223H326.62V195H319.42ZM359.023 223H366.983L352.503 195H342.783L328.343 223H336.263L339.263 217.04H356.023L359.023 223ZM341.943 211.68L347.663 200.32L353.343 211.68H341.943ZM408.154 204.12C403.594 204.12 400.594 204.92 396.474 206.68L398.274 200.72H417.674V195H392.914L389.314 209.56L395.234 210.72C400.034 208.8 402.794 208.24 405.554 208.24C411.034 208.24 412.474 210.08 412.474 212.72C412.474 215.56 410.554 217.36 404.594 217.36C398.434 217.36 395.114 216.44 395.114 213.28H387.914C387.914 221.56 395.114 223.4 404.394 223.4C413.754 223.4 419.674 220.48 419.674 213.52C419.674 207.52 415.394 204.12 408.154 204.12Z" fill="black"/>
</svg>
