<svg width="595" height="421" viewBox="0 0 595 421" fill="none" xmlns="http://www.w3.org/2000/svg">
<g clip-path="url(#clip0)">
<rect width="595" height="421" transform="translate(595 421) rotate(-180)" fill="white"/>
<path d="M575 421L20 421L20 24C20 21.7908 21.7909 20 24 20L571 20C573.209 20 575 21.7909 575 24L575 421Z" fill="#EEEEEE"/>
<path d="M239.954 190H228.954V204H232.554V200.26H239.954C243.134 200.26 245.314 198.26 245.314 195.14C245.314 192.02 243.134 190 239.954 190ZM238.954 197.24H232.554V193.02H238.954C240.034 193.02 241.714 193.02 241.714 195.14C241.714 197.24 240.034 197.24 238.954 197.24ZM256.884 184.4L249.104 186V188.36L256.884 186.76V184.4ZM258.684 204H262.664L255.424 190H250.564L243.344 204H247.304L248.804 201.02H257.184L258.684 204ZM250.144 198.34L253.004 192.66L255.844 198.34H250.144ZM270.383 198.84H275.603C275.523 199.9 274.123 201.42 270.643 201.42C265.983 201.42 265.323 198.78 265.323 197.08C265.323 195.4 265.963 192.82 270.643 192.82C274.443 192.82 275.403 194.4 275.603 195.46H279.263C279.043 191.98 276.243 189.8 270.643 189.8C264.883 189.8 261.722 192.36 261.722 197C261.722 201.64 264.883 204.2 270.043 204.2C273.023 204.2 275.123 203.24 276.443 201.8L276.603 204H279.263V196.5H270.383V198.84ZM284.273 190H280.673V204H284.273V190ZM300.308 190V200.52L290.748 190H285.868V204H289.468V193.5L299.008 204H303.908V190H300.308ZM320.109 204H324.089L316.849 190H311.989L304.769 204H308.729L310.229 201.02H318.609L320.109 204ZM311.569 198.34L314.429 192.66L317.269 198.34H311.569ZM343.155 200.98V190H339.555C339.555 192.68 336.815 192.68 334.755 192.68V195.72C336.215 195.72 338.075 195.72 339.595 194.38L339.575 200.98H334.755V204H347.955V200.98H343.155ZM365.038 198.68H362.238V190H358.638L348.758 198.68V201.72H358.638V204H362.238V201.72H365.038V198.68ZM352.638 198.68L358.638 193.6V198.68H352.638Z" fill="#333333"/>
<line x1="-7" y1="420" x2="588" y2="420" stroke="#CCCCCC" stroke-width="2" stroke-dasharray="4 2"/>
</g>
<defs>
<clipPath id="clip0">
<rect width="595" height="421" fill="white" transform="translate(595 421) rotate(-180)"/>
</clipPath>
</defs>
</svg>
