<svg width="595" height="421" viewBox="0 0 595 421" fill="none" xmlns="http://www.w3.org/2000/svg">
<rect width="595" height="421" fill="white"/>
<path d="M20 -3.05176e-05L575 -3.05176e-05V391C575 396.523 570.523 401 565 401L30 401C24.4771 401 20 396.523 20 391L20 -3.05176e-05Z" fill="#3CA6C7" fill-opacity="0.5"/>
<path d="M186.193 195H164.193V223H171.393V215.52H186.193C192.553 215.52 196.913 211.52 196.913 205.28C196.913 199.04 192.553 195 186.193 195ZM184.193 209.48H171.393V201.04H184.193C186.353 201.04 189.713 201.04 189.713 205.28C189.713 209.48 186.353 209.48 184.193 209.48ZM220.052 183.8L204.492 187V191.72L220.052 188.52V183.8ZM223.652 223H231.612L217.132 195H207.412L192.972 223H200.892L203.892 217.04H220.652L223.652 223ZM206.572 211.68L212.292 200.32L217.972 211.68H206.572ZM247.05 212.68H257.49C257.33 214.8 254.53 217.84 247.57 217.84C238.25 217.84 236.93 212.56 236.93 209.16C236.93 205.8 238.21 200.64 247.57 200.64C255.17 200.64 257.09 203.8 257.49 205.92H264.81C264.37 198.96 258.77 194.6 247.57 194.6C236.05 194.6 229.73 199.72 229.73 209C229.73 218.28 236.05 223.4 246.37 223.4C252.33 223.4 256.53 221.48 259.17 218.6L259.49 223H264.81V208H247.05V212.68ZM274.83 195H267.63V223H274.83V195ZM306.901 195V216.04L287.781 195H278.021V223H285.221V202L304.301 223H314.101V195H306.901ZM346.504 223H354.464L339.984 195H330.264L315.824 223H323.744L326.744 217.04H343.504L346.504 223ZM329.424 211.68L335.144 200.32L340.824 211.68H329.424ZM392.594 216.96V195H385.394C385.394 200.36 379.914 200.36 375.794 200.36V206.44C378.714 206.44 382.434 206.44 385.474 203.76L385.434 216.96H375.794V223H402.194V216.96H392.594ZM422.204 216.96V195H415.004C415.004 200.36 409.524 200.36 405.404 200.36V206.44C408.324 206.44 412.044 206.44 415.084 203.76L415.044 216.96H405.404V223H431.804V216.96H422.204Z" fill="black"/>
</svg>
