<svg width="595" height="421" viewBox="0 0 595 421" fill="none" xmlns="http://www.w3.org/2000/svg">
<rect width="595" height="421" fill="white"/>
<path d="M20 -3.05176e-05L575 -3.05176e-05V391C575 396.523 570.523 401 565 401L30 401C24.4771 401 20 396.523 20 391L20 -3.05176e-05Z" fill="#3CA6C7" fill-opacity="0.5"/>
<path d="M198.595 195H176.595V223H183.795V215.52H198.595C204.955 215.52 209.315 211.52 209.315 205.28C209.315 199.04 204.955 195 198.595 195ZM196.595 209.48H183.795V201.04H196.595C198.755 201.04 202.115 201.04 202.115 205.28C202.115 209.48 198.755 209.48 196.595 209.48ZM232.455 183.8L216.895 187V191.72L232.455 188.52V183.8ZM236.055 223H244.015L229.535 195H219.815L205.375 223H213.295L216.295 217.04H233.055L236.055 223ZM218.975 211.68L224.695 200.32L230.375 211.68H218.975ZM259.453 212.68H269.893C269.733 214.8 266.933 217.84 259.973 217.84C250.653 217.84 249.333 212.56 249.333 209.16C249.333 205.8 250.613 200.64 259.973 200.64C267.573 200.64 269.493 203.8 269.893 205.92H277.213C276.773 198.96 271.173 194.6 259.973 194.6C248.453 194.6 242.132 199.72 242.132 209C242.132 218.28 248.453 223.4 258.773 223.4C264.733 223.4 268.933 221.48 271.573 218.6L271.893 223H277.213V208H259.453V212.68ZM287.233 195H280.033V223H287.233V195ZM319.303 195V216.04L300.183 195H290.423V223H297.623V202L316.703 223H326.503V195H319.303ZM358.906 223H366.866L352.386 195H342.666L328.226 223H336.146L339.146 217.04H355.906L358.906 223ZM341.826 211.68L347.546 200.32L353.226 211.68H341.826ZM402.997 194.6C393.117 194.6 387.797 197.88 387.797 204.4C387.797 211.16 393.117 213.88 401.277 213.88C406.557 213.88 410.277 212.52 412.437 210.84C411.717 216.52 408.597 217.68 402.917 217.68C397.717 217.68 393.637 216.76 389.677 216V221.72C393.077 222.44 397.717 223.4 404.677 223.4C412.917 223.4 419.797 219.92 419.797 208.32C419.797 199.28 414.997 194.6 402.997 194.6ZM403.797 209.64C396.957 209.64 394.997 207.92 394.997 205C394.997 202.08 396.997 200.32 403.797 200.32C410.157 200.32 412.597 202.08 412.597 205C412.597 207.96 409.957 209.64 403.797 209.64Z" fill="black"/>
</svg>
