<svg width="595" height="421" viewBox="0 0 595 421" fill="none" xmlns="http://www.w3.org/2000/svg">
<g clip-path="url(#clip0)">
<rect width="595" height="421" transform="translate(595 421) rotate(-180)" fill="white"/>
<path d="M575 421L20 421L20 24C20 21.7908 21.7909 20 24 20L571 20C573.209 20 575 21.7909 575 24L575 421Z" fill="#EEEEEE"/>
<line y1="420" x2="595" y2="420" stroke="#CCCCCC" stroke-width="2" stroke-dasharray="4 2"/>
<path d="M247.356 190H236.356V204H239.956V200.26H247.356C250.536 200.26 252.716 198.26 252.716 195.14C252.716 192.02 250.536 190 247.356 190ZM246.356 197.24H239.956V193.02H246.356C247.436 193.02 249.116 193.02 249.116 195.14C249.116 197.24 247.436 197.24 246.356 197.24ZM264.286 184.4L256.506 186V188.36L264.286 186.76V184.4ZM266.086 204H270.066L262.826 190H257.966L250.746 204H254.706L256.206 201.02H264.586L266.086 204ZM257.546 198.34L260.406 192.66L263.246 198.34H257.546ZM277.785 198.84H283.005C282.925 199.9 281.525 201.42 278.045 201.42C273.385 201.42 272.725 198.78 272.725 197.08C272.725 195.4 273.365 192.82 278.045 192.82C281.845 192.82 282.805 194.4 283.005 195.46H286.665C286.445 191.98 283.645 189.8 278.045 189.8C272.285 189.8 269.125 192.36 269.125 197C269.125 201.64 272.285 204.2 277.445 204.2C280.425 204.2 282.525 203.24 283.845 201.8L284.005 204H286.665V196.5H277.785V198.84ZM291.675 190H288.075V204H291.675V190ZM307.71 190V200.52L298.15 190H293.27V204H296.87V193.5L306.41 204H311.31V190H307.71ZM327.512 204H331.492L324.252 190H319.392L312.172 204H316.132L317.632 201.02H326.012L327.512 204ZM318.972 198.34L321.832 192.66L324.672 198.34H318.972ZM357.837 194.2C357.837 190.72 355.017 189.8 350.197 189.8C345.557 189.8 342.277 190.84 342.277 195.5H345.877C345.877 193.28 347.297 192.82 350.397 192.82C353.497 192.82 354.237 193.32 354.237 194.48C354.237 197.66 341.957 196.36 341.957 202.18V204H357.637V200.98H346.997C347.877 198.2 357.837 199.62 357.837 194.2Z" fill="#333333"/>
</g>
<defs>
<clipPath id="clip0">
<rect width="595" height="421" fill="white" transform="translate(595 421) rotate(-180)"/>
</clipPath>
</defs>
</svg>
