<svg width="595" height="421" viewBox="0 0 595 421" fill="none" xmlns="http://www.w3.org/2000/svg">
<rect width="595" height="421" fill="white"/>
<path d="M20 -3.05176e-05L575 -3.05176e-05V391C575 396.523 570.523 401 565 401L30 401C24.4771 401 20 396.523 20 391L20 -3.05176e-05Z" fill="#3CA6C7" fill-opacity="0.5"/>
<path d="M200.255 195H178.255V223H185.455V215.52H200.255C206.615 215.52 210.975 211.52 210.975 205.28C210.975 199.04 206.615 195 200.255 195ZM198.255 209.48H185.455V201.04H198.255C200.415 201.04 203.775 201.04 203.775 205.28C203.775 209.48 200.415 209.48 198.255 209.48ZM234.115 183.8L218.555 187V191.72L234.115 188.52V183.8ZM237.715 223H245.675L231.195 195H221.475L207.035 223H214.955L217.955 217.04H234.715L237.715 223ZM220.635 211.68L226.355 200.32L232.035 211.68H220.635ZM261.113 212.68H271.553C271.393 214.8 268.593 217.84 261.633 217.84C252.313 217.84 250.993 212.56 250.993 209.16C250.993 205.8 252.273 200.64 261.633 200.64C269.233 200.64 271.153 203.8 271.553 205.92H278.873C278.433 198.96 272.833 194.6 261.633 194.6C250.113 194.6 243.793 199.72 243.793 209C243.793 218.28 250.113 223.4 260.433 223.4C266.393 223.4 270.593 221.48 273.233 218.6L273.553 223H278.873V208H261.113V212.68ZM288.893 195H281.693V223H288.893V195ZM320.963 195V216.04L301.843 195H292.083V223H299.283V202L318.363 223H328.163V195H320.963ZM360.566 223H368.526L354.046 195H344.326L329.886 223H337.806L340.806 217.04H357.566L360.566 223ZM343.486 211.68L349.206 200.32L354.886 211.68H343.486ZM388.937 195V201.04H408.697C398.497 206.64 395.097 215.8 395.097 223H402.297C402.297 215.8 407.257 206.64 418.657 201.04V195H388.937Z" fill="black"/>
</svg>
