<svg width="595" height="421" viewBox="0 0 595 421" fill="none" xmlns="http://www.w3.org/2000/svg">
<g clip-path="url(#clip0)">
<rect width="595" height="421" transform="translate(595 421) rotate(-180)" fill="white"/>
<path d="M575 421L20 421L20 24C20 21.7909 21.7909 20 24 20L571 20C573.209 20 575 21.7909 575 24L575 421Z" fill="#EEEEEE"/>
<path d="M575 421L20 421L20 24C20 21.7909 21.7909 20 24 20L571 20C573.209 20 575 21.7909 575 24L575 421Z" fill="#EEEEEE"/>
<path d="M207.703 209.98C207.703 214.64 210.343 217.2 216.503 217.2C222.083 217.2 224.883 215.06 225.243 211H221.583C221.243 213.28 219.483 214.18 216.503 214.18C212.863 214.18 211.303 212.86 211.303 209.98C211.303 207.12 212.843 205.82 216.503 205.82C219.503 205.82 221.243 206.7 221.583 208.96H225.243C224.883 204.92 222.083 202.8 216.503 202.8C210.343 202.8 207.703 205.34 207.703 209.98ZM235.155 217.2C241.295 217.2 243.955 214.62 243.955 209.98C243.955 205.36 241.295 202.8 235.155 202.8C228.995 202.8 226.355 205.34 226.355 209.98C226.355 214.64 228.995 217.2 235.155 217.2ZM235.155 214.18C231.415 214.18 229.955 212.86 229.955 209.98C229.955 207.12 231.395 205.82 235.155 205.82C238.915 205.82 240.355 207.14 240.355 209.98C240.355 212.84 238.895 214.18 235.155 214.18ZM259.706 203V213.52L250.146 203H245.266V217H248.866V206.5L258.406 217H263.306V203H259.706ZM281.7 203H264.5V206.02H271.3V217H274.9V206.02H281.7V203ZM299.243 208.14C299.243 205.02 297.063 203 293.883 203H282.883V217H286.483V213.26H292.283L294.543 217H298.783L296.203 212.84C298.083 212.1 299.243 210.42 299.243 208.14ZM286.483 206.02H292.883C293.963 206.02 295.643 206.02 295.643 208.14C295.643 210.24 293.963 210.24 292.883 210.24H286.483V206.02ZM314.879 217H318.859L311.619 203H306.759L299.539 217H303.499L304.999 214.02H313.379L314.879 217ZM306.339 211.34L309.199 205.66L312.039 211.34H306.339ZM317.918 209.98C317.918 214.64 320.558 217.2 326.718 217.2C332.298 217.2 335.098 215.06 335.458 211H331.798C331.458 213.28 329.698 214.18 326.718 214.18C323.078 214.18 321.518 212.86 321.518 209.98C321.518 207.12 323.058 205.82 326.718 205.82C329.718 205.82 331.458 206.7 331.798 208.96H335.458C335.098 204.92 332.298 202.8 326.718 202.8C320.558 202.8 317.918 205.34 317.918 209.98ZM349.742 217H353.722L346.482 203H341.622L334.402 217H338.362L339.862 214.02H348.242L349.742 217ZM341.202 211.34L344.062 205.66L346.902 211.34H341.202ZM365.583 203H354.583V217H358.183V213.26H365.583C368.763 213.26 370.943 211.26 370.943 208.14C370.943 205.02 368.763 203 365.583 203ZM364.583 210.24H358.183V206.02H364.583C365.663 206.02 367.343 206.02 367.343 208.14C367.343 210.24 365.663 210.24 364.583 210.24ZM384.313 217H388.293L381.053 203H376.193L368.972 217H372.933L374.433 214.02H382.813L384.313 217ZM375.773 211.34L378.633 205.66L381.473 211.34H375.773Z" fill="black"/>
</g>
<defs>
<clipPath id="clip0">
<rect width="595" height="421" fill="white" transform="translate(595 421) rotate(-180)"/>
</clipPath>
</defs>
</svg>
