<svg width="595" height="421" viewBox="0 0 595 421" fill="none" xmlns="http://www.w3.org/2000/svg">
<rect width="595" height="421" fill="white"/>
<path d="M20 0L575 0V397C575 399.209 573.209 401 571 401L24 401C21.7909 401 20 399.209 20 397L20 0Z" fill="#EEEEEE"/>
<path d="M241.237 191H230.237V205H233.837V201.26H241.237C244.417 201.26 246.597 199.26 246.597 196.14C246.597 193.02 244.417 191 241.237 191ZM240.237 198.24H233.837V194.02H240.237C241.317 194.02 242.997 194.02 242.997 196.14C242.997 198.24 241.317 198.24 240.237 198.24ZM258.167 185.4L250.387 187V189.36L258.167 187.76V185.4ZM259.967 205H263.947L256.707 191H251.847L244.627 205H248.587L250.087 202.02H258.467L259.967 205ZM251.427 199.34L254.287 193.66L257.127 199.34H251.427ZM271.666 199.84H276.886C276.806 200.9 275.406 202.42 271.926 202.42C267.266 202.42 266.606 199.78 266.606 198.08C266.606 196.4 267.246 193.82 271.926 193.82C275.726 193.82 276.686 195.4 276.886 196.46H280.546C280.326 192.98 277.526 190.8 271.926 190.8C266.166 190.8 263.006 193.36 263.006 198C263.006 202.64 266.166 205.2 271.326 205.2C274.306 205.2 276.406 204.24 277.726 202.8L277.886 205H280.546V197.5H271.666V199.84ZM285.556 191H281.956V205H285.556V191ZM301.591 191V201.52L292.031 191H287.151V205H290.751V194.5L300.291 205H305.191V191H301.591ZM321.393 205H325.373L318.133 191H313.273L306.053 205H310.013L311.513 202.02H319.893L321.393 205ZM312.853 199.34L315.713 193.66L318.553 199.34H312.853ZM344.438 201.98V191H340.838C340.838 193.68 338.098 193.68 336.038 193.68V196.72C337.498 196.72 339.358 196.72 340.878 195.38L340.858 201.98H336.038V205H349.238V201.98H344.438ZM363.796 198C365.136 197.36 365.956 196.4 365.956 194.94C365.956 191.84 363.136 190.8 358.216 190.8C353.356 190.8 350.076 191.84 350.076 196.3H353.676C353.676 194.18 354.996 193.82 358.416 193.82C361.516 193.82 362.356 194.18 362.356 195.4C362.356 196.8 361.176 196.92 356.416 196.92V199.08C361.276 199.08 362.356 199.2 362.356 200.6C362.356 201.94 361.276 202.18 358.416 202.18C355.336 202.18 353.676 201.94 353.676 199.7H350.076C350.076 204.16 353.356 205.2 358.216 205.2C363.136 205.2 365.956 204.16 365.956 201.06C365.956 199.6 365.136 198.64 363.796 198Z" fill="#333333"/>
</svg>
