<svg width="595" height="421" viewBox="0 0 595 421" fill="none" xmlns="http://www.w3.org/2000/svg">
<g clip-path="url(#clip0)">
<rect width="595" height="421" transform="translate(595 421) rotate(-180)" fill="white"/>
<path d="M575 421L20 421L20 30C20 24.4771 24.4772 20 30 20L565 20C570.523 20 575 24.4772 575 30L575 421Z" fill="#3CA6C7" fill-opacity="0.5"/>
<path d="M575 421L20 421L20 30C20 24.4771 24.4772 20 30 20L565 20C570.523 20 575 24.4772 575 30L575 421Z" fill="url(#paint0_linear)"/>
<path d="M117.406 207.96C117.406 217.28 122.686 222.4 135.006 222.4C146.166 222.4 151.766 218.12 152.486 210H145.166C144.486 214.56 140.966 216.36 135.006 216.36C127.726 216.36 124.606 213.72 124.606 207.96C124.606 202.24 127.686 199.64 135.006 199.64C141.006 199.64 144.486 201.4 145.166 205.92H152.486C151.766 197.84 146.166 193.6 135.006 193.6C122.686 193.6 117.406 198.68 117.406 207.96ZM172.311 222.4C184.591 222.4 189.911 217.24 189.911 207.96C189.911 198.72 184.591 193.6 172.311 193.6C159.991 193.6 154.711 198.68 154.711 207.96C154.711 217.28 159.991 222.4 172.311 222.4ZM172.311 216.36C164.831 216.36 161.911 213.72 161.911 207.96C161.911 202.24 164.791 199.64 172.311 199.64C179.831 199.64 182.711 202.28 182.711 207.96C182.711 213.68 179.791 216.36 172.311 216.36ZM221.413 194V215.04L202.293 194H192.533V222H199.733V201L218.813 222H228.613V194H221.413ZM265.4 194H231V200.04H244.6V222H251.8V200.04H265.4V194ZM300.487 204.28C300.487 198.04 296.127 194 289.767 194H267.767V222H274.967V214.52H286.567L291.087 222H299.567L294.407 213.68C298.167 212.2 300.487 208.84 300.487 204.28ZM274.967 200.04H287.767C289.927 200.04 293.287 200.04 293.287 204.28C293.287 208.48 289.927 208.48 287.767 208.48H274.967V200.04ZM331.758 222H339.718L325.238 194H315.518L301.078 222H308.998L311.998 216.04H328.758L331.758 222ZM314.678 210.68L320.398 199.32L326.078 210.68H314.678ZM337.836 207.96C337.836 217.28 343.116 222.4 355.436 222.4C366.596 222.4 372.196 218.12 372.916 210H365.596C364.916 214.56 361.396 216.36 355.436 216.36C348.156 216.36 345.036 213.72 345.036 207.96C345.036 202.24 348.116 199.64 355.436 199.64C361.436 199.64 364.916 201.4 365.596 205.92H372.916C372.196 197.84 366.596 193.6 355.436 193.6C343.116 193.6 337.836 198.68 337.836 207.96ZM401.484 222H409.444L394.964 194H385.244L370.804 222H378.724L381.724 216.04H398.484L401.484 222ZM384.404 210.68L390.124 199.32L395.804 210.68H384.404ZM433.165 194H411.165V222H418.365V214.52H433.165C439.525 214.52 443.885 210.52 443.885 204.28C443.885 198.04 439.525 194 433.165 194ZM431.165 208.48H418.365V200.04H431.165C433.325 200.04 436.685 200.04 436.685 204.28C436.685 208.48 433.325 208.48 431.165 208.48ZM470.625 222H478.585L464.105 194H454.385L439.945 222H447.865L450.865 216.04H467.625L470.625 222ZM453.545 210.68L459.265 199.32L464.945 210.68H453.545Z" fill="black"/>
</g>
<defs>
<linearGradient id="paint0_linear" x1="287.5" y1="525.5" x2="298" y2="-18" gradientUnits="userSpaceOnUse">
<stop stop-color="white"/>
<stop offset="1" stop-color="white" stop-opacity="0"/>
</linearGradient>
<clipPath id="clip0">
<rect width="595" height="421" fill="white" transform="translate(595 421) rotate(-180)"/>
</clipPath>
</defs>
</svg>
