<svg width="595" height="421" viewBox="0 0 595 421" fill="none" xmlns="http://www.w3.org/2000/svg">
<g clip-path="url(#clip0)">
<rect width="595" height="421" transform="translate(595 421) rotate(-180)" fill="white"/>
<path d="M575 421L20 421L20 24C20 21.7908 21.7909 20 24 20L571 20C573.209 20 575 21.7909 575 24L575 421Z" fill="#EEEEEE"/>
<path d="M247.102 190H236.102V204H239.702V200.26H247.102C250.282 200.26 252.462 198.26 252.462 195.14C252.462 192.02 250.282 190 247.102 190ZM246.102 197.24H239.702V193.02H246.102C247.182 193.02 248.862 193.02 248.862 195.14C248.862 197.24 247.182 197.24 246.102 197.24ZM264.032 184.4L256.252 186V188.36L264.032 186.76V184.4ZM265.832 204H269.812L262.572 190H257.712L250.492 204H254.452L255.952 201.02H264.332L265.832 204ZM257.292 198.34L260.152 192.66L262.992 198.34H257.292ZM277.531 198.84H282.751C282.671 199.9 281.271 201.42 277.791 201.42C273.131 201.42 272.471 198.78 272.471 197.08C272.471 195.4 273.111 192.82 277.791 192.82C281.591 192.82 282.551 194.4 282.751 195.46H286.411C286.191 191.98 283.391 189.8 277.791 189.8C272.031 189.8 268.871 192.36 268.871 197C268.871 201.64 272.031 204.2 277.191 204.2C280.171 204.2 282.271 203.24 283.591 201.8L283.751 204H286.411V196.5H277.531V198.84ZM291.421 190H287.821V204H291.421V190ZM307.456 190V200.52L297.896 190H293.016V204H296.616V193.5L306.156 204H311.056V190H307.456ZM327.258 204H331.238L323.998 190H319.138L311.918 204H315.878L317.378 201.02H325.758L327.258 204ZM318.718 198.34L321.578 192.66L324.418 198.34H318.718ZM351.163 194.56C348.523 194.56 346.663 195.24 345.583 196.08C345.943 193.24 347.503 192.66 350.343 192.66C352.943 192.66 354.983 193.12 356.963 193.5V190.64C355.263 190.28 352.943 189.8 349.463 189.8C345.343 189.8 341.903 191.54 341.903 197.34C341.903 201.86 344.303 204.2 350.303 204.2C355.243 204.2 357.903 202.56 357.903 199.3C357.903 195.92 355.243 194.56 351.163 194.56ZM349.903 201.34C346.723 201.34 345.503 200.46 345.503 199C345.503 197.52 346.823 196.68 349.903 196.68C353.323 196.68 354.303 197.54 354.303 199C354.303 200.46 353.303 201.34 349.903 201.34Z" fill="#333333"/>
<line y1="420" x2="595" y2="420" stroke="#CCCCCC" stroke-width="2" stroke-dasharray="4 2"/>
</g>
<defs>
<clipPath id="clip0">
<rect width="595" height="421" fill="white" transform="translate(595 421) rotate(-180)"/>
</clipPath>
</defs>
</svg>
