<svg width="128" height="71" viewBox="0 0 128 71" fill="none" xmlns="http://www.w3.org/2000/svg">
<path d="M62.7137 60.6266L62.8593 60.7722V60.481C62.8108 60.5295 62.7622 60.578 62.7137 60.6266Z" fill="#333333"/>
<path d="M58.879 68.4415C60.044 66.6455 61.3546 64.9466 62.7622 63.3933L61.4031 62.0342C59.9954 63.5875 58.6849 65.2864 57.5199 67.0823L58.879 68.4415Z" fill="#333333"/>
<path d="M61.8885 51.3552C60.3838 52.5687 58.9276 53.8308 57.5685 55.1899C57.5199 55.2384 57.4714 55.287 57.4229 55.3355L58.782 56.6946C60.0925 55.384 61.4517 54.1705 62.8593 53.0056V52.326L61.8885 51.3552Z" fill="#333333"/>
<path d="M48.8312 66.9851L50.2874 68.4413C50.9669 67.1308 51.695 65.8687 52.4717 64.6552L51.064 63.2476C50.2388 64.5096 49.5107 65.7231 48.8312 66.9851Z" fill="#333333"/>
<path d="M53.4911 63.0534C54.7046 61.3059 56.0152 59.6556 57.4714 58.1023L56.1122 56.7432C54.656 58.2964 53.3455 59.9468 52.132 61.6942L53.4911 63.0534Z" fill="#333333"/>
<path d="M41.6959 62.5681C40.8707 64.0729 40.1426 65.5776 39.463 67.1309L40.9192 68.5871C41.5988 66.9853 42.3269 65.4805 43.1035 63.9758L41.6959 62.5681Z" fill="#333333"/>
<path d="M44.9966 57.2285C44.1714 58.3935 43.3948 59.607 42.6667 60.869L44.0743 62.2767C44.8024 61.0146 45.5791 59.8011 46.3557 58.6362L44.9966 57.2285Z" fill="#333333"/>
<path d="M55.9181 45.385C54.4133 46.5985 53.0057 47.9091 51.6465 49.2682C51.598 49.3168 51.5495 49.3653 51.5009 49.4138L52.86 50.7729C54.2677 49.3653 55.7724 48.0062 57.3257 46.7441L55.9181 45.385Z" fill="#333333"/>
<path d="M50.1904 50.8213C48.7342 52.3746 47.3751 54.0249 46.113 55.6753L47.5207 57.0829C48.7827 55.384 50.1419 53.7337 51.5495 52.1804L50.1904 50.8213Z" fill="#333333"/>
<path d="M61.84 41.1619C60.3353 42.1327 58.8791 43.152 57.4229 44.2199L58.8305 45.579C60.1411 44.6082 61.5002 43.6374 62.8593 42.8122V42.1812L61.84 41.1619Z" fill="#333333"/>
<path d="M45.4334 43.0551C45.3849 43.1036 45.3363 43.1522 45.2878 43.2007L46.6469 44.5598C48.0546 43.1522 49.5108 41.793 51.064 40.531L49.7049 39.1719C48.2002 40.3854 46.7925 41.696 45.4334 43.0551Z" fill="#333333"/>
<path d="M51.1611 37.9583L52.5203 39.3174C53.9279 38.201 55.3841 37.1817 56.8403 36.2109L55.4327 34.8032C54.025 35.774 52.5688 36.8419 51.1611 37.9583Z" fill="#333333"/>
<path d="M36.2594 54.4619L37.6671 55.8695C38.4437 54.656 39.2203 53.4911 40.0455 52.3261L38.6379 50.9185C37.8612 52.0834 37.036 53.2969 36.2594 54.4619Z" fill="#333333"/>
<path d="M36.6963 57.5685L35.2886 56.1609C34.4149 57.6171 33.6383 59.0733 32.9102 60.578L34.3664 62.0342C35.0459 60.5295 35.8226 59.0247 36.6963 57.5685Z" fill="#333333"/>
<path d="M31.9879 62.4224C31.2598 64.0242 30.6287 65.626 30.0463 67.2278L31.551 68.7326C32.1335 67.0822 32.7645 65.4318 33.4441 63.8786L31.9879 62.4224Z" fill="#333333"/>
<path d="M61.7914 31.0657C60.1896 31.8909 58.6363 32.7646 57.1316 33.7354L58.5393 35.143C59.9469 34.2693 61.4031 33.4441 62.8593 32.716V32.1336L61.7914 31.0657Z" fill="#333333"/>
<path d="M39.8513 49.4136L41.259 50.8213C42.5696 49.1224 43.9287 47.5206 45.3849 45.9673L44.0258 44.6082C42.521 46.1129 41.1134 47.7147 39.8513 49.4136Z" fill="#333333"/>
<path d="M24.2215 61.4032C24.901 59.8499 25.5806 58.2966 26.3572 56.7919L24.901 55.3357C24.1244 56.8404 23.3963 58.3937 22.7167 59.947L24.2215 61.4032Z" fill="#333333"/>
<path d="M58.0539 24.6097C59.5586 23.8331 61.0633 23.0564 62.6166 22.3769L61.1604 20.9207C59.6071 21.6002 58.1024 22.3769 56.5977 23.1535L58.0539 24.6097Z" fill="#333333"/>
<path d="M30.8715 49.074C31.6481 47.909 32.4733 46.7441 33.347 45.6276L31.9393 44.22C31.0656 45.3364 30.2404 46.5013 29.4638 47.6663L30.8715 49.074Z" fill="#333333"/>
<path d="M29.8036 50.7243L28.3959 49.3167C27.5222 50.7243 26.6485 52.132 25.8718 53.5882L27.328 55.0444C28.1047 53.5396 28.9298 52.132 29.8036 50.7243Z" fill="#333333"/>
<path d="M34.5119 44.0742C35.8225 42.4239 37.2302 40.8221 38.6864 39.2688L37.3273 37.9097C35.8711 39.4629 34.4634 41.0648 33.1528 42.6666L34.5119 44.0742Z" fill="#333333"/>
<path d="M39.9969 37.9582C41.4046 36.5505 42.8608 35.1914 44.3655 33.8809L43.0064 32.5217C41.5502 33.7838 40.1426 35.0943 38.7834 36.4535C38.7349 36.502 38.6864 36.5505 38.6378 36.5991L39.9969 37.9582Z" fill="#333333"/>
<path d="M21.6974 68.3444C22.2313 66.6455 22.8138 64.9952 23.4448 63.3448L21.9401 61.8401C21.3091 63.4904 20.678 65.1408 20.1441 66.7912L21.6974 68.3444Z" fill="#333333"/>
<path d="M50.336 26.9396L51.7437 28.3472C53.2484 27.3764 54.7531 26.4542 56.3064 25.5805L54.8502 24.1243C53.2969 24.998 51.7922 25.9202 50.336 26.9396Z" fill="#333333"/>
<path d="M48.7342 28.0076C47.278 29.0269 45.8703 30.0948 44.5112 31.2112L45.9188 32.6189C47.2779 31.5024 48.7342 30.4346 50.1904 29.4152L48.7342 28.0076Z" fill="#333333"/>
<path d="M14.2223 60.8691C14.8533 59.2673 15.4843 57.6654 16.2124 56.0636L14.7562 54.6074C14.4164 55.3355 14.0766 56.1122 13.7369 56.8888C13.3971 57.714 13.0573 58.5392 12.7175 59.4129L14.2223 60.8691Z" fill="#333333"/>
<path d="M39.1232 25.9203C40.4824 24.8039 41.89 23.6875 43.2977 22.6682L41.89 21.2605C40.4824 22.3284 39.0747 23.3963 37.7156 24.5612L39.1232 25.9203Z" fill="#333333"/>
<path d="M11.8437 68.2958C12.3291 66.4512 12.9116 64.6553 13.4941 62.9078L11.9894 61.4031C11.3583 63.1505 10.7759 64.9465 10.2905 66.7425L11.8437 68.2958Z" fill="#333333"/>
<path d="M17.0375 54.2676C17.7656 52.7629 18.5423 51.2581 19.3675 49.8019L17.9598 48.3943C17.1346 49.8505 16.358 51.3552 15.6299 52.86L17.0375 54.2676Z" fill="#333333"/>
<path d="M59.2674 11.407C58.1024 11.8924 56.986 12.4263 55.8696 12.9602L57.3258 14.4164C59.1217 13.5913 60.9177 12.8146 62.8108 12.0865L61.306 10.5818C60.5779 10.8245 59.8984 11.1157 59.2674 11.407Z" fill="#333333"/>
<path d="M55.4813 15.2416L54.0251 13.7854C52.5203 14.562 51.0641 15.3387 49.6079 16.1639L51.0156 17.5715C52.4718 16.7949 53.9765 15.9697 55.4813 15.2416Z" fill="#333333"/>
<path d="M49.3652 18.6394L47.9575 17.2317C46.4528 18.1539 44.9481 19.1247 43.5404 20.1441L44.9481 21.5518C46.3557 20.4839 47.8119 19.5131 49.3652 18.6394Z" fill="#333333"/>
<path d="M31.9879 32.6188L30.5802 31.2112C29.124 32.7645 27.7163 34.3177 26.4058 35.9681L27.8134 37.3758C29.124 35.7254 30.5317 34.1236 31.9879 32.6188Z" fill="#333333"/>
<path d="M24.0758 42.2784C24.901 41.1134 25.7262 39.997 26.5999 38.8806L25.1922 37.4729C24.3185 38.5893 23.4933 39.7057 22.6682 40.8707L24.0758 42.2784Z" fill="#333333"/>
<path d="M37.667 27.1338L36.3079 25.7747C34.8517 27.0367 33.4441 28.3473 32.0849 29.7064C32.0364 29.7549 31.9879 29.8035 31.9393 29.852L33.2984 31.2111C34.7061 29.8035 36.1623 28.4444 37.667 27.1338Z" fill="#333333"/>
<path d="M22.9594 43.8801L21.5518 42.4724C20.6295 43.8315 19.7558 45.2392 18.9306 46.6469L20.3383 48.0545C21.1634 46.6469 22.0372 45.2392 22.9594 43.8801Z" fill="#333333"/>
<path d="M3.15513 62.3253C3.34929 61.6458 3.59199 60.9662 3.83469 60.2867C4.41717 58.5392 5.04819 56.8403 5.72775 55.1414C5.97045 54.5104 6.26169 53.8794 6.50439 53.2484C7.18395 51.6951 7.91205 50.1418 8.64015 48.6371C8.93139 48.0546 9.22263 47.4236 9.56241 46.8411C10.339 45.3849 11.1642 43.9287 11.9894 42.4725C12.3292 41.89 12.669 41.3561 13.0087 40.7736C13.8825 39.3659 14.7562 38.0068 15.727 36.6477C16.1153 36.1137 16.4551 35.5798 16.8434 35.0944C17.6686 33.9294 18.5423 32.813 19.416 31.7451C19.8043 31.2597 20.2412 30.7258 20.6295 30.2404C21.9886 28.6386 23.3963 27.0368 24.8525 25.532C25.2894 25.0952 25.7262 24.6098 26.1631 24.1729C27.5707 22.7652 29.0269 21.4061 30.5317 20.047C31.0171 19.6101 31.5025 19.2218 31.9879 18.785C33.347 17.62 34.7061 16.5521 36.1138 15.4842C36.6477 15.0959 37.1331 14.7076 37.6671 14.3193C39.0747 13.2999 40.5309 12.2806 42.0357 11.3583C42.5696 11.0186 43.1521 10.6788 43.686 10.339C45.0937 9.46528 46.5499 8.6401 48.0061 7.86346C48.5886 7.52368 49.171 7.23244 49.7535 6.9412C51.501 6.06748 53.2484 5.19376 55.0444 4.41712C55.6754 4.12588 56.3064 3.88318 56.9374 3.59194C58.9761 2.76676 61.0633 1.99012 63.1991 1.31056V0.242676C46.9867 5.53354 32.4733 15.1445 21.212 28.0561C11.0186 39.7542 3.88323 53.7338 0.43689 68.7812H1.40769C1.89309 66.5969 2.47557 64.4126 3.15513 62.3253Z" fill="#333333"/>
<path d="M57.7141 4.27144C59.413 3.59188 61.1604 2.96086 62.9078 2.37838V9.46522L63.2476 9.805V1.26196C61.1119 1.94152 59.0732 2.71816 56.986 3.54334L57.7141 4.27144Z" fill="#333333"/>
<path d="M62.8593 29.4152L63.1991 29.755V22.9594L62.8593 22.6196V29.4152Z" fill="#333333"/>
<path d="M62.8593 60.4808C62.9564 60.3837 63.102 60.2866 63.1991 60.141V52.7144C63.102 52.8114 62.9564 52.9085 62.8593 52.9571V60.4808Z" fill="#333333"/>
<path d="M62.8593 68.7811H63.1991V63.83L62.8593 63.4902V68.7811Z" fill="#333333"/>
<path d="M62.8593 39.463L63.1991 39.8027V32.5217C63.102 32.5703 62.9564 32.6188 62.8593 32.6674V39.463Z" fill="#333333"/>
<path d="M62.8593 49.6564L63.1991 49.9962V42.5696C63.102 42.6181 62.9564 42.7152 62.8593 42.7637V49.6564Z" fill="#333333"/>
<path d="M16.358 37.2787L15.727 36.6477C14.8047 38.0068 13.8824 39.3659 13.0087 40.7251L13.6397 41.3561C14.5135 39.997 15.4357 38.6378 16.358 37.2787Z" fill="#333333"/>
<path d="M17.4744 35.6768C18.2996 34.5119 19.1733 33.3954 20.047 32.3276L19.416 31.6965C18.5423 32.813 17.6686 33.9294 16.8434 35.0458L17.4744 35.6768Z" fill="#333333"/>
<path d="M12.6204 43.0548L11.9894 42.4238C11.1642 43.8315 10.339 45.2877 9.56238 46.7924L10.2419 47.472C11.0186 45.9672 11.7952 44.511 12.6204 43.0548Z" fill="#333333"/>
<path d="M26.7941 24.7555C28.2018 23.3478 29.658 21.9887 31.1627 20.6781L30.5317 20.0471C29.0269 21.3577 27.5707 22.7168 26.1631 24.173L26.7941 24.7555Z" fill="#333333"/>
<path d="M25.4835 26.1144L24.8525 25.4834C23.3963 26.9881 21.9886 28.59 20.6295 30.1918L21.2605 30.8228C22.6197 29.221 23.9788 27.6192 25.4835 26.1144Z" fill="#333333"/>
<path d="M9.31972 49.2196L8.64015 48.54C7.86351 50.0448 7.18395 51.5981 6.50439 53.1513L7.18395 53.8309C7.86351 52.3262 8.59161 50.7729 9.31972 49.2196Z" fill="#333333"/>
<path d="M62.8593 19.9499L63.0049 20.0956C63.0535 20.047 63.1506 20.047 63.1991 19.9985V12.4748L62.8593 12.135V19.9499Z" fill="#333333"/>
<path d="M6.45582 55.8211L5.72772 55.093C5.04816 56.7919 4.41714 58.4908 3.83466 60.2383L4.56276 60.9664C5.14524 59.2675 5.77626 57.52 6.45582 55.8211Z" fill="#333333"/>
<path d="M2.37845 68.7813C2.81531 66.8397 3.34925 64.9466 3.93173 63.0535L3.15509 62.3254C2.47553 64.4612 1.89305 66.597 1.40765 68.7813H2.37845Z" fill="#333333"/>
<path d="M55.7724 5.09675L55.0929 4.36865C53.2969 5.14529 51.5494 5.97047 49.802 6.89273L50.4816 7.57229C52.229 6.69857 53.9764 5.87339 55.7724 5.09675Z" fill="#333333"/>
<path d="M48.6857 8.4945L48.0061 7.81494C46.5499 8.59158 45.0937 9.41676 43.686 10.2905L44.3656 10.97C45.7733 10.0963 47.2295 9.27114 48.6857 8.4945Z" fill="#333333"/>
<path d="M42.7152 11.9894L42.0357 11.3584C40.5309 12.3292 39.0747 13.3 37.6671 14.3193L38.2981 14.9504C39.7543 13.931 41.2105 12.9117 42.7152 11.9894Z" fill="#333333"/>
<path d="M36.7448 16.0668L36.1138 15.4358C34.7061 16.5037 33.2984 17.6201 31.9879 18.7365L32.6189 19.3675C33.978 18.2511 35.3371 17.1347 36.7448 16.0668Z" fill="#333333"/>
<path d="M62.8593 60.7721L63.1991 61.1119V60.1411C63.102 60.2382 62.9564 60.3353 62.8593 60.4809V60.7721Z" fill="#333333"/>
<path d="M62.8593 53.0543C62.9564 52.9572 63.102 52.8602 63.1991 52.8116V52.7145L62.8593 52.3748V53.0543Z" fill="#333333"/>
<path d="M62.8593 42.8124C62.9564 42.7639 63.102 42.6668 63.1991 42.6183V42.5212L62.8593 42.1814V42.8124Z" fill="#333333"/>
<path d="M62.8593 32.716C62.9564 32.6675 63.102 32.6189 63.1991 32.5704V32.4733L62.8593 32.1335V32.716Z" fill="#333333"/>
<path d="M63.199 20.2898V19.9985C63.1505 20.0471 63.0534 20.0471 63.0049 20.0956L63.199 20.2898Z" fill="#333333"/>
<path d="M62.8593 12.1835V12.0378C62.8107 12.0378 62.7622 12.0864 62.7622 12.0864L62.8593 12.1835Z" fill="#333333"/>
<path d="M61.2575 10.5817C61.7914 10.3875 62.3253 10.1448 62.8593 9.95066V9.46526L57.714 4.27148C57.083 4.51418 56.452 4.80542 55.821 5.04812L61.2575 10.5817Z" fill="#333333"/>
<path d="M62.7623 12.0379C62.8108 12.0379 62.8593 11.9894 62.8593 11.9894V9.95068C62.3254 10.1448 61.7914 10.339 61.2575 10.5817L62.7623 12.0379Z" fill="#333333"/>
<path d="M62.8593 12.1836L63.1991 12.5234V11.8923C63.102 11.9409 62.9564 11.9894 62.8593 12.038V12.1836Z" fill="#333333"/>
<path d="M57.7141 4.27156L56.986 3.54346C56.3549 3.78616 55.7239 4.0774 55.0929 4.36864L55.821 5.09674C56.4035 4.8055 57.0345 4.5628 57.7141 4.27156Z" fill="#333333"/>
<path d="M63.1991 9.80511L62.8593 9.46533V9.95073C63.0049 9.90219 63.102 9.85365 63.1991 9.80511Z" fill="#333333"/>
<path d="M62.8593 11.9892C62.9564 11.9407 63.102 11.8922 63.1991 11.8436V9.80493C63.102 9.85347 62.9564 9.90201 62.8593 9.95055V11.9892Z" fill="#333333"/>
<path d="M57.2772 14.3679C56.6462 14.6592 56.0637 14.9504 55.4327 15.2416L61.1119 20.8723C61.6943 20.6296 62.2768 20.3383 62.8593 20.0956V19.9015L57.2772 14.3679Z" fill="#333333"/>
<path d="M55.821 12.9117L50.4816 7.57227C49.8991 7.86351 49.2681 8.20329 48.6856 8.49453L54.025 13.8339C54.656 13.4941 55.2385 13.2029 55.821 12.9117Z" fill="#333333"/>
<path d="M62.6166 22.3771L62.8593 22.6198V22.2314C62.8107 22.28 62.7137 22.3285 62.6166 22.3771Z" fill="#333333"/>
<path d="M61.1119 20.9207L62.5681 22.3769C62.6652 22.3283 62.7622 22.2798 62.8108 22.2798V20.144C62.2768 20.3867 61.6944 20.6294 61.1119 20.9207Z" fill="#333333"/>
<path d="M57.2772 14.3678L55.821 12.9116C55.19 13.2029 54.6075 13.4941 54.025 13.7853L55.4812 15.2415C56.0637 14.9503 56.6947 14.6591 57.2772 14.3678Z" fill="#333333"/>
<path d="M62.8593 22.6196L63.1991 22.9594V22.0857C63.102 22.1342 62.9564 22.1828 62.8593 22.2313V22.6196Z" fill="#333333"/>
<path d="M50.4816 7.57214L49.802 6.89258C49.2195 7.18382 48.637 7.5236 48.0546 7.81484L48.7341 8.4944C49.3166 8.15462 49.8991 7.86338 50.4816 7.57214Z" fill="#333333"/>
<path d="M63.0049 20.0956L62.8593 19.95V20.1441C62.9079 20.0956 62.9564 20.0956 63.0049 20.0956Z" fill="#333333"/>
<path d="M62.8593 20.1442V22.28C62.9564 22.2315 63.102 22.1829 63.1991 22.1344V20.2899L63.0049 20.0957C62.9564 20.0957 62.9079 20.0957 62.8593 20.1442Z" fill="#333333"/>
<path d="M47.909 17.1831C48.4915 16.8433 49.0254 16.5035 49.6079 16.1638L44.3656 10.97C43.7831 11.3098 43.2491 11.6495 42.7152 11.9893L47.909 17.1831Z" fill="#333333"/>
<path d="M54.8502 24.1245C55.4327 23.7847 56.0152 23.4935 56.5976 23.1537L51.0641 17.6201C50.4816 17.9599 49.9477 18.2997 49.3652 18.6395L54.8502 24.1245Z" fill="#333333"/>
<path d="M58.0538 24.6096C57.4714 24.9009 56.8889 25.2406 56.3064 25.5804L61.7914 31.0654C62.1312 30.8713 62.5195 30.7257 62.8593 30.5315V29.4151L58.0538 24.6096Z" fill="#333333"/>
<path d="M62.8593 32.1336V30.5317C62.5195 30.7259 62.1312 30.8715 61.7914 31.0657L62.8593 32.1336Z" fill="#333333"/>
<path d="M54.8502 24.1244L56.3064 25.5806C56.8888 25.2408 57.4713 24.9495 58.0538 24.6098L56.5976 23.1536C56.0151 23.4448 55.4326 23.7846 54.8502 24.1244Z" fill="#333333"/>
<path d="M51.0641 17.6201L49.6564 16.2124C49.0739 16.5522 48.54 16.892 47.9575 17.2317L49.3652 18.6394C49.8991 18.2996 50.4816 17.9598 51.0641 17.6201Z" fill="#333333"/>
<path d="M44.3656 10.9701L43.686 10.2905C43.1521 10.6303 42.5696 10.9701 42.0356 11.3099L42.7152 11.9409C43.2491 11.6496 43.8316 11.2613 44.3656 10.9701Z" fill="#333333"/>
<path d="M62.8593 29.4153V30.5317C62.9564 30.4832 63.102 30.4346 63.1991 30.3861V29.8036L62.8593 29.4153Z" fill="#333333"/>
<path d="M62.8593 32.1334L63.1991 32.4732V30.386C63.102 30.4345 62.9564 30.4831 62.8593 30.5316V32.1334Z" fill="#333333"/>
<path d="M58.5393 35.1431C58.0053 35.4828 57.4229 35.8226 56.8889 36.2109L61.84 41.162C62.1798 40.9679 62.5196 40.7252 62.8593 40.531V39.5117L58.5393 35.1431Z" fill="#333333"/>
<path d="M51.7436 28.3474C51.2097 28.6872 50.6757 29.0755 50.1418 29.4638L55.5297 34.8032C56.0637 34.4634 56.5976 34.0751 57.1801 33.7354L51.7436 28.3474Z" fill="#333333"/>
<path d="M41.9385 21.2604C42.4725 20.8721 42.9579 20.4838 43.4918 20.144L38.298 14.9502C37.7641 15.3385 37.2302 15.7268 36.7448 16.1152L41.9385 21.2604Z" fill="#333333"/>
<path d="M48.7341 28.0075C49.2681 27.6192 49.802 27.2794 50.3359 26.8911L44.8995 21.5032C44.3655 21.8915 43.8316 22.2313 43.3462 22.6196L48.7341 28.0075Z" fill="#333333"/>
<path d="M61.84 41.162L62.8593 42.1814V40.531C62.5195 40.7252 62.1797 40.9193 61.84 41.162Z" fill="#333333"/>
<path d="M56.8889 36.2109C57.4228 35.8711 58.0053 35.4828 58.5392 35.143L57.1316 33.7354C56.5976 34.0751 56.0151 34.4149 55.4812 34.8032L56.8889 36.2109Z" fill="#333333"/>
<path d="M48.7341 28.0075L50.1418 29.4152C50.6757 29.0269 51.2097 28.6871 51.7436 28.2988L50.3359 26.8911C49.7535 27.2794 49.2195 27.6678 48.7341 28.0075Z" fill="#333333"/>
<path d="M44.8995 21.5034L43.4918 20.0957C42.9579 20.484 42.4239 20.8238 41.9385 21.2121L43.3462 22.6198C43.8316 22.2315 44.3655 21.8917 44.8995 21.5034Z" fill="#333333"/>
<path d="M62.8593 40.531C62.9564 40.4825 63.102 40.3854 63.1991 40.3369V39.8029L62.8593 39.4631V40.531Z" fill="#333333"/>
<path d="M38.2981 14.9504L37.667 14.3193C37.1331 14.7077 36.6477 15.096 36.1138 15.4843L36.7448 16.1153C37.2787 15.6785 37.8127 15.3387 38.2981 14.9504Z" fill="#333333"/>
<path d="M62.8593 42.1812L63.1991 42.521V40.3367C63.102 40.3852 62.9564 40.4823 62.8593 40.5308V42.1812Z" fill="#333333"/>
<path d="M58.8305 45.5791C58.2965 45.9674 57.8111 46.3557 57.3257 46.7441L61.8885 51.3068C62.2283 51.0641 62.5681 50.7729 62.8593 50.5302V49.5594L58.8305 45.5791Z" fill="#333333"/>
<path d="M52.5688 39.3174C52.0834 39.7057 51.5495 40.094 51.0641 40.5309L55.9181 45.3849C56.4035 44.9966 56.9374 44.5597 57.4228 44.1714L52.5688 39.3174Z" fill="#333333"/>
<path d="M45.8703 32.6189C45.3849 33.0072 44.8995 33.4441 44.4141 33.8324L49.7049 39.1233C50.1903 38.7349 50.6757 38.2981 51.2097 37.9098L45.8703 32.6189Z" fill="#333333"/>
<path d="M36.3079 25.7747C36.7933 25.3378 37.2787 24.9495 37.7641 24.5127L32.6189 19.3674C32.1335 19.7558 31.6481 20.1926 31.1627 20.6295L36.3079 25.7747Z" fill="#333333"/>
<path d="M43.0065 32.4733C43.4919 32.0364 43.9773 31.6481 44.4627 31.2598L39.1233 25.9204C38.6379 26.3087 38.1525 26.7456 37.6671 27.1824L43.0065 32.4733Z" fill="#333333"/>
<path d="M61.8885 51.3553L62.8593 52.3261V50.5786C62.5681 50.8213 62.2283 51.064 61.8885 51.3553Z" fill="#333333"/>
<path d="M55.9181 45.3849L57.2772 46.744C57.7626 46.3557 58.2966 45.9674 58.782 45.579L57.3743 44.1714C56.9374 44.6082 56.452 44.9966 55.9181 45.3849Z" fill="#333333"/>
<path d="M51.0641 40.5309C51.5495 40.1426 52.0349 39.7057 52.5688 39.3174L51.2097 37.9583C50.7243 38.3466 50.1904 38.7834 49.705 39.1718L51.0641 40.5309Z" fill="#333333"/>
<path d="M44.4141 33.8809C44.8995 33.4441 45.3849 33.0557 45.8703 32.6674L44.4626 31.2598C43.9772 31.6481 43.4918 32.0849 43.0064 32.4733L44.4141 33.8809Z" fill="#333333"/>
<path d="M39.1233 25.9204L37.7156 24.5613C37.2302 24.9496 36.7448 25.3865 36.2594 25.8233L37.6185 27.1824C38.1525 26.7456 38.6379 26.3087 39.1233 25.9204Z" fill="#333333"/>
<path d="M32.6188 19.3673L31.9878 18.7363C31.5024 19.1732 31.017 19.5615 30.5316 19.9984L31.1626 20.6294C31.648 20.1925 32.1334 19.8042 32.6188 19.3673Z" fill="#333333"/>
<path d="M62.8593 50.5787C62.9564 50.4816 63.102 50.4331 63.1991 50.336V49.9477L62.8593 49.6079V50.5787Z" fill="#333333"/>
<path d="M62.8593 52.3261L63.1991 52.6659V50.3359C63.102 50.433 62.9564 50.4816 62.8593 50.5786V52.3261Z" fill="#333333"/>
<path d="M37.2787 37.9097C37.7156 37.4728 38.1525 36.9874 38.5893 36.5506L33.2499 31.2112C32.813 31.648 32.3762 32.1334 31.9393 32.5703L37.2787 37.9097Z" fill="#333333"/>
<path d="M57.4714 58.1025L61.4031 62.0342C61.84 61.5488 62.2768 61.112 62.7137 60.6266L58.782 56.6948C58.3451 57.1317 57.9082 57.6171 57.4714 58.1025Z" fill="#333333"/>
<path d="M30.5802 31.2112C31.017 30.7743 31.4539 30.2889 31.8908 29.8521L26.7941 24.7554C26.3572 25.1922 25.9203 25.6776 25.4349 26.1145L30.5802 31.2112Z" fill="#333333"/>
<path d="M52.8601 50.7729C52.4232 51.2098 51.9864 51.6952 51.5495 52.1321L56.1123 56.6948C56.5491 56.2094 56.986 55.7726 57.4228 55.3357L52.8601 50.7729Z" fill="#333333"/>
<path d="M39.997 37.9583C39.5601 38.3951 39.1233 38.8805 38.6864 39.3174L43.9773 44.6082C44.4141 44.1228 44.851 43.686 45.2878 43.2491L39.997 37.9583Z" fill="#333333"/>
<path d="M46.6469 44.5598C46.2101 44.9967 45.7732 45.4821 45.3364 45.9189L50.1904 50.7729C50.6272 50.2875 51.0641 49.8507 51.5009 49.4138L46.6469 44.5598Z" fill="#333333"/>
<path d="M62.8593 63.4903V63.2476C62.8107 63.2961 62.8107 63.3446 62.7622 63.3446L62.8593 63.4903Z" fill="#333333"/>
<path d="M61.4031 62.0342L62.7623 63.3933C62.8108 63.3448 62.8108 63.2962 62.8593 63.2962V60.8207L62.7137 60.675C62.2769 61.1119 61.84 61.5488 61.4031 62.0342Z" fill="#333333"/>
<path d="M56.1122 56.6948L57.4714 58.0539C57.9082 57.5685 58.3451 57.1317 58.7819 56.6948L57.4228 55.3357C56.986 55.7726 56.5491 56.258 56.1122 56.6948Z" fill="#333333"/>
<path d="M51.5495 52.1804C51.9863 51.695 52.4232 51.2581 52.8601 50.8213L51.5009 49.4622C51.0641 49.899 50.6272 50.3844 50.1904 50.8213L51.5495 52.1804Z" fill="#333333"/>
<path d="M43.9772 44.5598L45.3364 45.9189C45.7732 45.4335 46.2101 44.9967 46.6469 44.5598L45.2878 43.2007C44.851 43.6375 44.3656 44.1229 43.9772 44.5598Z" fill="#333333"/>
<path d="M38.6864 39.3174C39.1232 38.832 39.5601 38.3951 39.997 37.9582L38.6378 36.5991C38.201 37.036 37.7641 37.5214 37.3273 37.9582L38.6864 39.3174Z" fill="#333333"/>
<path d="M31.9878 32.6189C32.4247 32.182 32.8616 31.6966 33.2984 31.2598L31.9393 29.9006C31.5024 30.3375 31.0656 30.8229 30.6287 31.2598L31.9878 32.6189Z" fill="#333333"/>
<path d="M62.8593 63.4904L63.1991 63.8302V62.908C63.102 63.005 62.9564 63.1507 62.8593 63.2477V63.4904Z" fill="#333333"/>
<path d="M26.7941 24.7553L26.1631 24.1243C25.7262 24.5611 25.2893 25.0465 24.8525 25.4834L25.4835 26.1144C25.9204 25.629 26.3572 25.1921 26.7941 24.7553Z" fill="#333333"/>
<path d="M62.8593 63.2475C62.9564 63.1504 63.102 63.0048 63.1991 62.9077V61.1118L62.8593 60.772V63.2475Z" fill="#333333"/>
<path d="M46.4042 58.6362L51.0155 63.2475C51.3553 62.7136 51.7436 62.1797 52.0834 61.6457L47.4721 57.0344C47.1323 57.5684 46.744 58.1023 46.4042 58.6362Z" fill="#333333"/>
<path d="M56.4521 68.7327C56.7918 68.1502 57.1316 67.6162 57.4714 67.0823L53.4426 63.0535C53.0543 63.5874 52.7145 64.1213 52.3747 64.6553L56.4521 68.7327Z" fill="#333333"/>
<path d="M25.1922 37.4727C25.5806 36.9873 25.9689 36.4534 26.4057 35.968L21.2605 30.8228C20.8722 31.3082 20.4353 31.7936 20.047 32.3275L25.1922 37.4727Z" fill="#333333"/>
<path d="M41.2104 50.7729C40.8221 51.3069 40.4338 51.7923 40.0455 52.3262L44.948 57.2288C45.3363 56.6948 45.6761 56.1609 46.0644 55.6755L41.2104 50.7729Z" fill="#333333"/>
<path d="M31.9393 44.2199C32.3277 43.7345 32.716 43.2005 33.1043 42.7151L27.7649 37.3757C27.3766 37.8611 26.9397 38.3951 26.5514 38.8805L31.9393 44.2199Z" fill="#333333"/>
<path d="M59.2188 68.7812L58.879 68.4414C58.8305 68.5385 58.7334 68.6356 58.6849 68.7812H59.2188Z" fill="#333333"/>
<path d="M38.6864 50.9671C39.0747 50.4332 39.463 49.9478 39.8513 49.4139L34.5119 44.0745C34.1236 44.5599 33.7353 45.0938 33.347 45.5792L38.6864 50.9671Z" fill="#333333"/>
<path d="M57.5199 67.0823C57.1801 67.6162 56.7918 68.1987 56.5005 68.7326L56.5491 68.7812H58.7334C58.7819 68.6841 58.879 68.587 58.9275 68.4414L57.5199 67.0823Z" fill="#333333"/>
<path d="M52.0834 61.6458C51.6951 62.1797 51.3553 62.7136 51.0155 63.2476L52.4232 64.6552C52.7629 64.1213 53.1513 63.5873 53.491 63.0534L52.0834 61.6458Z" fill="#333333"/>
<path d="M46.4042 58.6364C46.7926 58.1025 47.1323 57.5686 47.5207 57.0346L46.113 55.627C45.7247 56.1609 45.3364 56.6463 44.9966 57.1802L46.4042 58.6364Z" fill="#333333"/>
<path d="M38.6864 50.9671L40.0941 52.3748C40.4824 51.8408 40.8707 51.3554 41.259 50.8215L39.8514 49.4138C39.463 49.8992 39.0747 50.4332 38.6864 50.9671Z" fill="#333333"/>
<path d="M33.347 45.6275C33.7353 45.0935 34.1236 44.6081 34.5119 44.1227L33.1528 42.7151C32.7645 43.2005 32.3762 43.7344 31.9879 44.2198L33.347 45.6275Z" fill="#333333"/>
<path d="M27.7649 37.3759L26.3572 35.9683C25.9689 36.4537 25.5321 36.9391 25.1437 37.473L26.5514 38.8807C26.9883 38.3467 27.3766 37.8613 27.7649 37.3759Z" fill="#333333"/>
<path d="M21.2605 30.8229L20.6295 30.1919C20.2412 30.6773 19.8043 31.1627 19.416 31.6966L20.047 32.3277C20.4354 31.7937 20.8237 31.3083 21.2605 30.8229Z" fill="#333333"/>
<path d="M14.7562 54.6561C15.0474 54.0251 15.3387 53.4426 15.6299 52.8116L10.242 47.4722C9.95072 48.0546 9.61094 48.6857 9.3197 49.2681L14.7562 54.6561Z" fill="#333333"/>
<path d="M21.9401 61.8401C22.1828 61.209 22.474 60.578 22.7167 59.947L17.0375 54.2678C16.7463 54.8988 16.4551 55.4813 16.1638 56.1123L21.9401 61.8401Z" fill="#333333"/>
<path d="M30.0463 67.2279L24.2215 61.4031C23.9302 62.0341 23.6875 62.6651 23.4448 63.3447L28.8813 68.7812H29.5123C29.6579 68.2472 29.8521 67.7133 30.0463 67.2279Z" fill="#333333"/>
<path d="M30.8714 70.7714C30.8714 70.7229 30.8714 70.6743 30.92 70.6743H30.7744L30.8714 70.7714Z" fill="#333333"/>
<path d="M30.0463 67.228C29.8521 67.7134 29.7065 68.2474 29.5123 68.7813H31.551L30.0463 67.228Z" fill="#333333"/>
<path d="M23.4449 63.3448C23.6876 62.7138 23.9303 62.0827 24.2215 61.4032L22.7168 59.8984C22.4255 60.5295 22.1828 61.1605 21.9401 61.7915L23.4449 63.3448Z" fill="#333333"/>
<path d="M16.2124 56.1122C16.5036 55.4812 16.7948 54.8987 17.0861 54.2677L15.6299 52.8115C15.3386 53.4425 15.0474 54.025 14.7562 54.656L16.2124 56.1122Z" fill="#333333"/>
<path d="M9.3197 49.2197C9.61094 48.6372 9.90218 48.0062 10.242 47.4237L9.5624 46.7441C9.27116 47.3266 8.93138 47.9091 8.64014 48.5401L9.3197 49.2197Z" fill="#333333"/>
<path d="M19.416 68.7812H19.5616C19.7558 68.1502 19.95 67.4706 20.1441 66.8396L14.2222 60.9177C13.9795 61.5973 13.7368 62.2283 13.4941 62.9079L19.416 68.7812Z" fill="#333333"/>
<path d="M11.9894 61.3546C12.2321 60.675 12.4748 60.044 12.7175 59.3644L7.23245 53.8794C6.94121 54.5104 6.69851 55.1414 6.45581 55.7725L11.9894 61.3546Z" fill="#333333"/>
<path d="M21.6003 68.7811H22.1342L21.7459 68.3928C21.6488 68.4899 21.6003 68.6355 21.6003 68.7811Z" fill="#333333"/>
<path d="M20.1441 66.791C19.9499 67.422 19.7557 68.1016 19.5616 68.7326H21.6003C21.6488 68.587 21.6973 68.4414 21.6973 68.3443L20.1441 66.791Z" fill="#333333"/>
<path d="M13.4941 62.8594C13.7368 62.1798 13.9795 61.5488 14.2222 60.8692L12.7175 59.3645C12.4748 59.9955 12.2321 60.6751 11.9894 61.3546L13.4941 62.8594Z" fill="#333333"/>
<path d="M7.23245 53.8793L6.55289 53.1997C6.26165 53.8307 6.01895 54.4617 5.77625 55.0928L6.50435 55.8209C6.69851 55.1413 6.94121 54.5103 7.23245 53.8793Z" fill="#333333"/>
<path d="M9.61088 68.7813H9.70796C9.90212 68.1017 10.0477 67.4222 10.2419 66.7426L4.56272 61.0149C4.32002 61.6945 4.12586 62.374 3.9317 63.0536L9.61088 68.7813Z" fill="#333333"/>
<path d="M11.8437 68.2957C11.7952 68.4413 11.7467 68.6354 11.6981 68.7811H12.2806L11.8437 68.2957Z" fill="#333333"/>
<path d="M11.8438 68.2957L10.2905 66.7424C10.0963 67.422 9.90215 68.1016 9.75653 68.7811H11.7467C11.7467 68.587 11.7952 68.4413 11.8438 68.2957Z" fill="#333333"/>
<path d="M3.88321 63.0534C4.07737 62.3738 4.32007 61.6943 4.51423 61.0147L3.78613 60.2866C3.54343 60.9662 3.34927 61.6457 3.10657 62.3253L3.88321 63.0534Z" fill="#333333"/>
<path d="M24.9011 55.3357C25.1923 54.7532 25.5321 54.1707 25.8233 53.5882L20.3383 48.0547C19.9985 48.6372 19.6587 49.2196 19.3675 49.7536L24.9011 55.3357Z" fill="#333333"/>
<path d="M39.463 67.1794L34.3178 62.0342C34.0266 62.6652 33.7353 63.2477 33.4926 63.8787L38.3466 68.7812H38.7835C39.0262 68.2473 39.2203 67.7134 39.463 67.1794Z" fill="#333333"/>
<path d="M17.9113 48.3458C18.2511 47.7633 18.5423 47.1808 18.8821 46.6469L13.6398 41.4045C13.3 41.987 12.9602 42.521 12.6204 43.1034L17.9113 48.3458Z" fill="#333333"/>
<path d="M40.9192 68.7812H41.0648L40.9677 68.6841C40.9192 68.6841 40.9192 68.7326 40.9192 68.7812Z" fill="#333333"/>
<path d="M31.9879 62.4225C32.2791 61.7915 32.5704 61.209 32.8616 60.578L27.2795 55.0444C26.9397 55.6269 26.6485 56.2094 26.3572 56.8404L31.9879 62.4225Z" fill="#333333"/>
<path d="M39.4631 67.1794C39.2204 67.7134 39.0262 68.2473 38.7835 68.7813H40.8707C40.8707 68.7327 40.9193 68.6842 40.9193 68.6842L39.4631 67.1794Z" fill="#333333"/>
<path d="M32.8616 60.5779C32.5703 61.1604 32.2791 61.7914 31.9879 62.4224L33.4441 63.8786C33.7353 63.2476 33.978 62.6166 34.2692 62.0341L32.8616 60.5779Z" fill="#333333"/>
<path d="M27.2795 54.9958L25.8233 53.5396C25.4835 54.122 25.1922 54.7045 24.901 55.287L26.3572 56.7432C26.697 56.2092 26.9882 55.5782 27.2795 54.9958Z" fill="#333333"/>
<path d="M20.3382 48.0546L18.9306 46.647C18.5908 47.2295 18.251 47.7634 17.9598 48.3459L19.3674 49.7535C19.6587 49.2196 19.9985 48.6371 20.3382 48.0546Z" fill="#333333"/>
<path d="M13.6397 41.4047L13.0087 40.7737C12.6689 41.3076 12.3292 41.8901 11.9894 42.4726L12.6204 43.1036C12.9602 42.5211 13.3 41.9386 13.6397 41.4047Z" fill="#333333"/>
<path d="M44.0743 62.2769C43.7345 62.8593 43.4433 63.4418 43.1035 64.0243L47.8604 68.7327H47.909C48.2002 68.1502 48.4915 67.5677 48.7827 66.9852L44.0743 62.2769Z" fill="#333333"/>
<path d="M35.2401 56.1608C35.5798 55.5783 35.9196 55.0444 36.2594 54.4619L30.8715 49.074C30.5317 49.6079 30.1434 50.1419 29.8036 50.7243L35.2401 56.1608Z" fill="#333333"/>
<path d="M50.0933 68.7812H50.5787L50.2389 68.4414C50.1904 68.5385 50.1419 68.6356 50.0933 68.7812Z" fill="#333333"/>
<path d="M37.667 55.8696C37.3273 56.4036 36.9875 56.986 36.6477 57.5685L41.6473 62.5681C41.9871 61.9857 42.2783 61.4032 42.6181 60.8207L37.667 55.8696Z" fill="#333333"/>
<path d="M28.3959 49.3166C28.7357 48.7827 29.124 48.2487 29.4638 47.6663L24.0758 42.2783C23.6875 42.8123 23.3477 43.3462 22.9594 43.8801L28.3959 49.3166Z" fill="#333333"/>
<path d="M21.5518 42.4724C21.8915 41.9384 22.2799 41.4045 22.6682 40.8705L17.4744 35.6768C17.0861 36.2107 16.7463 36.7446 16.358 37.2786L21.5518 42.4724Z" fill="#333333"/>
<path d="M48.8312 66.9851C48.54 67.5676 48.2488 68.1501 47.9575 68.7326H50.1418C50.1904 68.6355 50.2389 68.5384 50.2874 68.3928L48.8312 66.9851Z" fill="#333333"/>
<path d="M42.6667 60.8691C42.3269 61.4516 41.9871 62.0341 41.6959 62.6166L43.1521 64.0728C43.4433 63.4903 43.7831 62.9078 44.1229 62.3253L42.6667 60.8691Z" fill="#333333"/>
<path d="M36.2594 54.4619C35.9196 54.9959 35.5798 55.5783 35.2401 56.1608L36.6477 57.5685C36.9875 56.986 37.3273 56.4521 37.6671 55.8696L36.2594 54.4619Z" fill="#333333"/>
<path d="M29.8036 50.7243C30.1434 50.1903 30.4832 49.6079 30.8715 49.0739L29.4638 47.6663C29.0755 48.2002 28.7357 48.7341 28.3959 49.3166L29.8036 50.7243Z" fill="#333333"/>
<path d="M22.9594 43.8801C23.2992 43.3461 23.6875 42.8122 24.0758 42.2783L22.6682 40.8706C22.2799 41.4045 21.9401 41.9385 21.5518 42.4724L22.9594 43.8801Z" fill="#333333"/>
<path d="M17.4744 35.6769L16.8434 35.0459C16.4551 35.5798 16.0668 36.1138 15.727 36.5992L16.358 37.2302C16.6978 36.7448 17.0861 36.2109 17.4744 35.6769Z" fill="#333333"/>
<path d="M70.6742 67.325C69.4607 65.432 68.1016 63.6845 66.5969 62.0342L65.2377 63.3933C66.7425 65.0437 68.1016 66.8396 69.3151 68.7327L70.6742 67.325Z" fill="#333333"/>
<path d="M65.1407 60.481V60.7722L65.2863 60.6266C65.2378 60.578 65.1892 60.5295 65.1407 60.481Z" fill="#333333"/>
<path d="M76.0622 61.9369C74.8001 60.141 73.3925 58.3935 71.8877 56.7432L70.5286 58.1023C72.0334 59.7526 73.441 61.5001 74.7031 63.3446L76.0622 61.9369Z" fill="#333333"/>
<path d="M69.2181 56.6946L70.5772 55.3355C70.5286 55.287 70.4801 55.2384 70.4316 55.1899C69.0724 53.8308 67.6162 52.5202 66.1115 51.3552L65.1407 52.326V53.0056C66.5483 54.1705 67.9075 55.384 69.2181 56.6946Z" fill="#333333"/>
<path d="M77.7611 68.4414L79.2173 66.9852C78.5863 65.8202 77.9067 64.6552 77.1786 63.5388L75.7709 64.9465C76.4505 66.0629 77.1301 67.2279 77.7611 68.4414Z" fill="#333333"/>
<path d="M85.3333 60.8693C84.6538 59.7529 83.9257 58.6364 83.1976 57.52L81.7899 58.9277C82.518 60.0441 83.2461 61.1605 83.8771 62.3255L85.3333 60.8693Z" fill="#333333"/>
<path d="M86.3041 62.5681L84.8479 64.0243C85.6245 65.5291 86.3526 67.0823 87.0322 68.6356L88.4884 67.1794C87.8574 65.6261 87.1293 64.0729 86.3041 62.5681Z" fill="#333333"/>
<path d="M75.1399 50.7729L76.499 49.4138C76.4505 49.3653 76.402 49.3168 76.3534 49.2682C74.9943 47.9091 73.5381 46.5985 72.0819 45.385L70.7228 46.7441C72.2275 48.0547 73.7323 49.3653 75.1399 50.7729Z" fill="#333333"/>
<path d="M69.1695 45.579L70.5772 44.2199C69.1695 43.152 67.6648 42.0841 66.16 41.1619L65.1407 42.1812V42.8122C66.4998 43.6859 67.8589 44.6082 69.1695 45.579Z" fill="#333333"/>
<path d="M80.6735 57.3258L82.0811 55.9182C80.7706 54.1222 79.3629 52.4233 77.8096 50.7729L76.4505 52.1321C77.9552 53.7824 79.3629 55.5299 80.6735 57.3258Z" fill="#333333"/>
<path d="M69.4608 35.143L70.8684 33.7354C69.3637 32.7646 67.7618 31.8909 66.2086 31.0657L65.1407 32.1336V32.716C66.5969 33.4441 68.0531 34.2693 69.4608 35.143Z" fill="#333333"/>
<path d="M75.4312 39.3174L76.7903 37.9583C75.3826 36.8419 73.975 35.774 72.4702 34.8032L71.0626 36.2109C72.5673 37.1817 74.0235 38.201 75.4312 39.3174Z" fill="#333333"/>
<path d="M96.0121 62.4224L94.5559 63.8786C95.2355 65.4804 95.915 67.0822 96.449 68.7326L97.9537 67.2278C97.3712 65.5775 96.7402 63.9756 96.0121 62.4224Z" fill="#333333"/>
<path d="M86.9837 51.0642L88.3913 49.6565C87.0322 47.9091 85.6246 46.2102 84.0713 44.5598L82.7122 45.9189C84.1684 47.5693 85.6246 49.2682 86.9837 51.0642Z" fill="#333333"/>
<path d="M91.7406 54.4619C91.061 53.3455 90.2844 52.2776 89.5078 51.2097L88.1001 52.6174C88.8767 53.6853 89.6048 54.8017 90.2844 55.9181L91.7406 54.4619Z" fill="#333333"/>
<path d="M95.1384 60.578C94.4103 59.0733 93.5851 57.6171 92.76 56.1609L91.3523 57.5685C92.1775 59.0247 93.0027 60.481 93.7308 62.0342L95.1384 60.578Z" fill="#333333"/>
<path d="M81.3531 44.5598L82.7122 43.2007C82.6636 43.1521 82.6151 43.1036 82.5666 43.055C81.2074 41.6959 79.7512 40.3853 78.295 39.1233L76.9359 40.4824C78.4407 41.793 79.9454 43.1521 81.3531 44.5598Z" fill="#333333"/>
<path d="M98.1964 50.7243C99.0701 52.1319 99.9438 53.5396 100.72 54.9958L102.177 53.5396C101.4 52.0834 100.526 50.6757 99.6526 49.2681L98.1964 50.7243Z" fill="#333333"/>
<path d="M94.8471 45.8703C95.6237 46.9382 96.4004 48.0061 97.1285 49.0739L98.5361 47.6663C97.808 46.5984 97.0314 45.5305 96.2548 44.4626L94.8471 45.8703Z" fill="#333333"/>
<path d="M89.3136 39.3173C90.8183 40.9191 92.2745 42.618 93.6822 44.3655L95.0899 42.9578C93.7307 41.2104 92.2745 39.56 90.7213 37.9097L89.3136 39.3173Z" fill="#333333"/>
<path d="M104.555 63.3448C105.186 64.9952 105.769 66.6455 106.303 68.3444L107.856 66.7912C107.322 65.0923 106.739 63.4419 106.06 61.8401L104.555 63.3448Z" fill="#333333"/>
<path d="M103.779 61.4031L105.283 59.8984C104.604 58.3451 103.876 56.7918 103.099 55.2871L101.643 56.7433C102.371 58.2966 103.099 59.8499 103.779 61.4031Z" fill="#333333"/>
<path d="M66.8396 20.9207L65.3834 22.3769C66.9367 23.0564 68.4414 23.7845 69.9462 24.6097L71.4024 23.1535C69.8976 22.3283 68.3929 21.6002 66.8396 20.9207Z" fill="#333333"/>
<path d="M76.2564 28.3472L77.664 26.9396C76.2078 25.9688 74.6545 24.998 73.1498 24.1243L71.6936 25.5805C73.2469 26.4056 74.8002 27.3764 76.2564 28.3472Z" fill="#333333"/>
<path d="M83.5859 33.8809C85.0906 35.1914 86.5468 36.5505 87.9545 37.9582L89.3136 36.5991C89.2651 36.5505 89.2165 36.502 89.168 36.4535C87.8089 35.0943 86.4012 33.7838 84.945 32.5217L83.5859 33.8809Z" fill="#333333"/>
<path d="M83.5374 31.2598C82.1783 30.1434 80.7221 29.0755 79.3144 28.0562L77.9067 29.4638C79.3629 30.4832 80.7706 31.551 82.1783 32.6675L83.5374 31.2598Z" fill="#333333"/>
<path d="M76.9359 17.6201L78.3436 16.2124C76.8874 15.3873 75.4312 14.5621 73.9264 13.834L72.4702 15.2902C74.0235 15.9697 75.4797 16.7949 76.9359 17.6201Z" fill="#333333"/>
<path d="M65.2377 12.0379C67.0823 12.766 68.9268 13.5427 70.7228 14.3679L72.179 12.9117C71.0625 12.3777 69.9461 11.8438 68.7812 11.3584C68.1016 11.0671 67.422 10.7759 66.7425 10.5332L65.2377 12.0379Z" fill="#333333"/>
<path d="M94.7015 31.2111L96.0607 29.852C96.0121 29.8035 95.9636 29.7549 95.915 29.7064C94.5559 28.3473 93.1483 27.0367 91.6921 25.7747L90.3329 27.1338C91.8377 28.4444 93.2939 29.8035 94.7015 31.2111Z" fill="#333333"/>
<path d="M96.0121 32.6188C97.5168 34.2207 99.0216 35.871 100.381 37.6185L101.788 36.2108C100.381 34.5119 98.9245 32.813 97.3712 31.2112L96.0121 32.6188Z" fill="#333333"/>
<path d="M111.788 56.1122C112.516 57.6654 113.147 59.2673 113.778 60.9176L115.282 59.4129C114.943 58.5877 114.603 57.7625 114.263 56.8888C113.923 56.1122 113.584 55.3841 113.244 54.6074L111.788 56.1122Z" fill="#333333"/>
<path d="M105.041 43.8801C105.963 45.2392 106.837 46.6469 107.662 48.0545L109.069 46.6469C108.244 45.2392 107.37 43.8315 106.448 42.4724L105.041 43.8801Z" fill="#333333"/>
<path d="M88.8767 25.9203L90.2358 24.5612C88.8767 23.4448 87.4691 22.3284 86.0614 21.2605L84.6537 22.6682C86.1099 23.6875 87.5176 24.7554 88.8767 25.9203Z" fill="#333333"/>
<path d="M103.924 42.2783L105.332 40.8707C104.555 39.8028 103.779 38.7349 103.002 37.7156L101.594 39.1232C102.419 40.1426 103.196 41.2105 103.924 42.2783Z" fill="#333333"/>
<path d="M110.962 54.2676L112.419 52.8114C111.691 51.3066 110.914 49.8019 110.089 48.3457L108.681 49.7534C109.458 51.2581 110.234 52.7143 110.962 54.2676Z" fill="#333333"/>
<path d="M83.1005 21.5032L84.5081 20.0955C83.0519 19.0762 81.5957 18.1054 80.091 17.1831L78.6833 18.5908C80.1881 19.513 81.6443 20.4838 83.1005 21.5032Z" fill="#333333"/>
<path d="M114.506 62.8595C115.137 64.6555 115.671 66.4514 116.156 68.2474L117.71 66.6941C117.176 64.8982 116.642 63.1022 116.011 61.3547L114.506 62.8595Z" fill="#333333"/>
<path d="M64.8009 9.80505L65.1407 9.46527V2.37843C66.8881 2.96091 68.6356 3.59193 70.3345 4.32003L71.0626 3.59193C69.0239 2.76675 66.9367 1.99011 64.8009 1.31055V9.80505Z" fill="#333333"/>
<path d="M123.437 61.0147L124.165 60.2866C123.583 58.5392 122.952 56.8403 122.272 55.1414L121.544 55.8695C122.224 57.5198 122.855 59.2673 123.437 61.0147Z" fill="#333333"/>
<path d="M114.36 41.4046L114.991 40.7736C114.118 39.3659 113.244 38.0068 112.273 36.6477L111.642 37.2787C112.564 38.6378 113.486 39.997 114.36 41.4046Z" fill="#333333"/>
<path d="M77.5184 7.57229L78.198 6.89273C76.4505 6.01901 74.7031 5.14529 72.9071 4.36865L72.179 5.09675C74.0235 5.87339 75.771 6.69857 77.5184 7.57229Z" fill="#333333"/>
<path d="M89.6534 14.9504L90.2844 14.3193C88.8768 13.3 87.4206 12.2807 85.9158 11.3584L85.2363 11.9894C86.7895 12.9117 88.2457 13.931 89.6534 14.9504Z" fill="#333333"/>
<path d="M124.068 63.0535C124.651 64.9466 125.136 66.8397 125.622 68.7813H126.592C126.107 66.597 125.476 64.4612 124.845 62.3254L124.068 63.0535Z" fill="#333333"/>
<path d="M83.6344 10.97L84.314 10.2905C82.9063 9.41676 81.4501 8.59158 79.9939 7.81494L79.3143 8.4945C80.7705 9.27114 82.2267 10.0963 83.6344 10.97Z" fill="#333333"/>
<path d="M101.206 24.7555L101.837 24.1244C100.429 22.7168 98.973 21.3577 97.4683 19.9985L96.8373 20.6296C98.342 21.9401 99.7982 23.3478 101.206 24.7555Z" fill="#333333"/>
<path d="M65.1407 29.4152V22.6196L64.8009 22.9594V29.755L65.1407 29.4152Z" fill="#333333"/>
<path d="M106.934 31.0655L107.565 30.4345C106.157 28.7356 104.652 27.0852 103.148 25.4834L102.516 26.1144C104.07 27.7162 105.526 29.3666 106.934 31.0655Z" fill="#333333"/>
<path d="M65.1407 19.95V12.1836L64.8009 12.5234V19.9985C64.8494 20.0471 64.9465 20.0471 64.9951 20.0956L65.1407 19.95Z" fill="#333333"/>
<path d="M117.758 47.4236L118.438 46.7441C117.661 45.2879 116.836 43.8317 116.011 42.3755L115.38 43.0065C116.205 44.5112 116.981 45.9674 117.758 47.4236Z" fill="#333333"/>
<path d="M118.68 49.2196C119.408 50.7244 120.136 52.2777 120.816 53.8795L121.496 53.1999C120.816 51.6466 120.088 50.0934 119.36 48.5886L118.68 49.2196Z" fill="#333333"/>
<path d="M110.526 35.6768L111.157 35.0458C110.38 33.9779 109.603 32.9585 108.778 31.9392L108.147 32.5702C108.972 33.5896 109.749 34.6089 110.526 35.6768Z" fill="#333333"/>
<path d="M71.014 3.5434C71.645 3.7861 72.2761 4.07734 72.9071 4.36858C74.7031 5.14522 76.4505 5.9704 78.1979 6.89266C78.7804 7.1839 79.3629 7.52368 79.9454 7.81492C81.4016 8.59156 82.8578 9.41674 84.2654 10.2905C84.7994 10.6302 85.3819 10.97 85.9158 11.3098C87.4205 12.2806 88.8767 13.2514 90.2844 14.2707C90.8183 14.6591 91.3037 15.0474 91.8377 15.4357C93.2453 16.5036 94.653 17.62 95.9636 18.7364C96.449 19.1733 96.9344 19.5616 97.4198 19.9985C98.9245 21.309 100.381 22.6682 101.788 24.1244C102.225 24.5612 102.662 25.0466 103.099 25.4835C104.652 27.0853 106.108 28.7357 107.516 30.4346C107.904 30.92 108.341 31.4054 108.73 31.9393C109.555 32.9586 110.331 33.978 111.108 35.0459C111.496 35.5798 111.885 36.1137 112.224 36.5991C113.147 37.9583 114.069 39.3174 114.943 40.725C115.283 41.259 115.622 41.8415 115.962 42.4239C116.787 43.8316 117.612 45.2878 118.389 46.7925C118.68 47.375 119.02 47.9575 119.311 48.5885C120.088 50.0933 120.768 51.6465 121.447 53.1998C121.738 53.8308 121.981 54.4619 122.224 55.0929C122.903 56.7918 123.534 58.4907 124.117 60.2381C124.359 60.9177 124.554 61.5972 124.796 62.2768C125.476 64.4126 126.058 66.5483 126.544 68.7326H127.515C124.117 53.7338 116.981 39.8028 106.788 28.0561C95.5267 15.1445 81.0133 5.53354 64.8009 0.242676V1.26202C66.8881 1.94158 68.9753 2.71822 71.014 3.5434Z" fill="#333333"/>
<path d="M65.1407 63.4902L64.8009 63.83V68.7811H65.1407V63.4902Z" fill="#333333"/>
<path d="M95.3811 19.3675L96.0121 18.7365C94.653 17.5716 93.2939 16.5037 91.8862 15.4358L91.2552 16.0668C92.6628 17.1347 94.022 18.2511 95.3811 19.3675Z" fill="#333333"/>
<path d="M65.1407 53.0542C65.0436 52.9571 64.898 52.8601 64.8009 52.8115V60.1896C64.898 60.2867 65.0436 60.3838 65.1407 60.5294V53.0542Z" fill="#333333"/>
<path d="M65.1407 32.7159C65.0436 32.6674 64.898 32.6189 64.8009 32.5703V39.8513L65.1407 39.5115V32.7159Z" fill="#333333"/>
<path d="M65.1407 42.8123C65.0436 42.7638 64.898 42.6667 64.8009 42.6182V49.9962L65.1407 49.6565V42.8123Z" fill="#333333"/>
<path d="M63.1991 0.2427V1.26204C63.3933 1.2135 63.636 1.11642 63.8301 1.06788V9.61092V10.4361V11.6496V13.1058V19.7072V20.8722V21.843V23.5904V30.0463V30.386V32.2306V33.1043V39.997V40.4824V42.2298V43.1521V49.8991V50.6272V52.3261V53.3455V59.6557V61.84V62.3254V64.5097V68.8297H64.1699V64.5097V62.3254V61.84V59.6557V53.3455V52.3261V50.6272V49.8991V43.1521V42.2298V40.4338V39.9484V33.1043V32.2306V30.386V30.0463V23.5904V21.843V20.8722V19.7072V13.1058V11.6496V10.4361V9.61092V1.06788C64.3641 1.11642 64.6068 1.2135 64.8009 1.26204V0.2427C64.7038 0.19416 64.5582 0.14562 64.4611 0.14562L63.9757 0L63.5389 0.14562C63.4418 0.19416 63.2962 0.2427 63.1991 0.2427Z" fill="#333333"/>
<path d="M63.1991 32.5217V39.8027L63.5389 40.1425C63.636 40.094 63.733 40.0454 63.8301 39.9483V33.1042L63.2476 32.5217C63.2476 32.5217 63.2476 32.5217 63.1991 32.5217Z" fill="#333333"/>
<path d="M64.8009 12.4749L64.1699 13.1059V19.7073C64.3641 19.8044 64.6068 19.8529 64.8009 19.95V12.4749Z" fill="#333333"/>
<path d="M63.1991 19.9986C63.3933 19.9015 63.636 19.8044 63.8301 19.7559V13.1059L63.1991 12.4749V19.9986Z" fill="#333333"/>
<path d="M63.1991 52.7629V60.1895C63.3933 59.9954 63.636 59.8012 63.8301 59.607V53.2968L63.2476 52.7144C63.2476 52.7144 63.2476 52.7629 63.1991 52.7629Z" fill="#333333"/>
<path d="M63.1991 42.5696V49.9477L63.3933 50.1418C63.5389 50.0447 63.6845 49.9477 63.7816 49.8506V43.1521L63.1991 42.5696C63.2476 42.5696 63.2476 42.5696 63.1991 42.5696Z" fill="#333333"/>
<path d="M64.8009 39.8029V32.5219C64.8009 32.5219 64.7524 32.5219 64.7524 32.4734L64.1699 33.0559V39.9485C64.267 39.9971 64.3641 40.0456 64.4612 40.1427L64.8009 39.8029Z" fill="#333333"/>
<path d="M63.1991 29.7551L63.5874 30.1434C63.6845 30.0949 63.733 30.0949 63.8301 30.0463V23.5905L63.1991 22.9595V29.7551Z" fill="#333333"/>
<path d="M63.1991 68.7812H63.8301V64.4611L63.1991 63.8301V68.7812Z" fill="#333333"/>
<path d="M64.8009 52.7629L64.7524 52.7144L64.1699 53.2968V59.607C64.3641 59.8012 64.6068 59.9954 64.8009 60.1895V52.7629Z" fill="#333333"/>
<path d="M63.1991 9.80507C63.4418 9.75653 63.636 9.65945 63.8301 9.61091V1.06787C63.636 1.11641 63.3933 1.21349 63.1991 1.26203V9.80507Z" fill="#333333"/>
<path d="M64.8009 49.9476V42.5695C64.8009 42.5695 64.7524 42.5695 64.7524 42.521L64.1699 43.1035V49.8505C64.3155 49.9476 64.4612 50.0447 64.5582 50.1418L64.8009 49.9476Z" fill="#333333"/>
<path d="M64.8009 29.7551V22.9595L64.1699 23.5905V30.0463C64.267 30.0949 64.3155 30.0949 64.4126 30.1434L64.8009 29.7551Z" fill="#333333"/>
<path d="M64.8009 63.8301L64.1699 64.4611V68.7812H64.8009V63.8301Z" fill="#333333"/>
<path d="M64.8009 9.80507V1.26203C64.6068 1.21349 64.3641 1.11641 64.1699 1.06787V9.61091C64.3641 9.65945 64.5582 9.75653 64.8009 9.80507Z" fill="#333333"/>
<path d="M63.1991 61.1119L63.8301 61.7429V59.5586C63.636 59.7528 63.3933 59.9469 63.1991 60.1411V61.1119Z" fill="#333333"/>
<path d="M63.8301 50.5787V49.8506C63.6845 49.9477 63.5389 50.0447 63.4418 50.1418L63.8301 50.5787Z" fill="#333333"/>
<path d="M63.2476 52.7146L63.1991 52.666V52.7631C63.2476 52.7631 63.2476 52.7146 63.2476 52.7146Z" fill="#333333"/>
<path d="M63.8301 40.4339V39.9485C63.733 39.997 63.636 40.0456 63.5389 40.1426L63.8301 40.4339Z" fill="#333333"/>
<path d="M63.2476 42.5695L63.1991 42.521V42.6181C63.2476 42.5695 63.2476 42.5695 63.2476 42.5695Z" fill="#333333"/>
<path d="M63.8301 30.3862V30.0464C63.733 30.0949 63.6845 30.0949 63.5874 30.1435L63.8301 30.3862Z" fill="#333333"/>
<path d="M63.248 32.5222L63.1991 32.4734V32.5222C63.248 32.5222 63.248 32.5222 63.248 32.5222Z" fill="#333333"/>
<path d="M63.1991 20.2898L63.8301 20.9208V19.7559C63.636 19.8529 63.3933 19.9015 63.1991 19.9986V20.2898Z" fill="#333333"/>
<path d="M63.8301 10.436V9.61084C63.6359 9.65938 63.4418 9.75646 63.2476 9.805L63.8301 10.436Z" fill="#333333"/>
<path d="M63.1991 12.4748L63.8301 13.1059V11.6497C63.636 11.7467 63.3933 11.7953 63.1991 11.8924V12.4748Z" fill="#333333"/>
<path d="M63.1991 9.80493V11.8436C63.3933 11.7465 63.636 11.698 63.8301 11.6009V10.3874L63.1991 9.80493Z" fill="#333333"/>
<path d="M63.1991 22.9594L63.8301 23.5905V21.843C63.636 21.9401 63.3933 22.0372 63.1991 22.1343V22.9594Z" fill="#333333"/>
<path d="M63.1991 22.1343C63.3933 22.0372 63.636 21.9401 63.8301 21.843V20.8722L63.1991 20.2412V22.1343Z" fill="#333333"/>
<path d="M63.8301 33.1042V32.2305C63.6359 32.3275 63.4418 32.4246 63.2476 32.5217L63.8301 33.1042Z" fill="#333333"/>
<path d="M63.6359 30.1918L63.2476 29.8035V30.3859C63.3447 30.2889 63.4903 30.2403 63.6359 30.1918Z" fill="#333333"/>
<path d="M63.1991 30.386V32.4732L63.2476 32.5218C63.4418 32.4247 63.636 32.3276 63.8301 32.2305V30.386L63.5874 30.1433C63.4903 30.2404 63.3447 30.2889 63.1991 30.386Z" fill="#333333"/>
<path d="M63.5389 40.1425L63.1991 39.8027V40.3367C63.2962 40.2396 63.4418 40.1911 63.5389 40.1425Z" fill="#333333"/>
<path d="M63.8301 43.152V42.2297C63.6359 42.3268 63.4418 42.4724 63.2476 42.5695L63.8301 43.152Z" fill="#333333"/>
<path d="M63.1991 40.3367V42.521L63.2476 42.5696C63.4418 42.4725 63.636 42.3269 63.8301 42.2298V40.4338L63.5389 40.1426C63.4418 40.1911 63.2962 40.2397 63.1991 40.3367Z" fill="#333333"/>
<path d="M63.4418 50.1903L63.2476 49.9961V50.3844C63.2962 50.2873 63.3447 50.2388 63.4418 50.1903Z" fill="#333333"/>
<path d="M63.8301 53.2969V52.2776C63.6359 52.4232 63.4418 52.5688 63.2476 52.7144L63.8301 53.2969Z" fill="#333333"/>
<path d="M63.1991 50.336V52.666L63.2476 52.7145C63.4418 52.5689 63.636 52.4233 63.8301 52.2776V50.5787L63.4418 50.1904C63.3447 50.239 63.2962 50.2875 63.1991 50.336Z" fill="#333333"/>
<path d="M63.1991 63.8301L63.8301 64.4612V62.2769C63.636 62.471 63.3933 62.7137 63.1991 62.9079V63.8301Z" fill="#333333"/>
<path d="M63.1991 62.9078C63.3933 62.6651 63.5874 62.471 63.8301 62.2768V61.7914L63.1991 61.1604V62.9078Z" fill="#333333"/>
<path d="M65.1407 60.4809C65.0436 60.3838 64.898 60.2867 64.8009 60.1411V61.1119L65.1407 60.7721V60.4809Z" fill="#333333"/>
<path d="M64.8009 60.1897C64.6068 59.9955 64.3641 59.8013 64.1699 59.6072V61.7915L64.8009 61.1605V60.1897Z" fill="#333333"/>
<path d="M65.1407 52.3262L64.8009 52.666V52.763C64.898 52.8601 65.0436 52.9572 65.1407 53.0057V52.3262Z" fill="#333333"/>
<path d="M64.1699 49.8992V50.6273L64.5582 50.2389C64.4612 50.0933 64.3155 49.9962 64.1699 49.8992Z" fill="#333333"/>
<path d="M64.7523 52.7146L64.8009 52.7631V52.666L64.7523 52.7146Z" fill="#333333"/>
<path d="M65.1407 42.1814L64.8009 42.5212V42.6183C64.898 42.6668 65.0436 42.7639 65.1407 42.8124V42.1814Z" fill="#333333"/>
<path d="M64.1699 39.9485V40.4339L64.4612 40.1426C64.3641 40.0941 64.267 39.997 64.1699 39.9485Z" fill="#333333"/>
<path d="M64.7523 42.5695C64.7523 42.5695 64.8009 42.5695 64.8009 42.6181V42.521L64.7523 42.5695Z" fill="#333333"/>
<path d="M65.1407 32.1335L64.8009 32.4733V32.5219C64.898 32.5704 65.0436 32.6189 65.1407 32.6675V32.1335Z" fill="#333333"/>
<path d="M64.1699 30.0464V30.3862L64.4126 30.1435C64.3155 30.1435 64.2185 30.0949 64.1699 30.0464Z" fill="#333333"/>
<path d="M64.7523 32.5219C64.7523 32.5219 64.8009 32.5219 64.8009 32.5705V32.4734L64.7523 32.5219Z" fill="#333333"/>
<path d="M64.8009 19.9985V20.2898L64.9951 20.0956C64.898 20.0471 64.8494 19.9985 64.8009 19.9985Z" fill="#333333"/>
<path d="M64.8009 19.9986C64.6068 19.9015 64.3641 19.8044 64.1699 19.7559V20.9208L64.8009 20.2898V19.9986Z" fill="#333333"/>
<path d="M64.1699 9.61084V10.436L64.7524 9.85354C64.5582 9.75646 64.3641 9.65938 64.1699 9.61084Z" fill="#333333"/>
<path d="M65.1407 11.9895V12.1351L65.2378 12.038C65.1892 12.038 65.1407 12.038 65.1407 11.9895Z" fill="#333333"/>
<path d="M66.7425 10.5817L72.2275 5.09671C71.5965 4.80547 70.9655 4.56277 70.3345 4.32007L65.1407 9.51385V9.99925C65.6746 10.1449 66.2086 10.339 66.7425 10.5817Z" fill="#333333"/>
<path d="M66.7425 10.5817C66.2086 10.3875 65.6746 10.1448 65.1407 9.95068V11.9894C65.1892 11.9894 65.2378 12.0379 65.2378 12.0379L66.7425 10.5817Z" fill="#333333"/>
<path d="M72.2275 5.09674L72.9556 4.36864C72.3246 4.0774 71.6936 3.8347 71.0626 3.54346L70.3345 4.27156C70.917 4.5628 71.5965 4.8055 72.2275 5.09674Z" fill="#333333"/>
<path d="M65.1407 11.9894C65.0436 11.9408 64.898 11.8923 64.8009 11.8438V12.4748L65.1407 12.135V11.9894Z" fill="#333333"/>
<path d="M65.1407 9.46533L64.8009 9.80511V9.85365C64.898 9.90219 65.0436 9.95073 65.1407 9.99927V9.46533Z" fill="#333333"/>
<path d="M64.8009 11.8924C64.6068 11.7953 64.3641 11.7467 64.1699 11.6497V13.1059L64.8009 12.4748V11.8924Z" fill="#333333"/>
<path d="M65.1407 9.95055C65.0436 9.90201 64.898 9.85347 64.8009 9.80493V11.8436C64.898 11.8922 65.0436 11.9407 65.1407 11.9892V9.95055Z" fill="#333333"/>
<path d="M64.8009 9.80493C64.8009 9.80493 64.7524 9.80493 64.8009 9.80493L64.1699 10.3874V11.6495C64.3641 11.7465 64.6068 11.7951 64.8009 11.8922V9.80493Z" fill="#333333"/>
<path d="M65.3834 22.3769C65.2863 22.3283 65.1892 22.2798 65.1407 22.2798V22.6681L65.3834 22.3769Z" fill="#333333"/>
<path d="M66.8396 20.9206L72.5188 15.29C71.9363 14.9987 71.3053 14.7075 70.6743 14.4163L65.0922 19.9984V20.1925C65.7232 20.3867 66.3057 20.6294 66.8396 20.9206Z" fill="#333333"/>
<path d="M72.1304 12.9116C72.7615 13.2029 73.3439 13.4941 73.9264 13.7853L79.2658 8.44594C78.6833 8.1547 78.1009 7.81492 77.4698 7.52368L72.1304 12.9116Z" fill="#333333"/>
<path d="M65.3834 22.3769L66.8396 20.9207C66.2571 20.678 65.6746 20.3867 65.0922 20.144V22.2798C65.1892 22.2798 65.2863 22.3283 65.3834 22.3769Z" fill="#333333"/>
<path d="M72.5188 15.2415L73.975 13.7853C73.3925 13.4941 72.7615 13.2029 72.179 12.9116L70.7228 14.3678C71.3053 14.6591 71.9363 14.9503 72.5188 15.2415Z" fill="#333333"/>
<path d="M79.2658 8.4944L79.9454 7.81484C79.3629 7.47506 78.7804 7.18382 78.1979 6.89258L77.5184 7.57214C78.1009 7.86338 78.6833 8.15462 79.2658 8.4944Z" fill="#333333"/>
<path d="M64.9951 20.0956C65.0436 20.0956 65.0921 20.1441 65.1407 20.1441V19.95L64.9951 20.0956Z" fill="#333333"/>
<path d="M65.1407 22.2799C65.0436 22.2314 64.898 22.1828 64.8009 22.1343V23.008L65.1407 22.6682V22.2799Z" fill="#333333"/>
<path d="M64.8009 22.1343C64.6068 22.0372 64.3641 21.9401 64.1699 21.843V23.5905L64.8009 22.9594V22.1343Z" fill="#333333"/>
<path d="M65.1407 20.1442C65.0921 20.1442 65.0436 20.0957 64.9951 20.0957L64.8009 20.2899V22.1344C64.898 22.1829 65.0436 22.2315 65.1407 22.28V20.1442Z" fill="#333333"/>
<path d="M64.8009 20.2898L64.1699 20.9208V21.8916C64.3641 21.9887 64.6068 22.0858 64.8009 22.1829V20.2898Z" fill="#333333"/>
<path d="M71.4023 23.1537C71.9848 23.4449 72.5673 23.7847 73.1498 24.1245L78.6348 18.6395C78.0523 18.2997 77.5184 17.9599 76.9359 17.6201L71.4023 23.1537Z" fill="#333333"/>
<path d="M71.6936 25.5321C71.1111 25.1923 70.5286 24.9011 69.9462 24.5613L65.0922 29.4153V30.5317C65.4319 30.7259 65.8203 30.8715 66.16 31.0656L71.6936 25.5321Z" fill="#333333"/>
<path d="M78.3921 16.2123C78.9746 16.5521 79.5085 16.8919 80.091 17.2316L85.3333 11.9893C84.7994 11.6495 84.2169 11.3098 83.6829 10.97L78.3921 16.2123Z" fill="#333333"/>
<path d="M66.2086 31.0657C65.8688 30.8715 65.4805 30.7259 65.1407 30.5317V32.1336L66.2086 31.0657Z" fill="#333333"/>
<path d="M71.4023 23.1536L69.9461 24.6098C70.5286 24.901 71.1111 25.2408 71.6935 25.5806L73.1497 24.1244C72.5673 23.7846 71.9848 23.4448 71.4023 23.1536Z" fill="#333333"/>
<path d="M78.6348 18.6394L80.0425 17.2317C79.46 16.892 78.9261 16.5522 78.3436 16.2124L76.9359 17.6201C77.5184 17.9598 78.1009 18.2996 78.6348 18.6394Z" fill="#333333"/>
<path d="M85.2848 11.9895L85.9643 11.3585C85.4304 11.0187 84.8479 10.6789 84.314 10.3391L83.6344 11.0187C84.1683 11.2614 84.7508 11.6497 85.2848 11.9895Z" fill="#333333"/>
<path d="M65.1407 29.4153L64.8009 29.7551V30.3375C64.898 30.3861 65.0436 30.4346 65.1407 30.4832V29.4153Z" fill="#333333"/>
<path d="M64.3641 30.1918C64.5097 30.2403 64.6553 30.3374 64.7524 30.3859V29.8035L64.3641 30.1918Z" fill="#333333"/>
<path d="M64.1699 32.2305V33.1042L64.7524 32.5217C64.5582 32.4246 64.3641 32.3275 64.1699 32.2305Z" fill="#333333"/>
<path d="M65.1407 30.5316C65.0436 30.4831 64.898 30.4345 64.8009 30.386V32.4732L65.1407 32.1334V30.5316Z" fill="#333333"/>
<path d="M64.8009 32.4733V30.3861C64.6553 30.3375 64.5097 30.2404 64.4126 30.1919L64.1699 30.4346V32.2791C64.3641 32.3762 64.5582 32.4733 64.7524 32.5704L64.8009 32.4733Z" fill="#333333"/>
<path d="M77.664 26.9397C78.1979 27.2795 78.7319 27.6678 79.2658 28.0561L84.6538 22.6682C84.1198 22.2799 83.5859 21.8915 83.1005 21.5518L77.664 26.9397Z" fill="#333333"/>
<path d="M66.16 41.162L71.1111 36.2109C70.5772 35.8712 69.9947 35.4828 69.4608 35.1431L65.1407 39.4631V40.4825C65.4805 40.7252 65.8202 40.9193 66.16 41.162Z" fill="#333333"/>
<path d="M77.8582 29.4152C77.3242 29.0269 76.7903 28.6871 76.2564 28.2988L70.8684 33.7353C71.4023 34.0751 71.9848 34.4149 72.5188 34.8032L77.8582 29.4152Z" fill="#333333"/>
<path d="M84.5082 20.0956C85.0421 20.484 85.5761 20.8237 86.0615 21.2121L91.2552 16.0668C90.7213 15.6785 90.2359 15.2902 89.702 14.9019L84.5082 20.0956Z" fill="#333333"/>
<path d="M66.16 41.162C65.8202 40.9679 65.4805 40.7252 65.1407 40.531V42.1814L66.16 41.162Z" fill="#333333"/>
<path d="M70.8684 33.7354L69.4608 35.143C69.9947 35.4828 70.5772 35.8226 71.1111 36.2109L72.5188 34.8032C71.9848 34.4149 71.4024 34.0751 70.8684 33.7354Z" fill="#333333"/>
<path d="M79.2658 28.0075C78.7319 27.6192 78.1979 27.2794 77.664 26.8911L76.2563 28.2988C76.7903 28.6386 77.3242 29.0269 77.8582 29.4152L79.2658 28.0075Z" fill="#333333"/>
<path d="M84.6537 22.6198L86.0614 21.2121C85.5275 20.8238 85.0421 20.4355 84.5081 20.0957L83.1005 21.5034C83.6344 21.8917 84.1683 22.2315 84.6537 22.6198Z" fill="#333333"/>
<path d="M91.2552 16.0667L91.8862 15.4357C91.3523 15.0474 90.8669 14.6591 90.3329 14.2708L89.7019 14.9018C90.1873 15.3386 90.7212 15.6784 91.2552 16.0667Z" fill="#333333"/>
<path d="M65.1407 39.4631L64.8009 39.8029V40.3369C64.898 40.3854 65.0436 40.4825 65.1407 40.531V39.4631Z" fill="#333333"/>
<path d="M64.1699 42.2297V43.152L64.7524 42.5695C64.5582 42.4239 64.3641 42.3268 64.1699 42.2297Z" fill="#333333"/>
<path d="M64.4611 40.1425C64.5582 40.1911 64.6553 40.2881 64.8009 40.3367V39.8027L64.4611 40.1425Z" fill="#333333"/>
<path d="M65.1407 40.5308C65.0436 40.4823 64.898 40.3852 64.8009 40.3367V42.521L65.1407 42.1812V40.5308Z" fill="#333333"/>
<path d="M64.8009 42.521V40.3367C64.7039 40.2882 64.6068 40.1911 64.4612 40.1426L64.1699 40.4338V42.2298C64.3641 42.3269 64.5582 42.4725 64.7524 42.5696L64.8009 42.521Z" fill="#333333"/>
<path d="M72.0333 45.3849L76.8873 40.5309C76.4019 40.1426 75.9165 39.7057 75.3826 39.3174L70.48 44.2199C71.0625 44.6082 71.5479 44.9966 72.0333 45.3849Z" fill="#333333"/>
<path d="M83.5374 31.2598C84.0228 31.6481 84.5082 32.0849 84.9936 32.4733L90.333 27.1339C89.8476 26.697 89.3622 26.3087 88.8768 25.8718L83.5374 31.2598Z" fill="#333333"/>
<path d="M83.5859 33.881C83.1005 33.4441 82.6151 33.0558 82.1297 32.6675L76.8388 37.9583C77.3242 38.3467 77.8581 38.7835 78.3435 39.1718L83.5859 33.881Z" fill="#333333"/>
<path d="M90.2358 24.5127C90.7212 24.901 91.2066 25.3378 91.692 25.7747L96.8373 20.6295C96.3519 20.1926 95.8665 19.8043 95.3811 19.3674L90.2358 24.5127Z" fill="#333333"/>
<path d="M66.1115 51.3554L70.6743 46.7926C70.1889 46.4043 69.6549 46.016 69.1695 45.6277L65.1407 49.6565V50.6273C65.4319 50.8215 65.7717 51.0642 66.1115 51.3554Z" fill="#333333"/>
<path d="M66.1115 51.3553C65.7717 51.1126 65.4319 50.8213 65.1407 50.5786V52.3261L66.1115 51.3553Z" fill="#333333"/>
<path d="M72.0333 45.3849C71.5479 44.9966 71.014 44.5597 70.5286 44.1714L69.1209 45.579C69.6549 45.9674 70.1403 46.3557 70.6257 46.744L72.0333 45.3849Z" fill="#333333"/>
<path d="M76.8389 37.9583L75.4797 39.3174C75.9651 39.7057 76.4991 40.094 76.9845 40.5309L78.3436 39.1718C77.8097 38.7349 77.3243 38.3466 76.8389 37.9583Z" fill="#333333"/>
<path d="M82.1297 32.6189C82.6151 33.0072 83.1005 33.4441 83.5859 33.8324L84.9936 32.4733C84.5082 32.0364 84.0228 31.6481 83.5374 31.2598L82.1297 32.6189Z" fill="#333333"/>
<path d="M88.8768 25.9204C89.3622 26.3087 89.8476 26.7456 90.333 27.1824L91.6921 25.8233C91.2067 25.3865 90.7213 24.9981 90.2359 24.5613L88.8768 25.9204Z" fill="#333333"/>
<path d="M96.8373 20.6294L97.4683 19.9984C96.9829 19.5615 96.4975 19.1732 96.0121 18.7363L95.3811 19.3673C95.8665 19.8042 96.3519 20.1925 96.8373 20.6294Z" fill="#333333"/>
<path d="M65.1407 49.6565L64.8009 49.9963V50.3846C64.898 50.4817 65.0436 50.5302 65.1407 50.6273V49.6565Z" fill="#333333"/>
<path d="M64.1699 52.2776V53.2969L64.7524 52.7144C64.5582 52.5688 64.3641 52.4232 64.1699 52.2776Z" fill="#333333"/>
<path d="M64.5582 50.1905C64.6067 50.239 64.7038 50.2875 64.7523 50.3361V49.9478L64.5582 50.1905Z" fill="#333333"/>
<path d="M65.1407 50.5786C65.0436 50.4816 64.898 50.433 64.8009 50.3359V52.6659L65.1407 52.3261V50.5786Z" fill="#333333"/>
<path d="M64.8009 52.666V50.336C64.7523 50.2875 64.6552 50.239 64.6067 50.1904L64.2184 50.5787V52.2776C64.4125 52.4233 64.6067 52.5689 64.8009 52.7145V52.666Z" fill="#333333"/>
<path d="M70.5286 58.1023C70.0918 57.6169 69.6549 57.18 69.2181 56.7432L65.2863 60.6749C65.7232 61.1118 66.16 61.5972 66.5969 62.0826L70.5286 58.1023Z" fill="#333333"/>
<path d="M65.1407 63.2476V63.4903L65.2378 63.3932C65.1892 63.3446 65.1407 63.2961 65.1407 63.2476Z" fill="#333333"/>
<path d="M82.6637 45.9673C82.2268 45.4819 81.7899 45.045 81.3531 44.6082L76.4991 49.4622C76.9359 49.899 77.3728 50.3844 77.8097 50.8213L82.6637 45.9673Z" fill="#333333"/>
<path d="M89.3622 36.5506C89.799 36.9874 90.2359 37.4728 90.6728 37.9097L96.0122 32.5703C95.5753 32.1334 95.1384 31.648 94.7016 31.2112L89.3622 36.5506Z" fill="#333333"/>
<path d="M71.8877 56.6948L76.4504 52.1321C76.0136 51.6467 75.5767 51.2098 75.1399 50.7729L70.5771 55.3357C71.0139 55.7726 71.4508 56.258 71.8877 56.6948Z" fill="#333333"/>
<path d="M96.0606 29.852C96.4975 30.2889 96.9343 30.7743 97.3712 31.2111L102.516 26.0659C102.08 25.629 101.643 25.1436 101.157 24.7068L96.0606 29.852Z" fill="#333333"/>
<path d="M84.0227 44.5597L89.3136 39.3174C88.8767 38.832 88.4399 38.3951 88.003 37.9583L82.7122 43.2006C83.149 43.6374 83.5859 44.1228 84.0227 44.5597Z" fill="#333333"/>
<path d="M66.5969 62.0341C66.16 61.5487 65.7232 61.1119 65.2863 60.6265L65.1407 60.7721V63.2476C65.1892 63.2962 65.1892 63.3447 65.2378 63.3447L66.5969 62.0341Z" fill="#333333"/>
<path d="M70.5286 58.1023L71.8877 56.7432C71.4509 56.2578 71.014 55.8209 70.5771 55.384L69.218 56.7432C69.6549 57.1315 70.0917 57.6169 70.5286 58.1023Z" fill="#333333"/>
<path d="M77.8096 50.8213C77.3727 50.3359 76.9359 49.899 76.499 49.4622L75.1399 50.8213C75.5768 51.2581 76.0136 51.7435 76.4505 52.1804L77.8096 50.8213Z" fill="#333333"/>
<path d="M82.7121 43.2007L81.353 44.5598C81.7899 44.9967 82.2267 45.4821 82.6636 45.9189L84.0227 44.5598C83.5859 44.1229 83.149 43.6375 82.7121 43.2007Z" fill="#333333"/>
<path d="M88.0031 37.9582C88.4399 38.3951 88.8768 38.8805 89.3136 39.3174L90.6728 37.9582C90.2359 37.4728 89.799 37.036 89.3622 36.5991L88.0031 37.9582Z" fill="#333333"/>
<path d="M96.0121 32.6189L97.3712 31.2598C96.9344 30.8229 96.4975 30.3375 96.0607 29.9006L94.7015 31.2598C95.1384 31.6966 95.5753 32.1335 96.0121 32.6189Z" fill="#333333"/>
<path d="M65.1407 63.2477C65.0436 63.1507 64.898 63.005 64.8009 62.908V63.8302L65.1407 63.4904V63.2477Z" fill="#333333"/>
<path d="M101.206 24.7553C101.643 25.1921 102.08 25.6775 102.565 26.1144L103.196 25.4834C102.759 25.0465 102.322 24.5611 101.885 24.1243L101.206 24.7553Z" fill="#333333"/>
<path d="M64.8009 62.9079C64.6068 62.6652 64.3641 62.471 64.1699 62.2769V64.4612L64.8009 63.8301V62.9079Z" fill="#333333"/>
<path d="M65.1407 60.772L64.8009 61.1118V62.9077C64.898 63.0048 65.0436 63.1504 65.1407 63.2475V60.772Z" fill="#333333"/>
<path d="M64.8009 61.1118L64.1699 61.7428V62.2282C64.3641 62.4224 64.6068 62.6651 64.8009 62.8593V61.1118Z" fill="#333333"/>
<path d="M88.1001 52.6172C87.7118 52.0833 87.3235 51.5979 86.9351 51.064L82.0326 55.9665C82.4209 56.5004 82.8092 57.0344 83.149 57.5683L88.1001 52.6172Z" fill="#333333"/>
<path d="M75.771 64.9465C75.4312 64.4126 75.0914 63.8301 74.7031 63.2961L70.6743 67.325C70.9655 67.8104 71.2567 68.2472 71.548 68.7326H71.9363L75.771 64.9465Z" fill="#333333"/>
<path d="M95.0413 42.958C95.4296 43.4434 95.818 43.9773 96.2063 44.4627L101.594 39.0748C101.206 38.5894 100.818 38.0555 100.381 37.5701L95.0413 42.958Z" fill="#333333"/>
<path d="M101.788 36.2109C102.177 36.6963 102.614 37.2303 103.002 37.7157L108.147 32.5704C107.759 32.085 107.37 31.5511 106.934 31.0657L101.788 36.2109Z" fill="#333333"/>
<path d="M88.3428 49.6563C88.7311 50.1903 89.1194 50.6757 89.5077 51.2096L94.8471 45.8702C94.4588 45.3363 94.0705 44.8509 93.6822 44.3655L88.3428 49.6563Z" fill="#333333"/>
<path d="M81.7899 58.9275C81.4501 58.3936 81.0618 57.8596 80.6735 57.3257L76.0622 61.937C76.4505 62.4709 76.7903 63.0049 77.1301 63.5388L81.7899 58.9275Z" fill="#333333"/>
<path d="M71.548 68.7812C71.2567 68.2958 70.9655 67.8104 70.6742 67.3735L69.3151 68.7327C69.3151 68.7327 69.3151 68.7812 69.3637 68.7812H71.548Z" fill="#333333"/>
<path d="M77.1786 63.5388C76.8388 63.0049 76.4505 62.471 76.1107 61.937L74.7031 63.3447C75.0914 63.8786 75.4312 64.4125 75.7709 64.995L77.1786 63.5388Z" fill="#333333"/>
<path d="M83.1975 57.5198C82.8092 56.9859 82.4694 56.4519 82.0811 55.918L80.6735 57.3256C81.0618 57.8596 81.4501 58.3935 81.7899 58.9275L83.1975 57.5198Z" fill="#333333"/>
<path d="M88.3428 49.6565L86.9352 51.0642C87.3235 51.5981 87.7118 52.0835 88.1001 52.6174L89.5078 51.2098C89.1195 50.6758 88.7312 50.1904 88.3428 49.6565Z" fill="#333333"/>
<path d="M93.6822 44.3654C94.0705 44.8508 94.4588 45.3848 94.8471 45.8702L96.2548 44.4625C95.8665 43.9286 95.4782 43.4432 95.0898 42.9578L93.6822 44.3654Z" fill="#333333"/>
<path d="M101.594 39.1231L103.002 37.7154C102.614 37.23 102.225 36.6961 101.788 36.2107L100.381 37.6184C100.818 38.1038 101.206 38.5892 101.594 39.1231Z" fill="#333333"/>
<path d="M108.147 32.5703L108.778 31.9393C108.39 31.4539 107.953 30.92 107.565 30.4346L106.934 31.0656C107.37 31.551 107.759 32.0849 108.147 32.5703Z" fill="#333333"/>
<path d="M112.37 52.8116C112.661 53.4426 112.953 54.0251 113.244 54.6561L118.632 49.2681C118.341 48.6857 118.049 48.0546 117.71 47.4722L112.37 52.8116Z" fill="#333333"/>
<path d="M105.235 59.947C105.526 60.578 105.769 61.209 106.011 61.8401L111.739 56.1123C111.448 55.4813 111.157 54.8988 110.865 54.2678L105.235 59.947Z" fill="#333333"/>
<path d="M96.4005 68.7813C96.4493 68.7324 96.4493 68.7324 96.4005 68.7813V68.7813Z" fill="#333333"/>
<path d="M104.555 63.3447C104.312 62.7137 104.07 62.0826 103.779 61.4031L97.9537 67.2279C98.1479 67.7618 98.2935 68.2472 98.4877 68.7812H99.1187L104.555 63.3447Z" fill="#333333"/>
<path d="M97.9537 67.228L96.449 68.7328H98.4877C98.342 68.2474 98.1479 67.7134 97.9537 67.228Z" fill="#333333"/>
<path d="M97.08 70.7714L97.1771 70.6743H97.08C97.08 70.7229 97.08 70.7229 97.08 70.7714Z" fill="#333333"/>
<path d="M103.779 61.403C104.07 62.034 104.312 62.665 104.555 63.3446L106.06 61.8398C105.817 61.2088 105.526 60.5778 105.283 59.9468L103.779 61.403Z" fill="#333333"/>
<path d="M110.962 54.2677C111.254 54.8987 111.545 55.4812 111.836 56.1122L113.292 54.656C113.001 54.025 112.71 53.4425 112.419 52.8115L110.962 54.2677Z" fill="#333333"/>
<path d="M118.68 49.2197L119.36 48.5401C119.069 47.9576 118.777 47.3266 118.438 46.7441L117.758 47.4237C118.049 48.0547 118.389 48.6372 118.68 49.2197Z" fill="#333333"/>
<path d="M107.856 66.791C108.05 67.422 108.244 68.1016 108.438 68.7326H108.584L114.457 62.8593C114.215 62.1797 113.972 61.5487 113.729 60.8691L107.856 66.791Z" fill="#333333"/>
<path d="M115.282 59.413C115.525 60.044 115.768 60.7236 116.011 61.4031L121.593 55.821C121.35 55.19 121.059 54.559 120.816 53.928L115.282 59.413Z" fill="#333333"/>
<path d="M105.914 68.7811H106.448C106.4 68.6355 106.351 68.4899 106.351 68.3928L105.914 68.7811Z" fill="#333333"/>
<path d="M106.303 68.3443C106.351 68.4899 106.4 68.6355 106.4 68.7326H108.438C108.244 68.1016 108.05 67.422 107.856 66.791L106.303 68.3443Z" fill="#333333"/>
<path d="M113.778 60.8692C114.02 61.5488 114.263 62.1798 114.506 62.8594L116.011 61.3546C115.768 60.6751 115.525 60.0441 115.282 59.3645L113.778 60.8692Z" fill="#333333"/>
<path d="M121.544 55.8209L122.272 55.0928C122.03 54.4617 121.738 53.8307 121.496 53.1997L120.816 53.8793C121.059 54.5103 121.301 55.1413 121.544 55.8209Z" fill="#333333"/>
<path d="M117.709 66.7426C117.904 67.4222 118.098 68.1017 118.243 68.7813H118.34L124.068 63.0536C123.874 62.374 123.631 61.6945 123.437 61.0149L117.709 66.7426Z" fill="#333333"/>
<path d="M116.302 68.7811C116.253 68.6354 116.205 68.4413 116.156 68.2957L115.671 68.7811H116.302Z" fill="#333333"/>
<path d="M116.156 68.2957C116.205 68.4413 116.253 68.6355 116.302 68.7811H118.292C118.098 68.1016 117.952 67.422 117.758 66.7424L116.156 68.2957Z" fill="#333333"/>
<path d="M124.068 63.0534L124.796 62.3253C124.602 61.6457 124.36 60.9662 124.117 60.2866L123.389 61.0147C123.68 61.6943 123.874 62.3738 124.068 63.0534Z" fill="#333333"/>
<path d="M102.128 53.5882C102.468 54.1707 102.759 54.7532 103.05 55.3357L108.632 49.7536C108.293 49.1711 108.001 48.5886 107.662 48.0547L102.128 53.5882Z" fill="#333333"/>
<path d="M95.1384 60.5779C95.4297 61.1604 95.7209 61.7915 96.0121 62.4225L101.643 56.7918C101.352 56.2093 101.012 55.6269 100.721 54.9958L95.1384 60.5779Z" fill="#333333"/>
<path d="M109.069 46.6468C109.409 47.2293 109.749 47.7632 110.04 48.3457L115.331 43.0549C114.991 42.4724 114.651 41.9384 114.312 41.356L109.069 46.6468Z" fill="#333333"/>
<path d="M86.9352 68.7812H87.0808C87.0808 68.7326 87.0323 68.6841 87.0323 68.6841L86.9352 68.7812Z" fill="#333333"/>
<path d="M94.5073 63.8787C94.2161 63.2477 93.9734 62.6167 93.6822 62.0342L88.5369 67.1794C88.7796 67.7134 88.9738 68.2473 89.2165 68.7812H89.6533L94.5073 63.8787Z" fill="#333333"/>
<path d="M88.5369 67.1794L87.0807 68.6356C87.0807 68.6842 87.1293 68.7327 87.1293 68.7327H89.2165C88.9738 68.2473 88.7796 67.7134 88.5369 67.1794Z" fill="#333333"/>
<path d="M96.0121 62.4224C95.7209 61.7914 95.4296 61.2089 95.1384 60.5779L93.6822 62.0341C93.9734 62.6651 94.2647 63.2476 94.5074 63.8786L96.0121 62.4224Z" fill="#333333"/>
<path d="M101.643 56.7918L103.099 55.3356C102.808 54.7531 102.468 54.1706 102.177 53.5881L100.72 55.0443C101.012 55.5783 101.303 56.2093 101.643 56.7918Z" fill="#333333"/>
<path d="M108.633 49.7535L110.04 48.3459C109.7 47.7634 109.409 47.1809 109.069 46.647L107.662 48.0546C108.002 48.6371 108.341 49.2196 108.633 49.7535Z" fill="#333333"/>
<path d="M115.331 43.055L115.962 42.424C115.622 41.8415 115.283 41.3076 114.943 40.7251L114.312 41.3561C114.7 41.9386 115.04 42.5211 115.331 43.055Z" fill="#333333"/>
<path d="M85.3333 60.8691C85.6731 61.4515 86.0129 62.034 86.3041 62.6165L91.3037 57.6169C90.964 57.0344 90.6242 56.5004 90.2844 55.918L85.3333 60.8691Z" fill="#333333"/>
<path d="M98.5362 47.6663C98.9245 48.2002 99.2643 48.7341 99.6041 49.3166L105.041 43.8801C104.701 43.3462 104.312 42.8123 103.924 42.2783L98.5362 47.6663Z" fill="#333333"/>
<path d="M91.7406 54.4619C92.0804 54.9959 92.4202 55.5783 92.7599 56.1608L98.1964 50.7243C97.8566 50.1904 97.5169 49.6079 97.1285 49.074L91.7406 54.4619Z" fill="#333333"/>
<path d="M77.4213 68.7812H77.9067C77.8582 68.6841 77.8096 68.587 77.7611 68.4414L77.4213 68.7812Z" fill="#333333"/>
<path d="M105.332 40.8705C105.72 41.4045 106.06 41.9384 106.448 42.4724L111.642 37.2786C111.254 36.7446 110.914 36.2107 110.526 35.6768L105.332 40.8705Z" fill="#333333"/>
<path d="M84.8479 64.0243C84.5567 63.4418 84.2169 62.8593 83.8771 62.2769L79.1688 66.9852C79.46 67.5677 79.7512 68.1502 80.0425 68.7327H80.091L84.8479 64.0243Z" fill="#333333"/>
<path d="M77.761 68.4413C77.8096 68.5384 77.8581 68.6355 77.9067 68.7811H80.091C79.7997 68.1986 79.5085 67.6162 79.2172 67.0337L77.761 68.4413Z" fill="#333333"/>
<path d="M86.3041 62.568C85.9643 61.9855 85.6731 61.403 85.3333 60.8206L83.9257 62.2282C84.2654 62.8107 84.5567 63.3932 84.8965 63.9757L86.3041 62.568Z" fill="#333333"/>
<path d="M91.3038 57.5685L92.7114 56.1608C92.3716 55.5783 92.0319 55.0444 91.6921 54.4619L90.2844 55.8696C90.6727 56.4521 91.0125 56.986 91.3038 57.5685Z" fill="#333333"/>
<path d="M97.1285 49.0739C97.4683 49.6079 97.8566 50.1418 98.1964 50.7243L99.6041 49.3166C99.2643 48.7827 98.876 48.2487 98.5362 47.6663L97.1285 49.0739Z" fill="#333333"/>
<path d="M103.924 42.2783C104.313 42.8122 104.652 43.3461 105.041 43.8801L106.448 42.4724C106.108 41.9385 105.72 41.4045 105.332 40.8706L103.924 42.2783Z" fill="#333333"/>
<path d="M110.526 35.677C110.914 36.2109 111.254 36.7448 111.642 37.2788L112.273 36.6478C111.885 36.1138 111.545 35.5799 111.157 35.0945L110.526 35.677Z" fill="#333333"/>
<path d="M23.0565 69.7034L24.0273 70.6742H28.9299C29.0269 70.3344 29.124 70.0431 29.2211 69.7034H23.0565Z" fill="#333333"/>
<path d="M80.5278 69.7034C80.6735 70.0431 80.8191 70.3344 80.9647 70.6742H85.0421L86.0129 69.7034H80.5278Z" fill="#333333"/>
<path d="M19.416 68.781H12.3292L13.3 69.7518H19.3189C19.416 69.4606 19.4645 69.2179 19.5616 68.9266L19.416 68.781Z" fill="#333333"/>
<path d="M28.8813 68.781H22.0857L23.0565 69.7518H29.2211C29.2696 69.6062 29.3182 69.412 29.3667 69.2664L28.8813 68.781Z" fill="#333333"/>
<path d="M78.198 70.6742H78.7805C78.7319 70.5286 78.6349 70.383 78.5863 70.2859L78.198 70.6742Z" fill="#333333"/>
<path d="M87.7118 70.6742H87.8089C87.8089 70.6257 87.8089 70.6257 87.7603 70.5771L87.7118 70.6742Z" fill="#333333"/>
<path d="M118.389 68.781L118.292 68.8781C118.389 69.1693 118.438 69.4606 118.486 69.7518H125.816C125.767 69.412 125.67 69.1208 125.622 68.781H118.389Z" fill="#333333"/>
<path d="M118.535 69.7034C118.632 70.0431 118.68 70.3344 118.777 70.6742H126.058C126.01 70.3344 125.913 70.0431 125.864 69.7034H118.535Z" fill="#333333"/>
<path d="M106.691 70.6741H106.982C106.982 70.6256 106.934 70.5285 106.934 70.4314L106.691 70.6741Z" fill="#333333"/>
<path d="M69.2181 68.781H65.1407V69.7033H68.2958L69.2181 68.781Z" fill="#333333"/>
<path d="M21.0178 70.6741H21.3091L21.0664 70.4314C21.0664 70.5285 21.0664 70.577 21.0178 70.6741Z" fill="#333333"/>
<path d="M11.2127 70.6741H11.5039L11.2612 70.4314C11.2612 70.5285 11.2612 70.577 11.2127 70.6741Z" fill="#333333"/>
<path d="M13.2514 69.7034L14.2222 70.6742H19.0277C19.1247 70.3344 19.1733 70.0431 19.2704 69.7034H13.2514Z" fill="#333333"/>
<path d="M104.944 69.7034H98.7789C98.876 70.0431 98.9731 70.3344 99.0702 70.6742H103.973L104.944 69.7034Z" fill="#333333"/>
<path d="M89.5563 69.7034C89.6534 70.0431 89.799 70.3344 89.8961 70.6742H94.5074L95.4782 69.7034H89.5563Z" fill="#333333"/>
<path d="M80.1395 68.781C80.2366 69.1208 80.3822 69.412 80.5278 69.7518H86.0129L86.9837 68.781H80.1395Z" fill="#333333"/>
<path d="M116.447 70.6741H116.739C116.739 70.577 116.69 70.5285 116.69 70.4314L116.447 70.6741Z" fill="#333333"/>
<path d="M108.73 69.7034C108.827 70.0431 108.875 70.3344 108.972 70.6742H113.778L114.749 69.7034H108.73Z" fill="#333333"/>
<path d="M68.2958 69.7034H65.1407V70.6742H67.325L68.2958 69.7034Z" fill="#333333"/>
<path d="M57.8597 70.0918C57.7626 70.286 57.6655 70.4801 57.5684 70.6257H58.4421L57.8597 70.0918Z" fill="#333333"/>
<path d="M61.1119 70.6742H62.8593V69.7034H60.1411L61.1119 70.6742Z" fill="#333333"/>
<path d="M55.9181 69.7034H51.5495L52.5203 70.6742H55.4327C55.5298 70.3344 55.7239 70.0431 55.9181 69.7034Z" fill="#333333"/>
<path d="M32.5218 69.7034L33.4926 70.6742H38.1039C38.201 70.3344 38.3466 70.0431 38.4437 69.7034H32.5218Z" fill="#333333"/>
<path d="M59.2188 68.781L60.1411 69.7033H62.8593V68.781H59.2188Z" fill="#333333"/>
<path d="M70.0432 70.6741H70.4801C70.4315 70.577 70.383 70.4799 70.3344 70.4314L70.0432 70.6741Z" fill="#333333"/>
<path d="M9.46533 69.7035C9.51387 69.4122 9.61095 69.121 9.65949 68.8297L9.56241 68.7327H2.37849C2.28141 69.0724 2.23287 69.3637 2.18433 69.7035H9.46533Z" fill="#333333"/>
<path d="M40.1426 70.6742H40.2882L40.1911 70.5771C40.1911 70.6257 40.1426 70.6257 40.1426 70.6742Z" fill="#333333"/>
<path d="M47.4721 69.7034H41.9871L42.9579 70.6742H47.0838C47.1809 70.3344 47.3265 70.0431 47.4721 69.7034Z" fill="#333333"/>
<path d="M108.584 68.781L108.438 68.9266C108.535 69.2179 108.584 69.4606 108.681 69.7518H114.7L115.671 68.781H108.584Z" fill="#333333"/>
<path d="M72.0819 69.7034C72.2761 70.0431 72.4217 70.3344 72.6159 70.6742H75.5283L76.4991 69.7034H72.0819Z" fill="#333333"/>
<path d="M71.9363 68.781L71.6936 69.0237C71.8392 69.2664 71.9848 69.5091 72.0819 69.7518H76.4505L77.4213 68.781H71.9363Z" fill="#333333"/>
<path d="M49.171 70.6742H49.7535L49.3652 70.2859C49.3166 70.383 49.2196 70.5286 49.171 70.6742Z" fill="#333333"/>
<path d="M99.1187 68.781L98.6333 69.2664C98.6818 69.412 98.7304 69.6062 98.7789 69.7518H104.944L105.914 68.781H99.1187Z" fill="#333333"/>
<path d="M38.3466 68.781H31.551L32.5218 69.7518H38.4436C38.5407 69.5576 38.5893 69.3149 38.6863 69.1208L38.3466 68.781Z" fill="#333333"/>
<path d="M47.8604 68.781H41.0648L42.0356 69.7518H47.5206C47.6177 69.412 47.7633 69.1208 47.8604 68.781Z" fill="#333333"/>
<path d="M89.6534 68.781L89.3136 69.1208C89.4107 69.3149 89.4592 69.5576 89.5563 69.7518H95.4782L96.449 68.781H89.6534Z" fill="#333333"/>
<path d="M9.27113 70.6742C9.36821 70.3344 9.41675 70.0431 9.51383 69.7034H2.13575C2.08721 70.0431 1.99013 70.3344 1.94159 70.6742H9.27113Z" fill="#333333"/>
<path d="M50.5787 68.781L51.5495 69.7518H55.9181C56.1122 69.412 56.2579 69.1208 56.452 68.781H50.5787Z" fill="#333333"/>
<path d="M57.4713 69.7034H55.918C55.7239 70.0431 55.5783 70.3344 55.3841 70.6742H57.5684C57.6655 70.48 57.7626 70.2858 57.8596 70.1402L57.4713 69.7034Z" fill="#333333"/>
<path d="M56.5006 68.781H56.452C56.2579 69.1208 56.0637 69.412 55.9181 69.7518H57.4714L56.5006 68.781Z" fill="#333333"/>
<path d="M47.909 68.781C47.7633 69.0722 47.6177 69.3635 47.4721 69.7033H48.8312L47.909 68.781Z" fill="#333333"/>
<path d="M48.8313 69.7034H47.4721C47.3265 70.0431 47.1809 70.3344 47.0353 70.6742H49.171C49.2196 70.5285 49.3167 70.3829 49.3652 70.2858L48.8313 69.7034Z" fill="#333333"/>
<path d="M38.4437 69.7035H39.3174L38.6864 69.0725C38.5893 69.2667 38.4923 69.5094 38.4437 69.7035Z" fill="#333333"/>
<path d="M39.3174 69.7034H38.4437C38.3466 70.0431 38.201 70.3344 38.1039 70.6742H40.1426C40.1426 70.6256 40.1426 70.6256 40.1911 70.5771L39.3174 69.7034Z" fill="#333333"/>
<path d="M29.2211 69.7034C29.124 70.0431 29.0269 70.3344 28.9298 70.6742H30.8229L29.8521 69.7034H29.2211Z" fill="#333333"/>
<path d="M29.2211 69.7034H29.8521L29.3667 69.218C29.3181 69.4122 29.2696 69.5578 29.2211 69.7034Z" fill="#333333"/>
<path d="M19.2704 69.7034H20.3383L19.5131 68.8782C19.4645 69.1694 19.3675 69.4121 19.2704 69.7034Z" fill="#333333"/>
<path d="M20.3383 69.7034H19.2704C19.1733 70.0431 19.1248 70.3344 19.0277 70.6742H21.0178C21.0178 70.5771 21.0664 70.5285 21.0664 70.4315L20.3383 69.7034Z" fill="#333333"/>
<path d="M9.70801 68.8298C9.61093 69.1211 9.56239 69.4123 9.51385 69.7036H10.5817L9.70801 68.8298Z" fill="#333333"/>
<path d="M10.5817 69.7034H9.51382C9.41674 70.0431 9.3682 70.3344 9.27112 70.6742H11.2613C11.2613 70.5771 11.3098 70.5285 11.3098 70.4315L10.5817 69.7034Z" fill="#333333"/>
<path d="M1.16494 69.7035C1.21348 69.3637 1.31056 69.0724 1.40764 68.7327H0.436836C0.339756 69.0724 0.291216 69.3637 0.242676 69.7035H1.16494Z" fill="#333333"/>
<path d="M2.13573 69.7035C2.18427 69.3637 2.28135 69.0724 2.32989 68.7327H1.35909C1.26201 69.0724 1.21347 69.3637 1.11639 69.7035H2.13573Z" fill="#333333"/>
<path d="M2.13579 69.7034H1.16499C1.11645 70.0431 1.01937 70.3344 0.970825 70.6742H1.94163C2.03871 70.3344 2.08725 70.0431 2.13579 69.7034Z" fill="#333333"/>
<path d="M63.1991 69.7034H62.8593V70.6742H63.1991V69.7034Z" fill="#333333"/>
<path d="M63.1991 68.781H62.8593V69.7518H63.1991V68.781Z" fill="#333333"/>
<path d="M0.9708 70.6742C1.01934 70.3344 1.11642 70.0431 1.16496 69.7034H0.19416C0.14562 70.0431 0.04854 70.3344 0 70.6742H0.9708Z" fill="#333333"/>
<path d="M58.1024 69.7036C58.0053 69.8492 57.9568 69.9948 57.8597 70.0919L58.3936 70.6258H61.1119L60.1411 69.655H58.1024V69.7036Z" fill="#333333"/>
<path d="M58.1024 69.7035H60.1411L59.1703 68.7327H58.6364C58.4907 69.0724 58.2966 69.4122 58.1024 69.7035Z" fill="#333333"/>
<path d="M57.8597 70.0917C57.9568 69.9461 58.0053 69.8004 58.1024 69.7034H57.4714L57.8597 70.0917Z" fill="#333333"/>
<path d="M56.5005 68.781L57.4713 69.7518H58.1024C58.2965 69.412 58.4907 69.1208 58.6848 68.781H56.5005Z" fill="#333333"/>
<path d="M31.551 68.781C31.4539 69.1208 31.3568 69.412 31.2112 69.7518H32.5218L31.551 68.781Z" fill="#333333"/>
<path d="M29.3667 69.2181C29.4152 69.0724 29.4638 68.8783 29.5123 68.7327H28.8813L29.3667 69.2181Z" fill="#333333"/>
<path d="M31.2112 69.7034C31.1141 70.0431 31.0171 70.3344 30.92 70.6742H33.4926L32.5218 69.7034H31.2112Z" fill="#333333"/>
<path d="M29.8036 69.7034L30.7744 70.6742H30.92C31.0171 70.3344 31.1142 70.0431 31.2112 69.7034H29.8036Z" fill="#333333"/>
<path d="M29.5123 68.781C29.4638 68.9266 29.4152 69.1208 29.3667 69.2664L29.8521 69.7518H31.2598C31.3568 69.412 31.4539 69.1208 31.5995 68.781H29.5123Z" fill="#333333"/>
<path d="M21.6003 68.781C21.5032 69.1208 21.4062 69.412 21.3091 69.7518H23.0565L22.0857 68.781H21.6003Z" fill="#333333"/>
<path d="M19.5131 68.8783C19.5131 68.8297 19.5131 68.7812 19.5616 68.7327H19.416L19.5131 68.8783Z" fill="#333333"/>
<path d="M23.0565 69.7034H21.309C21.2605 69.9461 21.1634 70.1888 21.1149 70.4315L21.3576 70.6742H24.0758L23.0565 69.7034Z" fill="#333333"/>
<path d="M21.1149 70.4315C21.1634 70.1888 21.2605 69.9461 21.309 69.7034H20.3868L21.1149 70.4315Z" fill="#333333"/>
<path d="M19.5616 68.781C19.5616 68.8295 19.5616 68.8781 19.5131 68.9266L20.3382 69.7518H21.2605C21.3576 69.412 21.4547 69.1208 21.5517 68.781H19.5616Z" fill="#333333"/>
<path d="M9.6109 68.781L9.70798 68.8781C9.70798 68.8295 9.70798 68.8295 9.70798 68.781H9.6109Z" fill="#333333"/>
<path d="M11.6981 68.781C11.6011 69.1208 11.5525 69.412 11.4554 69.7518H13.2514L12.2806 68.781H11.6981Z" fill="#333333"/>
<path d="M11.4555 69.7034C11.4069 69.9461 11.3584 70.1888 11.2613 70.4315L11.504 70.6742H14.2222L13.2514 69.7034H11.4555Z" fill="#333333"/>
<path d="M11.4554 69.7035C11.5525 69.3637 11.6011 69.0724 11.6981 68.7327H9.70801C9.70801 68.7812 9.70801 68.7812 9.70801 68.8297L10.5817 69.7035H11.4554Z" fill="#333333"/>
<path d="M11.3098 70.4315C11.3583 70.1888 11.4069 69.9461 11.504 69.7034H10.6302L11.3098 70.4315Z" fill="#333333"/>
<path d="M40.9192 68.781C40.7736 69.1208 40.6765 69.412 40.5309 69.7518H42.0356L41.0648 68.781H40.9192Z" fill="#333333"/>
<path d="M40.5309 69.7034C40.4338 69.9946 40.2882 70.2858 40.1911 70.5771L40.2882 70.6742H43.0064L42.0356 69.7034H40.5309Z" fill="#333333"/>
<path d="M38.3466 68.781L38.6864 69.1208C38.7349 69.0237 38.7835 68.9266 38.832 68.781H38.3466Z" fill="#333333"/>
<path d="M40.1911 70.5771C40.2882 70.2858 40.3853 69.9946 40.5309 69.7034H39.3174L40.1911 70.5771Z" fill="#333333"/>
<path d="M38.7834 68.781C38.7349 68.8781 38.6864 68.9752 38.6378 69.1208L39.2688 69.7518H40.4823C40.628 69.412 40.725 69.1208 40.8707 68.781H38.7834Z" fill="#333333"/>
<path d="M50.0933 68.781C49.9477 69.1208 49.7535 69.412 49.6079 69.7518H51.501L50.5302 68.781H50.0933Z" fill="#333333"/>
<path d="M49.6079 69.7036C49.5108 69.8977 49.4137 70.0433 49.3652 70.2375L49.7535 70.6258H52.4717L51.5009 69.655H49.6079V69.7036Z" fill="#333333"/>
<path d="M47.909 68.781L48.7827 69.7518H49.5594C49.705 69.412 49.8506 69.1208 50.0448 68.781H47.909Z" fill="#333333"/>
<path d="M49.3651 70.2373C49.4622 70.0431 49.5107 69.849 49.6078 69.7034H48.8312L49.3651 70.2373Z" fill="#333333"/>
<path d="M72.0819 69.7034H70.9654L70.2859 70.3829C70.3344 70.48 70.383 70.5771 70.4315 70.6256H72.6158C72.4217 70.3344 72.276 70.0431 72.0819 69.7034Z" fill="#333333"/>
<path d="M70.9655 69.7034H72.0819C71.9363 69.4607 71.8392 69.218 71.6936 68.9753L70.9655 69.7034Z" fill="#333333"/>
<path d="M80.5278 69.7034H79.1687L78.6348 70.2373C78.6833 70.3829 78.7804 70.5285 78.8289 70.6256H80.9647C80.7705 70.3344 80.6734 70.0431 80.5278 69.7034Z" fill="#333333"/>
<path d="M79.1688 69.7033H80.5279C80.3823 69.412 80.2366 69.0722 80.091 68.781L79.1688 69.7033Z" fill="#333333"/>
<path d="M88.6826 69.7035H89.5563C89.4593 69.5094 89.4107 69.2667 89.3136 69.0725L88.6826 69.7035Z" fill="#333333"/>
<path d="M88.6826 69.7034L87.8088 70.5771C87.8088 70.6256 87.8088 70.6256 87.8574 70.6742H89.8961C89.799 70.3344 89.6534 70.0431 89.5563 69.7034H88.6826Z" fill="#333333"/>
<path d="M98.1479 69.7034H98.7789C98.7304 69.5578 98.6818 69.3636 98.6333 69.218L98.1479 69.7034Z" fill="#333333"/>
<path d="M98.1479 69.7034L97.1771 70.6742H99.0701C98.973 70.3344 98.876 70.0431 98.7789 69.7034H98.1479Z" fill="#333333"/>
<path d="M107.662 69.7034H108.73C108.633 69.4121 108.584 69.1694 108.487 68.8782L107.662 69.7034Z" fill="#333333"/>
<path d="M107.662 69.7034L106.934 70.4315C106.934 70.48 106.982 70.5771 106.982 70.6742H108.972C108.875 70.3344 108.827 70.0431 108.73 69.7034H107.662Z" fill="#333333"/>
<path d="M116.69 70.4315C116.69 70.5285 116.739 70.5771 116.739 70.6742H118.729C118.632 70.3344 118.583 70.0431 118.486 69.7034H117.418L116.69 70.4315Z" fill="#333333"/>
<path d="M118.535 69.7036C118.486 69.4123 118.389 69.1211 118.341 68.8298L117.467 69.7036H118.535Z" fill="#333333"/>
<path d="M125.622 68.781C125.719 69.1208 125.767 69.412 125.816 69.7518H126.786C126.738 69.412 126.641 69.1208 126.544 68.781H125.622Z" fill="#333333"/>
<path d="M65.1407 68.781H64.8009V69.7518H65.1407V68.781Z" fill="#333333"/>
<path d="M65.1407 69.7034H64.8009V70.6742H65.1407V69.7034Z" fill="#333333"/>
<path d="M125.816 69.7034C125.864 70.0431 125.961 70.3344 126.01 70.6742H126.981C126.932 70.3344 126.835 70.0431 126.786 69.7034H125.816Z" fill="#333333"/>
<path d="M126.835 69.7035H127.806C127.757 69.3637 127.66 69.0724 127.612 68.7327H126.641C126.689 69.0724 126.738 69.4122 126.835 69.7035Z" fill="#333333"/>
<path d="M126.835 69.7034C126.884 70.0431 126.981 70.3344 127.029 70.6742H128C127.951 70.3344 127.854 70.0431 127.806 69.7034H126.835Z" fill="#333333"/>
<path d="M64.1699 68.781H63.8301V69.7518H64.1699V68.781Z" fill="#333333"/>
<path d="M64.8009 68.781H64.1699V69.7518H64.8009V68.781Z" fill="#333333"/>
<path d="M63.8301 68.781H63.1991V69.7518H63.8301V68.781Z" fill="#333333"/>
<path d="M64.8009 69.7034H64.1699V70.6742H64.8009V69.7034Z" fill="#333333"/>
<path d="M64.1699 69.7034H63.8301V70.6742H64.1699V69.7034Z" fill="#333333"/>
<path d="M63.8301 69.7034H63.1991V70.6742H63.8301V69.7034Z" fill="#333333"/>
<path d="M70.2859 70.3829C70.1403 70.1402 70.0432 69.9461 69.8976 69.7034H68.2958L67.325 70.6742H70.0432L70.2859 70.3829Z" fill="#333333"/>
<path d="M71.9363 68.781H71.548C71.5965 68.8781 71.6451 68.9266 71.6936 69.0237L71.9363 68.781Z" fill="#333333"/>
<path d="M69.8976 69.7035C69.7034 69.3637 69.5093 69.0724 69.3151 68.7327H69.2666L68.2958 69.7035H69.8976Z" fill="#333333"/>
<path d="M70.2859 70.3829L70.9655 69.7034H69.8976C70.0432 69.9461 70.1403 70.1888 70.2859 70.3829Z" fill="#333333"/>
<path d="M71.6936 69.0237C71.645 68.9266 71.5965 68.8781 71.548 68.781H69.3151C69.5093 69.0722 69.7034 69.412 69.8976 69.7518H70.9655L71.6936 69.0237Z" fill="#333333"/>
<path d="M98.6333 69.2181L99.1187 68.7327H98.4877C98.5362 68.9268 98.5848 69.0724 98.6333 69.2181Z" fill="#333333"/>
<path d="M96.4005 68.781L95.4297 69.7518H96.7403C96.6432 69.412 96.5461 69.0722 96.4005 68.781Z" fill="#333333"/>
<path d="M95.4782 69.7034L94.5074 70.6742H97.08C96.9829 70.3344 96.8858 70.0431 96.7888 69.7034H95.4782Z" fill="#333333"/>
<path d="M98.4877 68.781H96.449C96.5461 69.1208 96.6431 69.412 96.7888 69.7518H98.1964L98.6818 69.2664C98.5847 69.0722 98.5362 68.9266 98.4877 68.781Z" fill="#333333"/>
<path d="M96.7402 69.7034C96.8373 70.0431 96.9344 70.3344 97.0315 70.6742H97.1771L98.1479 69.7034H96.7402Z" fill="#333333"/>
<path d="M105.914 68.781L104.943 69.7518H106.691C106.594 69.412 106.497 69.1208 106.4 68.781H105.914Z" fill="#333333"/>
<path d="M106.691 69.7034H104.943L103.973 70.6742H106.691L106.934 70.4315C106.837 70.1888 106.788 69.9461 106.691 69.7034Z" fill="#333333"/>
<path d="M108.584 68.781H108.438C108.438 68.8295 108.438 68.8781 108.487 68.9266L108.584 68.781Z" fill="#333333"/>
<path d="M108.438 68.781H106.4C106.497 69.1208 106.594 69.412 106.691 69.7518H107.613L108.438 68.9266C108.438 68.8295 108.438 68.781 108.438 68.781Z" fill="#333333"/>
<path d="M106.885 70.4315L107.613 69.7034H106.691C106.788 69.9461 106.837 70.1888 106.885 70.4315Z" fill="#333333"/>
<path d="M116.544 69.7034H114.749L113.778 70.6742H116.496L116.739 70.4315C116.642 70.1888 116.593 69.9461 116.544 69.7034Z" fill="#333333"/>
<path d="M118.389 68.781H118.292C118.292 68.8295 118.292 68.8295 118.292 68.8781L118.389 68.781Z" fill="#333333"/>
<path d="M114.749 69.7035H116.545C116.447 69.3637 116.399 69.0724 116.302 68.7327H115.719L114.749 69.7035Z" fill="#333333"/>
<path d="M117.418 69.7034H116.545C116.593 69.9461 116.642 70.1888 116.739 70.4315L117.418 69.7034Z" fill="#333333"/>
<path d="M116.545 69.7035H117.418L118.292 68.8297C118.292 68.7812 118.292 68.7812 118.292 68.7327H116.302C116.35 69.0724 116.447 69.4122 116.545 69.7035Z" fill="#333333"/>
<path d="M89.168 68.781C89.2165 68.8781 89.2651 68.9752 89.3136 69.1208L89.6534 68.781H89.168Z" fill="#333333"/>
<path d="M87.4691 69.7034H85.9643L84.9935 70.6742H87.7118L87.8088 70.5771C87.7118 70.2858 87.6147 69.9946 87.4691 69.7034Z" fill="#333333"/>
<path d="M86.9352 68.781L85.9644 69.7518H87.4691C87.3235 69.412 87.2264 69.1208 87.0808 68.781H86.9352Z" fill="#333333"/>
<path d="M89.168 68.781H87.0807C87.2264 69.1208 87.3235 69.412 87.4691 69.7518H88.6826L89.3136 69.1208C89.2651 68.9752 89.2165 68.8781 89.168 68.781Z" fill="#333333"/>
<path d="M87.8089 70.5771L88.6826 69.7034H87.4691C87.6147 69.9946 87.7118 70.2858 87.8089 70.5771Z" fill="#333333"/>
<path d="M78.3921 69.7034H76.4991L75.5283 70.6742H78.2465L78.6348 70.2858C78.5377 70.0917 78.4407 69.8975 78.3921 69.7034Z" fill="#333333"/>
<path d="M77.4213 68.781L76.4505 69.7518H78.3436C78.1979 69.412 78.0523 69.1208 77.8582 68.781H77.4213Z" fill="#333333"/>
<path d="M78.6348 70.2373L79.1687 69.7034H78.3921C78.4406 69.8975 78.5377 70.0917 78.6348 70.2373Z" fill="#333333"/>
<path d="M80.091 68.7812L77.9067 68.7327C78.0524 69.0724 78.2465 69.3637 78.3921 69.7035H79.1688L80.091 68.7812Z" fill="#333333"/>
</svg>
